<svg width="320" height="320" viewBox="0 0 320 320" fill="none" xmlns="http://www.w3.org/2000/svg">
<mask id="mask0_4207_2762" style="mask-type:alpha" maskUnits="userSpaceOnUse" x="0" y="0" width="320" height="320">
<rect width="320" height="320" fill="#D9D9D9"/>
</mask>
<g mask="url(#mask0_4207_2762)">
<path d="M140.328 193.282L106.508 159.333C104.935 157.846 103.068 157.081 100.905 157.039C98.7429 156.996 96.807 157.829 95.0976 159.539C93.525 161.111 92.7386 162.979 92.7386 165.141C92.7386 167.303 93.525 169.171 95.0976 170.743L133.585 209.436C135.499 211.436 137.747 212.436 140.328 212.436C142.909 212.436 145.157 211.436 147.072 209.436L224.431 132.205C226.055 130.496 226.888 128.56 226.931 126.397C226.973 124.235 226.14 122.299 224.431 120.59C222.721 119.017 220.751 118.265 218.521 118.334C216.29 118.402 214.388 119.222 212.816 120.795L140.328 193.282ZM160.017 286.666C142.635 286.666 126.257 283.342 110.885 276.693C95.5125 270.044 82.0693 260.965 70.5553 249.456C59.0411 237.947 49.9581 224.51 43.3063 209.144C36.6545 193.778 33.3286 177.404 33.3286 160.022C33.3286 142.503 36.6531 126.036 43.302 110.621C49.9508 95.2055 59.0297 81.7964 70.5386 70.3935C82.0477 58.9904 95.4851 49.963 110.851 43.3112C126.216 36.6594 142.59 33.3335 159.973 33.3335C177.492 33.3335 193.959 36.658 209.374 43.3068C224.789 49.9557 238.198 58.9791 249.601 70.3769C261.005 81.7749 270.032 95.1781 276.684 110.587C283.336 125.995 286.661 142.458 286.661 159.978C286.661 177.36 283.337 193.737 276.688 209.11C270.039 224.482 261.016 237.926 249.618 249.44C238.22 260.954 224.817 270.037 209.408 276.689C194 283.34 177.536 286.666 160.017 286.666Z" fill="#119656" fill-opacity="0.8"/>
</g>
</svg>
