<svg width="36" height="36" viewBox="0 0 36 36" fill="none" xmlns="http://www.w3.org/2000/svg">
<rect width="36" height="36" rx="4" fill="white"/>
<mask id="mask0_5353_6050" style="mask-type:alpha" maskUnits="userSpaceOnUse" x="8" y="8" width="20" height="20">
<rect x="8" y="8" width="20" height="20" fill="#D9D9D9"/>
</mask>
<g mask="url(#mask0_5353_6050)">
<path d="M18.0037 25.0815C15.9814 25.0815 14.2952 24.7959 12.9452 24.2248C11.5953 23.6538 10.9204 22.9404 10.9204 22.0846V13.8315C10.9204 13.027 11.6117 12.3398 12.9942 11.7698C14.3767 11.1998 16.0465 10.9148 18.0037 10.9148C19.961 10.9148 21.6308 11.1998 23.0133 11.7698C24.3958 12.3398 25.0871 13.027 25.0871 13.8315V22.0846C25.0871 22.9404 24.4121 23.6538 23.0623 24.2248C21.7123 24.7959 20.0261 25.0815 18.0037 25.0815ZM18.0037 15.4629C19.2185 15.4629 20.4415 15.2912 21.6729 14.9477C22.9042 14.6042 23.6176 14.2338 23.8131 13.8363C23.6228 13.4282 22.9169 13.0476 21.6952 12.6944C20.4735 12.3413 19.243 12.1648 18.0037 12.1648C16.7665 12.1648 15.5403 12.3365 14.325 12.68C13.1097 13.0235 12.3942 13.3982 12.1783 13.8042C12.3889 14.2208 13.0991 14.6015 14.309 14.946C15.519 15.2906 16.7505 15.4629 18.0037 15.4629ZM18.0037 19.6327C18.5818 19.6327 19.1443 19.6049 19.6912 19.5494C20.2382 19.4938 20.7609 19.4126 21.2594 19.3058C21.7577 19.199 22.2243 19.0665 22.6592 18.9083C23.094 18.7503 23.4867 18.5713 23.8371 18.3715V15.4148C23.4867 15.6145 23.094 15.7935 22.6592 15.9517C22.2243 16.1097 21.7577 16.2422 21.2594 16.349C20.7609 16.4559 20.2382 16.5372 19.6912 16.5927C19.1443 16.6483 18.5818 16.676 18.0037 16.676C17.4151 16.676 16.8417 16.6469 16.2833 16.5885C15.7251 16.5304 15.1982 16.4479 14.7025 16.341C14.2068 16.2342 13.745 16.1031 13.3171 15.9477C12.8892 15.7922 12.5069 15.6145 12.1704 15.4148V18.3715C12.5069 18.5713 12.8892 18.749 13.3171 18.9044C13.745 19.0598 14.2068 19.1909 14.7025 19.2977C15.1982 19.4047 15.7251 19.4872 16.2833 19.5454C16.8417 19.6036 17.4151 19.6327 18.0037 19.6327ZM18.0037 23.8315C18.68 23.8315 19.344 23.7869 19.9958 23.6977C20.6475 23.6084 21.2404 23.4866 21.7746 23.3323C22.3087 23.1779 22.7593 22.9986 23.1262 22.7946C23.4933 22.5906 23.7303 22.3763 23.8371 22.1519V19.6215C23.4867 19.8213 23.094 20.0003 22.6592 20.1583C22.2243 20.3165 21.7577 20.449 21.2594 20.5558C20.7609 20.6626 20.2382 20.7438 19.6912 20.7994C19.1443 20.8549 18.5818 20.8827 18.0037 20.8827C17.4151 20.8827 16.8417 20.8536 16.2833 20.7954C15.7251 20.7372 15.1982 20.6547 14.7025 20.5477C14.2068 20.4409 13.745 20.3098 13.3171 20.1544C12.8892 19.999 12.5069 19.8213 12.1704 19.6215V22.1648C12.2772 22.3945 12.512 22.6079 12.8748 22.805C13.2374 23.0021 13.6858 23.1779 14.22 23.3323C14.7543 23.4866 15.3494 23.6084 16.0054 23.6977C16.6614 23.7869 17.3275 23.8315 18.0037 23.8315Z" fill="#119656"/>
</g>
</svg>
