<svg width="20" height="20" viewBox="0 0 20 20" fill="none" xmlns="http://www.w3.org/2000/svg">
<mask id="mask0_5524_1354" style="mask-type:alpha" maskUnits="userSpaceOnUse" x="0" y="0" width="20" height="20">
<rect width="20" height="20" fill="#D9D9D9"/>
</mask>
<g mask="url(#mask0_5524_1354)">
<path d="M5.25646 17.9185C4.83549 17.9185 4.47917 17.7727 4.1875 17.481C3.89583 17.1894 3.75 16.8331 3.75 16.4121V3.59166C3.75 3.17069 3.89583 2.81437 4.1875 2.52271C4.47917 2.23104 4.83549 2.08521 5.25646 2.08521H11.2517C11.4525 2.08521 11.6456 2.12423 11.831 2.20229C12.0163 2.2802 12.1774 2.38757 12.3142 2.52437L15.8108 6.02104C15.9476 6.15784 16.055 6.31889 16.1329 6.50416C16.211 6.68958 16.25 6.88271 16.25 7.08354V16.4121C16.25 16.8331 16.1042 17.1894 15.8125 17.481C15.5208 17.7727 15.1645 17.9185 14.7435 17.9185H5.25646ZM11.25 6.33187V3.33521H5.25646C5.19229 3.33521 5.13354 3.36194 5.08021 3.41541C5.02674 3.46875 5 3.5275 5 3.59166V16.4121C5 16.4762 5.02674 16.535 5.08021 16.5883C5.13354 16.6418 5.19229 16.6685 5.25646 16.6685H14.7435C14.8077 16.6685 14.8665 16.6418 14.9198 16.5883C14.9733 16.535 15 16.4762 15 16.4121V7.08521H12.0033C11.7885 7.08521 11.6092 7.01333 11.4656 6.86958C11.3219 6.72597 11.25 6.54673 11.25 6.33187Z" fill="#119656"/>
</g>
</svg>
