<?xml version="1.0" encoding="UTF-8"?>
<svg width="177px" height="115px" viewBox="0 0 177 115" version="1.1" xmlns="http://www.w3.org/2000/svg" xmlns:xlink="http://www.w3.org/1999/xlink">
    <title>Group 9</title>
    <defs>
        <filter x="-16.6%" y="-12.6%" width="133.1%" height="125.1%" filterUnits="objectBoundingBox" id="filter-1">
            <feOffset dx="4" dy="8" in="SourceAlpha" result="shadowOffsetOuter1"></feOffset>
            <feGaussianBlur stdDeviation="8" in="shadowOffsetOuter1" result="shadowBlurOuter1"></feGaussianBlur>
            <feColorMatrix values="0 0 0 0 0   0 0 0 0 0   0 0 0 0 0  0 0 0 0.2 0" type="matrix" in="shadowBlurOuter1" result="shadowMatrixOuter1"></feColorMatrix>
            <feMerge>
                <feMergeNode in="shadowMatrixOuter1"></feMergeNode>
                <feMergeNode in="SourceGraphic"></feMergeNode>
            </feMerge>
        </filter>
    </defs>
    <g id="Login/Register" stroke="none" stroke-width="1" fill="none" fill-rule="evenodd">
        <g id="Desktop/Login-Copy-5" transform="translate(-1035.000000, -271.000000)">
            <g id="Group" filter="url(#filter-1)" transform="translate(966.000000, 220.000000)">
                <g id="Group-8" transform="translate(76.000000, 62.000000)">
                    <text id="Gift-Card" font-family="Heebo-Black, Heebo" font-size="25.9701493" font-weight="800" line-spacing="28.8557214" fill="#D18214">
                        <tspan x="0" y="60">GIFT CARD </tspan>
                    </text>
                    <text id="Joy-of-giving" font-family="Spectral-SemiBoldItalic, Spectral" font-size="17.3134328" font-style="italic" font-weight="500" line-spacing="23.0845771" fill="#D18214">
                        <tspan x="24" y="77">Joy of giving</tspan>
                    </text>
                    <path d="M141.027951,23.1736038 L139.718851,28.3708372 C139.47132,29.3535563 138.726414,30.1343943 137.756437,30.4279125 L133.470596,31.7248219 C133.089258,31.8402158 132.873669,32.2428962 132.989063,32.6242336 C133.057656,32.8509126 133.233143,33.0294853 133.458592,33.10202 L137.794085,34.4968976 C138.742997,34.8021955 139.46714,35.5756278 139.709381,36.5425616 L141.02772,41.804856 C141.124541,42.1913269 141.516326,42.4261347 141.902797,42.3293139 C142.164556,42.2637366 142.367829,42.0575516 142.429677,41.7948863 L143.627786,36.7065813 C143.876184,35.6516477 144.694753,34.8248578 145.747152,34.5659304 L149.903082,33.5434238 C150.289959,33.4482384 150.526422,33.0574496 150.431237,32.6705727 C150.374172,32.4386353 150.206003,32.2499805 149.98212,32.1667461 L145.479313,30.4927047 C144.575371,30.1566398 143.89907,29.3912123 143.676901,28.4527606 L142.429484,23.1836185 C142.3377,22.7959204 141.949003,22.5560344 141.561305,22.6478181 C141.299343,22.7098352 141.093706,22.9125543 141.027951,23.1736038 Z" id="Path-68" stroke="#FFC400" stroke-width="2" fill="#FFF5B5"></path>
                    <path d="M10.0196345,72.0028346 L9.73404403,73.1366518 C9.48651276,74.1193709 8.74160675,74.9002089 7.77162964,75.1937271 L7.01965891,75.4212759 C6.63832147,75.5366698 6.42273167,75.9393502 6.53812562,76.3206877 C6.60671942,76.5473666 6.78220599,76.7259393 7.00765485,76.798474 L7.80927782,77.0563837 C8.75819034,77.3616816 9.48233289,78.135114 9.72457439,79.1020477 L10.0196104,80.2797164 C10.1108411,80.6438738 10.480006,80.8651246 10.8441634,80.7738939 C11.0908094,80.7121028 11.2823463,80.5178222 11.3406234,80.2703224 L11.5770885,79.2660674 C11.8254866,78.2111338 12.6440553,77.3843439 13.696454,77.1254165 L14.2811919,76.9815502 C14.6680688,76.8863647 14.9045315,76.495576 14.809346,76.1086991 C14.7522812,75.8767617 14.5841124,75.6881069 14.3602299,75.6048725 L13.428615,75.2585193 C12.5246731,74.9224543 11.8483726,74.1570269 11.6262034,73.2185752 L11.3406234,72.0122737 C11.2541144,71.6468559 10.8877553,71.4207557 10.5223375,71.5072648 C10.2754295,71.5657178 10.0816099,71.7567871 10.0196345,72.0028346 Z" id="Path-68-Copy" stroke="#FFC400" stroke-width="1.5" fill="#FFF5B5"></path>
                    <text id="🎁" font-family="AppleColorEmoji, Apple Color Emoji" font-size="28.8557214" font-weight="normal" line-spacing="23.0845771" fill="#FFFFFF">
                        <tspan x="54.4950231" y="21.2287557">🎁</tspan>
                        <tspan x="71.3333528" y="19.8480644" font-family="Heebo-Light, Heebo" font-weight="300"> </tspan>
                    </text>
                </g>
            </g>
        </g>
    </g>
</svg>
