<?xml version="1.0" encoding="UTF-8"?>
<svg width="32px" height="32px" viewBox="0 0 32 32" version="1.1" xmlns="http://www.w3.org/2000/svg" xmlns:xlink="http://www.w3.org/1999/xlink">
    <title>Icon/Settings/Inactive</title>
    <g id="Symbols" stroke="none" stroke-width="1" fill="none" fill-rule="evenodd">
        <g id="Icon/Settings/Inactive" stroke="#93A29B" stroke-width="2">
            <g id="Icon/Smiley">
                <circle id="Oval" cx="16" cy="16" r="15"></circle>
            </g>
            <g id="Icon/Settings" transform="translate(8.000000, 8.000000)" stroke-linecap="round">
                <path d="M8.96417178,0.0987654321 C9.42013687,0.0987654321 9.78976961,0.468398172 9.78976961,0.924363264 L9.78976961,1.06917589 C9.78976961,1.47995454 10.0409762,1.84894992 10.4231532,1.9995481 L10.6887965,2.10422573 C11.0592087,2.25018794 11.4809177,2.16251718 11.762463,1.88101692 L11.8863486,1.75715119 C12.2146088,1.42894356 12.7433935,1.41830583 13.0845881,1.73304583 L14.2627877,2.81989359 C14.6197838,3.14920996 14.6422227,3.70557616 14.3129063,4.06257227 C14.3061745,4.06986995 14.2993195,4.07705311 14.2923444,4.08411865 L14.0697662,4.30958261 C13.8129492,4.56972939 13.7185475,4.9492789 13.8235728,5.29942321 L13.9060941,5.57454127 C14.0329744,5.99754789 14.4223083,6.28723848 14.8639339,6.28723848 L15.0105506,6.28723848 C15.5024618,6.28723848 15.9012346,6.68601126 15.9012346,7.1779224 L15.9012346,8.86605367 C15.9012346,9.27236172 15.5718568,9.60173947 15.1655488,9.60173947 L15.0581103,9.60173947 C14.6740324,9.60173947 14.3238921,9.82171421 14.1572001,10.1677339 L13.9379843,10.6227827 C13.7650939,10.9816692 13.8217026,11.4089404 14.0820845,11.7104232 L14.3025427,11.9656804 C14.6537357,12.3723086 14.620838,12.983776 14.2280443,13.3503767 L13.1064458,14.397183 C12.7586514,14.7217851 12.2135664,14.7029841 11.8889642,14.3551898 C11.8880902,14.3542534 11.8872184,14.353315 11.8863486,14.3523747 L11.7358302,14.1896529 C11.46966,13.9019026 11.0599156,13.796194 10.6877591,13.9192646 L10.4757965,13.9893598 C10.0663018,14.124778 9.78976961,14.5074867 9.78976961,14.9387917 L9.78976961,15.0587303 C9.78976961,15.5240326 9.4125676,15.9012346 8.94726534,15.9012346 L7.03615776,15.9012346 C6.64667975,15.9012346 6.33094544,15.5855003 6.33094544,15.1960222 L6.33094544,15.0872052 C6.33094544,14.7197982 6.12947201,14.3819795 5.80621192,14.2073633 L5.56576969,14.077483 C5.17137014,13.8644391 4.68338441,13.9398805 4.3717319,14.2620783 L4.28439077,14.3523747 C3.9695723,14.6778456 3.45051526,14.686481 3.12504442,14.3716626 C3.11033447,14.3574341 3.09616241,14.3426598 3.08255803,14.3273708 L1.89937096,12.9976699 C1.59271903,12.6530453 1.60481435,12.1299508 1.92706729,11.7998682 L2.00762913,11.717349 C2.30247925,11.4153349 2.37595831,10.9607142 2.19126288,10.5811926 L1.98830894,10.1641525 C1.82086983,9.82009007 1.47177472,9.60173947 1.08913285,9.60173947 L0.906687116,9.60173947 C0.460484291,9.60173947 0.0987654321,9.24002061 0.0987654321,8.79381778 L0.0987654321,7.09516016 C0.0987654321,6.64895734 0.460484291,6.28723848 0.906687116,6.28723848 L1.09894581,6.28723848 C1.47648078,6.28723848 1.82183387,6.07461736 1.99183156,5.73752178 L2.19413391,5.33636791 C2.37834158,4.97109476 2.32148633,4.53045695 2.05059346,4.22390516 L1.92706729,4.08411865 C1.60648084,3.72133187 1.62634394,3.17097663 1.97224922,2.83224449 L3.06266347,1.76444247 C3.40126884,1.43285886 3.94185188,1.42963265 4.28439077,1.75715119 L4.42703238,1.89353795 C4.71370293,2.16763799 5.1352743,2.24640884 5.50157894,2.09431759 L5.7144097,2.00594936 C6.08766896,1.85097053 6.33094544,1.48654821 6.33094544,1.08239364 L6.33094544,0.924363264 C6.33094544,0.468398172 6.70057818,0.0987654321 7.15654327,0.0987654321 L8.96417178,0.0987654321 Z M8,4.48834019 C6.06056384,4.48834019 4.48834019,6.06056384 4.48834019,8 C4.48834019,9.93943616 6.06056384,11.5116598 8,11.5116598 C9.93943616,11.5116598 11.5116598,9.93943616 11.5116598,8 C11.5116598,6.06056384 9.93943616,4.48834019 8,4.48834019 Z" id="Combined-Shape"></path>
            </g>
        </g>
    </g>
</svg>