<?xml version="1.0" encoding="UTF-8"?>
<svg width="26px" height="26px" viewBox="0 0 26 26" version="1.1" xmlns="http://www.w3.org/2000/svg" xmlns:xlink="http://www.w3.org/1999/xlink">
    <!-- Generator: Sketch 61.2 (89653) - https://sketch.com -->
    <title>Combined Shape</title>
    <desc>Created with Sketch.</desc>
    <g id="Settings" stroke="none" stroke-width="1" fill="none" fill-rule="evenodd" stroke-linecap="round">
        <g id="Desktop/Settings/Disabled-options" transform="translate(-268.000000, -27.000000)" stroke="#073F24" stroke-width="2">
            <g id="Icon/Staff" transform="translate(257.000000, 16.000000)">
                <path d="M25.6846544,12.1481481 C26.2369392,12.1481481 26.6846544,12.5958634 26.6846544,13.1481481 L26.6846544,13.9441564 C26.6846544,14.3549351 26.935861,14.7239305 27.318038,14.8745286 L28.3381986,15.2765264 C28.7086109,15.4224886 29.1303198,15.3348179 29.4118652,15.0533176 L30.0316761,14.4336059 C30.4111237,14.0542191 31.0223646,14.0419226 31.4167635,14.4057417 L33.6368341,16.4536788 C34.0427786,16.8281484 34.0682941,17.460799 33.6938245,17.8667436 C33.6861697,17.8750419 33.6783748,17.8832099 33.6704433,17.8912442 L32.8963815,18.675342 C32.6395645,18.9354887 32.5451628,19.3150383 32.6501881,19.6651826 L32.9660275,20.7181605 C33.0929078,21.1411671 33.4822417,21.4308577 33.9238673,21.4308577 L34.8518519,21.4308577 C35.4041366,21.4308577 35.8518519,21.878573 35.8518519,22.4308577 L35.8518519,25.4026092 C35.8518519,25.954894 35.4041366,26.4026092 34.8518519,26.4026092 L34.2730418,26.4026092 C33.8889639,26.4026092 33.5388236,26.6225839 33.3721316,26.9686036 L32.7645997,28.2297204 C32.5917093,28.5886069 32.6483179,29.0158781 32.9086998,29.3173609 L33.7682718,30.312615 C34.1194648,30.7192432 34.0865671,31.3307105 33.6937734,31.6973113 L31.4451693,33.7959702 C31.0414152,34.1728005 30.4086265,34.1509745 30.0317962,33.7472204 C30.0307816,33.7461333 30.0297695,33.745044 30.0287598,33.7439524 L29.3852324,33.0482502 C29.1190621,32.7604998 28.7093178,32.6547913 28.3371613,32.7778619 L27.3706813,33.0974728 C26.9611866,33.232891 26.6846544,33.6155997 26.6846544,34.0469047 L26.6846544,34.8518519 C26.6846544,35.4041366 26.2369392,35.8518519 25.6846544,35.8518519 L22.4964182,35.8518519 C21.9441334,35.8518519 21.4964182,35.4041366 21.4964182,34.8518519 L21.4964182,34.3326101 C21.4964182,33.9652031 21.2949447,33.6273845 20.9716846,33.4527682 L20.0151607,32.9360802 C19.6207612,32.7230364 19.1327755,32.7984778 18.8211229,33.1206756 L18.2543527,33.7066233 C17.8703787,34.1035897 17.2373013,34.1141221 16.8403349,33.7301481 C16.8223936,33.712794 16.8051084,33.6947743 16.7885156,33.6761268 L14.6520854,31.2751429 C14.3030589,30.8828965 14.3168256,30.2875185 14.6836089,29.9118235 L15.2572092,29.3242867 C15.5520593,29.0222726 15.6255383,28.5676519 15.4408429,28.1881303 L14.8456133,26.9650222 C14.6781742,26.6209598 14.3290791,26.4026092 13.9464373,26.4026092 L13.1481481,26.4026092 C12.5958634,26.4026092 12.1481481,25.954894 12.1481481,25.4026092 L12.1481481,22.4308577 C12.1481481,21.878573 12.5958634,21.4308577 13.1481481,21.4308577 L13.9562502,21.4308577 C14.3337852,21.4308577 14.6791383,21.2182366 14.849136,20.881141 L15.4437139,19.7021273 C15.6279216,19.3368541 15.5710664,18.8962163 15.3001735,18.5896645 L14.6615783,17.867008 C14.3090372,17.4680602 14.3308801,16.8628479 14.7112638,16.4903524 L16.8136438,14.43157 C17.1990921,14.0541148 17.8144599,14.0504423 18.2043859,14.4232701 L18.8764234,15.0658387 C19.163094,15.3399387 19.5846653,15.4187095 19.95097,15.2666183 L20.8798824,14.8809299 C21.2531417,14.7259511 21.4964182,14.3615288 21.4964182,13.9573742 L21.4964182,13.1481481 C21.4964182,12.5958634 21.9441334,12.1481481 22.4964182,12.1481481 L25.6846544,12.1481481 Z M24,18.7325103 C21.0908458,18.7325103 18.7325103,21.0908458 18.7325103,24 C18.7325103,26.9091542 21.0908458,29.2674897 24,29.2674897 C26.9091542,29.2674897 29.2674897,26.9091542 29.2674897,24 C29.2674897,21.0908458 26.9091542,18.7325103 24,18.7325103 Z" id="Combined-Shape"></path>
            </g>
        </g>
    </g>
</svg>