<?xml version="1.0" encoding="UTF-8"?>
<svg width="30px" height="24px" viewBox="0 0 30 24" version="1.1" xmlns="http://www.w3.org/2000/svg" xmlns:xlink="http://www.w3.org/1999/xlink">
    <!-- Generator: Sketch 61.2 (89653) - https://sketch.com -->
    <title>Speed sends icon dark</title>
    <desc>Created with Sketch.</desc>
    <g id="Speed-sends" stroke="none" stroke-width="1" fill="none" fill-rule="evenodd" stroke-linecap="round">
        <g id="Desktop/Speed-sends" transform="translate(-268.000000, -29.000000)" stroke="#073F24" stroke-width="2.8">
            <g id="Speed-send/Icon" transform="translate(257.000000, 16.000000)">
                <g id="Speed-sends-icon-dark" transform="translate(13.000000, 15.000000)">
                    <path d="M19.5,15.8888889 L15.9798224,15.8888889 L15.9798224,19.0417755 C15.9798224,19.5940602 15.5321071,20.0417755 14.9798224,20.0417755 C14.776056,20.0417755 14.5771524,19.9795269 14.4097405,19.8633634 L8.68182635,15.8888889 L8.68182635,15.8888889 L3,15.8888889 C1.34314575,15.8888889 2.86744138e-15,14.5457431 0,12.8888889 L0,3 C-2.02906125e-16,1.34314575 1.34314575,4.15313234e-15 3,3.84877315e-15 L19.5,3.84877315e-15 L19.5,3.84877315e-15" id="Path"></path>
                    <line x1="14.4444444" y1="10.4722222" x2="26" y2="10.4722222" id="Path-9-Copy-2"></line>
                    <line x1="11.5555556" y1="5.41666667" x2="23.1111111" y2="5.41666667" id="Path-9-Copy"></line>
                </g>
            </g>
        </g>
    </g>
</svg>