<?xml version="1.0" encoding="UTF-8"?> <svg width="18px" height="18px" viewBox="0 0 18 18" version="1.1" xmlns="http://www.w3.org/2000/svg" xmlns:xlink="http://www.w3.org/1999/xlink"><title>Icon/Goals/Unselected Copy</title> <g id="Symbols" stroke="none" stroke-width="1" fill="none" fill-rule="evenodd"> <g id="Icon/Goals/Unselected-Copy"> <g id="Group-7"> <circle id="Oval" stroke="#119656" stroke-width="2" cx="9" cy="9" r="8"></circle> <path d="M8.47593661,11.5591486 L7.53053687,12.1408809 C7.19612149,12.3466566 6.75821013,12.2423735 6.55243448,11.9079581 C6.45314327,11.7465954 6.42236605,11.5522758 6.4669338,11.3681281 L6.72804957,10.2892343 C6.81681636,9.92246238 6.69155755,9.5369554 6.40416058,9.2924065 L5.55875564,8.5730431 C5.25971133,8.31858335 5.2235684,7.86987965 5.47802815,7.57083533 C5.6008105,7.42653997 5.77610881,7.33722102 5.96501586,7.3227027 L7.07179403,7.23764205 C7.44804529,7.20872552 7.77597711,6.97046911 7.9197464,6.62156859 L8.34265715,5.59524519 C8.49225298,5.23220476 8.90782678,5.05917372 9.27086721,5.20876956 C9.44604209,5.28095279 9.58515962,5.42007031 9.65734285,5.59524519 L10.0802536,6.62156859 C10.2240229,6.97046911 10.5519547,7.20872552 10.928206,7.23764205 L12.0349841,7.3227027 C12.4264838,7.35279113 12.7194654,7.69455577 12.689377,8.08605539 C12.6748587,8.27496244 12.5855397,8.45026075 12.4412444,8.5730431 L11.5958394,9.2924065 C11.3084425,9.5369554 11.1831836,9.92246238 11.2719504,10.2892343 L11.5330662,11.3681281 C11.6254304,11.7497642 11.3909293,12.1340174 11.0092932,12.2263816 C10.8251455,12.2709494 10.6308258,12.2401721 10.4694631,12.1408809 L9.52406339,11.5591486 C9.20267301,11.3613876 8.79732699,11.3613876 8.47593661,11.5591486 Z" id="Star" fill="#119656"></path> </g> </g> </g> </svg>