<svg width="19" height="19" viewBox="0 0 19 19" fill="none" xmlns="http://www.w3.org/2000/svg">
<mask id="path-1-inside-1" fill="white">
<path fill-rule="evenodd" clip-rule="evenodd" d="M14.9398 6.78935C15.2924 7.2812 15.5 7.88408 15.5 8.53545V10.375V12.8952C15.5 14.4919 14.2509 15.8033 12.6667 15.8906C12.6378 15.8922 12.6089 15.8934 12.5798 15.8942L12.5 15.8963L12.568 17.8952L12.5701 17.9556C12.5983 18.7845 11.6632 19.2855 10.9887 18.8028L6.81577 15.8164H3C1.34315 15.8164 0 14.4733 0 12.8164V8.53545C0 6.8786 1.34315 5.53545 3 5.53545H10.125H11.1259C11.0445 5.76522 11 6.01398 11 6.2737C11 6.74683 11.1477 7.18358 11.3971 7.53545H10.125H3C2.44771 7.53545 2 7.98317 2 8.53545V12.8164C2 13.3687 2.44772 13.8164 3 13.8164H6.81577H7.4577L7.97972 14.19L10.5022 15.9952L10.5012 15.9643L10.4326 13.9506L12.4468 13.897L12.5266 13.8949C13.0683 13.8805 13.5 13.4371 13.5 12.8952V10.375V8.53545C13.5 8.46238 13.4922 8.39114 13.4773 8.32252C14.1945 8.1373 14.76 7.54407 14.9398 6.78935Z"/>
</mask>
<path fill-rule="evenodd" clip-rule="evenodd" d="M14.9398 6.78935C15.2924 7.2812 15.5 7.88408 15.5 8.53545V10.375V12.8952C15.5 14.4919 14.2509 15.8033 12.6667 15.8906C12.6378 15.8922 12.6089 15.8934 12.5798 15.8942L12.5 15.8963L12.568 17.8952L12.5701 17.9556C12.5983 18.7845 11.6632 19.2855 10.9887 18.8028L6.81577 15.8164H3C1.34315 15.8164 0 14.4733 0 12.8164V8.53545C0 6.8786 1.34315 5.53545 3 5.53545H10.125H11.1259C11.0445 5.76522 11 6.01398 11 6.2737C11 6.74683 11.1477 7.18358 11.3971 7.53545H10.125H3C2.44771 7.53545 2 7.98317 2 8.53545V12.8164C2 13.3687 2.44772 13.8164 3 13.8164H6.81577H7.4577L7.97972 14.19L10.5022 15.9952L10.5012 15.9643L10.4326 13.9506L12.4468 13.897L12.5266 13.8949C13.0683 13.8805 13.5 13.4371 13.5 12.8952V10.375V8.53545C13.5 8.46238 13.4922 8.39114 13.4773 8.32252C14.1945 8.1373 14.76 7.54407 14.9398 6.78935Z" fill="#119656"/>
<path d="M14.9398 6.78935L16.5652 5.624L14.0104 2.06063L12.9942 6.32583L14.9398 6.78935ZM12.6667 15.8906L12.7768 17.8876L12.7768 17.8876L12.6667 15.8906ZM12.5798 15.8942L12.5266 13.8949H12.5266L12.5798 15.8942ZM12.5 15.8963L12.4468 13.897L10.4326 13.9506L10.5012 15.9643L12.5 15.8963ZM12.568 17.8952L10.5692 17.9632V17.9632L12.568 17.8952ZM12.5701 17.9556L14.5689 17.8875V17.8875L12.5701 17.9556ZM10.9887 18.8028L9.82476 20.4292L9.82477 20.4292L10.9887 18.8028ZM6.81577 15.8164L7.97972 14.19L7.4577 13.8164H6.81577V15.8164ZM11.1259 5.53545L13.0111 6.20341L13.9564 3.53545H11.1259V5.53545ZM11.3971 7.53545V9.53545H15.2665L13.0287 6.37881L11.3971 7.53545ZM7.4577 13.8164L8.62164 12.19L8.09962 11.8164H7.4577V13.8164ZM7.97972 14.19L9.14366 12.5636H9.14366L7.97972 14.19ZM10.5022 15.9952L9.33826 17.6216L12.6392 19.9839L12.5011 15.9272L10.5022 15.9952ZM10.5012 15.9643L8.50232 16.0324L8.50232 16.0324L10.5012 15.9643ZM10.4326 13.9506L10.3794 11.9513L8.36521 12.0049L8.43376 14.0187L10.4326 13.9506ZM12.4468 13.897L12.5 15.8963H12.5L12.4468 13.897ZM12.5266 13.8949L12.4734 11.8956L12.4734 11.8956L12.5266 13.8949ZM13.4773 8.32252L12.9772 6.38605L11.1151 6.8669L11.5227 8.74639L13.4773 8.32252ZM13.3144 7.9547C13.4315 8.11808 13.5 8.3158 13.5 8.53545H17.5C17.5 7.45236 17.1533 6.44433 16.5652 5.624L13.3144 7.9547ZM13.5 8.53545V10.375H17.5V8.53545H13.5ZM13.5 10.375V12.8952H17.5V10.375H13.5ZM13.5 12.8952C13.5 13.4271 13.0836 13.8646 12.5566 13.8936L12.7768 17.8876C15.4182 17.7419 17.5 15.5567 17.5 12.8952H13.5ZM12.5566 13.8936C12.5466 13.8942 12.5367 13.8946 12.5266 13.8949L12.6331 17.8935C12.6811 17.8922 12.729 17.8902 12.7768 17.8876L12.5566 13.8936ZM12.5266 13.8949L12.4468 13.897L12.5532 17.8956L12.6331 17.8935L12.5266 13.8949ZM10.5012 15.9643L10.5692 17.9632L14.5669 17.8271L14.4988 15.8282L10.5012 15.9643ZM10.5692 17.9632L10.5713 18.0236L14.5689 17.8875L14.5669 17.8271L10.5692 17.9632ZM10.5713 18.0236C10.543 17.1946 11.4782 16.6937 12.1527 17.1764L9.82477 20.4292C11.8483 21.8773 14.6536 20.3744 14.5689 17.8875L10.5713 18.0236ZM12.1527 17.1764L7.97972 14.19L5.65183 17.4428L9.82476 20.4292L12.1527 17.1764ZM6.81577 13.8164H3V17.8164H6.81577V13.8164ZM3 13.8164C2.44772 13.8164 2 13.3687 2 12.8164H-2C-2 15.5778 0.238581 17.8164 3 17.8164V13.8164ZM2 12.8164V8.53545H-2V12.8164H2ZM2 8.53545C2 7.98317 2.44771 7.53545 3 7.53545V3.53545C0.238578 3.53545 -2 5.77403 -2 8.53545H2ZM3 7.53545H10.125V3.53545H3V7.53545ZM10.125 7.53545H11.1259V3.53545H10.125V7.53545ZM13 6.2737C13 6.24352 13.005 6.22055 13.0111 6.20341L9.24073 4.8675C9.08398 5.3099 8.99997 5.78444 8.99997 6.2737H13ZM13.0287 6.37881C13.0156 6.36024 13 6.32662 13 6.2737H8.99997C8.99997 7.16704 9.27979 8.00692 9.7655 8.6921L13.0287 6.37881ZM11.3971 5.53545H10.125V9.53545H11.3971V5.53545ZM10.125 5.53545H3V9.53545H10.125V5.53545ZM3 5.53545C1.34314 5.53545 0 6.8786 0 8.53545H4C4 9.08774 3.55228 9.53545 3 9.53545V5.53545ZM0 8.53545V12.8164H4V8.53545H0ZM0 12.8164C0 14.4733 1.34315 15.8164 3 15.8164V11.8164C3.55228 11.8164 4 12.2641 4 12.8164H0ZM3 15.8164H6.81577V11.8164H3V15.8164ZM6.81577 15.8164H7.4577V11.8164H6.81577V15.8164ZM6.29375 15.4428L6.81577 15.8164L9.14366 12.5636L8.62164 12.19L6.29375 15.4428ZM6.81577 15.8164L9.33826 17.6216L11.6662 14.3688L9.14366 12.5636L6.81577 15.8164ZM12.5011 15.9272L12.5 15.8963L8.50232 16.0324L8.50337 16.0633L12.5011 15.9272ZM12.5 15.8963L12.4314 13.8826L8.43376 14.0187L8.50232 16.0324L12.5 15.8963ZM10.4858 15.9499L12.5 15.8963L12.3935 11.8977L10.3794 11.9513L10.4858 15.9499ZM12.5 15.8963L12.5798 15.8942L12.4734 11.8956L12.3935 11.8977L12.5 15.8963ZM12.5798 15.8942C14.205 15.8509 15.5 14.521 15.5 12.8952H11.5C11.5 12.3533 11.9317 11.91 12.4734 11.8956L12.5798 15.8942ZM15.5 12.8952V10.375H11.5V12.8952H15.5ZM15.5 10.375V8.53545H11.5V10.375H15.5ZM15.5 8.53545C15.5 8.31893 15.4767 8.10561 15.4318 7.89866L11.5227 8.74639C11.5076 8.67667 11.5 8.60584 11.5 8.53545H15.5ZM12.9942 6.32583C12.9864 6.35854 12.9722 6.37926 12.9627 6.3892C12.9535 6.39885 12.9561 6.39151 12.9772 6.38605L13.9773 10.259C15.4547 9.8775 16.5442 8.68466 16.8853 7.25287L12.9942 6.32583Z" fill="#119656" mask="url(#path-1-inside-1)"/>
<path fill-rule="evenodd" clip-rule="evenodd" d="M12.6012 2.1157C12.9664 1.36681 14.0336 1.36681 14.3988 2.11569L17.2986 8.06167C17.6225 8.72595 17.1388 9.50001 16.3997 9.50001H10.6003C9.8612 9.50001 9.37749 8.72595 9.70145 8.06167L12.6012 2.1157Z" fill="white" stroke="#119656" stroke-width="2"/>
<path fill-rule="evenodd" clip-rule="evenodd" d="M13.8802 6.80992C13.8739 7.02022 13.7016 7.18741 13.4912 7.18741C13.2808 7.18741 13.1085 7.02022 13.1021 6.80992L13.0389 4.7161C13.0312 4.46099 13.2359 4.25 13.4912 4.25C13.7464 4.25 13.9511 4.46099 13.9434 4.7161L13.8802 6.80992ZM13.8652 8.31383C13.7754 8.40248 13.6537 8.44681 13.5 8.44681C13.3463 8.44681 13.2246 8.40248 13.1348 8.31383C13.0449 8.22518 13 8.11229 13 7.97518C13 7.83806 13.0449 7.72459 13.1348 7.63475C13.2246 7.54492 13.3463 7.5 13.5 7.5C13.6513 7.5 13.7725 7.54492 13.8635 7.63475C13.9545 7.72459 14 7.83806 14 7.97518C14 8.11229 13.9551 8.22518 13.8652 8.31383Z" fill="#119656"/>
</svg>
