<svg width="25" height="26" viewBox="0 0 25 26" fill="none" xmlns="http://www.w3.org/2000/svg">
<mask id="path-1-inside-1" fill="white">
<path fill-rule="evenodd" clip-rule="evenodd" d="M19.9973 8.15822C20.4159 8.67396 20.6667 9.33132 20.6667 10.0473V13.5V17.834C20.6667 19.3775 19.4994 20.6544 17.9905 20.8167C17.9101 20.8253 17.8287 20.8308 17.7465 20.833L16.6667 20.8617L16.7347 22.8606L16.7832 24.2835C16.8114 25.1125 15.8763 25.6135 15.2018 25.1308L9.0877 20.7552H3C1.34315 20.7552 0 19.4121 0 17.7552V10.0473C0 8.39042 1.34315 7.04727 3 7.04727H13.5H14.8346C14.726 7.35363 14.6667 7.68531 14.6667 8.0316C14.6667 8.38974 14.7301 8.73224 14.8459 9.04727H13.5H3C2.44772 9.04727 2 9.49499 2 10.0473V17.7552C2 18.3075 2.44772 18.7552 3 18.7552H9.0877H9.72962L10.2516 19.1288L14.7153 22.3232L14.6678 20.9298L14.5993 18.916L16.6134 18.8624L17.6933 18.8337C18.235 18.8193 18.6667 18.376 18.6667 17.834V13.5V10.4677C19.4312 10.0013 19.9558 9.14596 19.9973 8.15822Z"/>
</mask>
<path fill-rule="evenodd" clip-rule="evenodd" d="M19.9973 8.15822C20.4159 8.67396 20.6667 9.33132 20.6667 10.0473V13.5V17.834C20.6667 19.3775 19.4994 20.6544 17.9905 20.8167C17.9101 20.8253 17.8287 20.8308 17.7465 20.833L16.6667 20.8617L16.7347 22.8606L16.7832 24.2835C16.8114 25.1125 15.8763 25.6135 15.2018 25.1308L9.0877 20.7552H3C1.34315 20.7552 0 19.4121 0 17.7552V10.0473C0 8.39042 1.34315 7.04727 3 7.04727H13.5H14.8346C14.726 7.35363 14.6667 7.68531 14.6667 8.0316C14.6667 8.38974 14.7301 8.73224 14.8459 9.04727H13.5H3C2.44772 9.04727 2 9.49499 2 10.0473V17.7552C2 18.3075 2.44772 18.7552 3 18.7552H9.0877H9.72962L10.2516 19.1288L14.7153 22.3232L14.6678 20.9298L14.5993 18.916L16.6134 18.8624L17.6933 18.8337C18.235 18.8193 18.6667 18.376 18.6667 17.834V13.5V10.4677C19.4312 10.0013 19.9558 9.14596 19.9973 8.15822Z" fill="#073F24"/>
<path d="M19.9973 8.15822L21.5503 6.89796L18.2209 2.79523L17.9991 8.07427L19.9973 8.15822ZM17.9905 20.8167L18.2044 22.8052H18.2044L17.9905 20.8167ZM17.7465 20.833L17.6933 18.8337H17.6933L17.7465 20.833ZM16.6667 20.8617L16.6134 18.8624L14.5993 18.916L14.6678 20.9298L16.6667 20.8617ZM16.7347 22.8606L18.7336 22.7926V22.7926L16.7347 22.8606ZM16.7832 24.2835L18.782 24.2155L16.7832 24.2835ZM15.2018 25.1308L14.0378 26.7572H14.0378L15.2018 25.1308ZM9.0877 20.7552L10.2516 19.1288L9.72962 18.7552H9.0877V20.7552ZM14.8346 7.04727L16.7197 7.71523L17.665 5.04727H14.8346V7.04727ZM14.8459 9.04727V11.0473H17.7113L16.7232 8.35761L14.8459 9.04727ZM9.72962 18.7552L10.8936 17.1288L10.3715 16.7552H9.72962V18.7552ZM10.2516 19.1288L11.4156 17.5024H11.4156L10.2516 19.1288ZM14.7153 22.3232L13.5513 23.9496L16.8522 26.3119L16.7141 22.2552L14.7153 22.3232ZM14.6678 20.9298L16.6667 20.8617V20.8617L14.6678 20.9298ZM14.5993 18.916L14.546 16.9168L12.5319 16.9704L12.6004 18.9841L14.5993 18.916ZM16.6134 18.8624L16.6667 20.8617L16.6134 18.8624ZM17.6933 18.8337L17.6401 16.8344L17.6933 18.8337ZM18.6667 10.4677L17.6251 8.76036L16.6667 9.34505V10.4677H18.6667ZM18.4444 9.41849C18.5843 9.59088 18.6667 9.80675 18.6667 10.0473H22.6667C22.6667 8.8559 22.2475 7.75703 21.5503 6.89796L18.4444 9.41849ZM18.6667 10.0473V13.5H22.6667V10.0473H18.6667ZM18.6667 13.5V17.834H22.6667V13.5H18.6667ZM18.6667 17.834C18.6667 18.3476 18.2777 18.7742 17.7767 18.8281L18.2044 22.8052C20.7211 22.5345 22.6667 20.4074 22.6667 17.834H18.6667ZM17.7767 18.8281C17.7495 18.831 17.7218 18.8329 17.6933 18.8337L17.7997 22.8323C17.9357 22.8286 18.0707 22.8196 18.2044 22.8052L17.7767 18.8281ZM17.6933 18.8337L16.6134 18.8624L16.7199 22.861L17.7997 22.8323L17.6933 18.8337ZM14.6678 20.9298L14.7359 22.9287L18.7336 22.7926L18.6655 20.7937L14.6678 20.9298ZM14.7359 22.9287L14.7843 24.3516L18.782 24.2155L18.7336 22.7926L14.7359 22.9287ZM14.7843 24.3516C14.7561 23.5226 15.6912 23.0216 16.3657 23.5043L14.0378 26.7572C16.0613 28.2053 18.8667 26.7023 18.782 24.2155L14.7843 24.3516ZM16.3657 23.5043L10.2516 19.1288L7.92375 22.3816L14.0378 26.7572L16.3657 23.5043ZM9.0877 18.7552H3V22.7552H9.0877V18.7552ZM3 18.7552C2.44772 18.7552 2 18.3075 2 17.7552H-2C-2 20.5167 0.238575 22.7552 3 22.7552V18.7552ZM2 17.7552V10.0473H-2V17.7552H2ZM2 10.0473C2 9.49499 2.44772 9.04727 3 9.04727V5.04727C0.238574 5.04727 -2 7.28585 -2 10.0473H2ZM3 9.04727H13.5V5.04727H3V9.04727ZM13.5 9.04727H14.8346V5.04727H13.5V9.04727ZM16.6667 8.0316C16.6667 7.91484 16.6865 7.80896 16.7197 7.71523L12.9494 6.37931C12.7655 6.89831 12.6667 7.45577 12.6667 8.0316H16.6667ZM16.7232 8.35761C16.6879 8.26145 16.6667 8.15229 16.6667 8.0316H12.6667C12.6667 8.62718 12.7724 9.20302 12.9685 9.73693L16.7232 8.35761ZM14.8459 7.04727H13.5V11.0473H14.8459V7.04727ZM13.5 7.04727H3V11.0473H13.5V7.04727ZM3 7.04727C1.34315 7.04727 0 8.39042 0 10.0473H4C4 10.5996 3.55229 11.0473 3 11.0473V7.04727ZM0 10.0473V17.7552H4V10.0473H0ZM0 17.7552C0 19.4121 1.34314 20.7552 3 20.7552V16.7552C3.55229 16.7552 4 17.2029 4 17.7552H0ZM3 20.7552H9.0877V16.7552H3V20.7552ZM9.0877 20.7552H9.72962V16.7552H9.0877V20.7552ZM8.56568 20.3816L9.0877 20.7552L11.4156 17.5024L10.8936 17.1288L8.56568 20.3816ZM9.0877 20.7552L13.5513 23.9496L15.8792 20.6968L11.4156 17.5024L9.0877 20.7552ZM16.7141 22.2552L16.6667 20.8617L12.669 20.9978L12.7164 22.3912L16.7141 22.2552ZM16.6667 20.8617L16.5981 18.848L12.6004 18.9841L12.669 20.9978L16.6667 20.8617ZM14.6525 20.9153L16.6667 20.8617L16.5602 16.8631L14.546 16.9168L14.6525 20.9153ZM16.6667 20.8617L17.7465 20.833L17.6401 16.8344L16.5602 16.8631L16.6667 20.8617ZM17.7465 20.833C19.3717 20.7897 20.6667 19.4598 20.6667 17.834H16.6667C16.6667 17.2921 17.0983 16.8488 17.6401 16.8344L17.7465 20.833ZM20.6667 17.834V13.5H16.6667V17.834H20.6667ZM20.6667 13.5V10.4677H16.6667V13.5H20.6667ZM17.9991 8.07427C17.9853 8.40201 17.814 8.64508 17.6251 8.76036L19.7083 12.1751C21.0485 11.3574 21.9264 9.88991 21.9956 8.24217L17.9991 8.07427Z" fill="#073F24" mask="url(#path-1-inside-1)"/>
<path fill-rule="evenodd" clip-rule="evenodd" d="M17.1012 1.87324C17.4664 1.12436 18.5336 1.12435 18.8988 1.87324L23.2986 10.895C23.6225 11.5593 23.1388 12.3333 22.3997 12.3333H13.6003C12.8612 12.3333 12.3775 11.5593 12.7014 10.895L17.1012 1.87324Z" fill="white" stroke="#073F24" stroke-width="2"/>
<path fill-rule="evenodd" clip-rule="evenodd" d="M18.507 8.74657C18.4985 9.02696 18.2688 9.24988 17.9882 9.24988C17.7077 9.24988 17.478 9.02696 17.4695 8.74657L17.3853 5.9548C17.375 5.61465 17.6479 5.33333 17.9882 5.33333C18.3286 5.33333 18.6015 5.61465 18.5912 5.9548L18.507 8.74657ZM18.487 10.7518C18.3673 10.87 18.2049 10.9291 18 10.9291C17.7952 10.9291 17.6328 10.87 17.513 10.7518C17.3933 10.6336 17.3334 10.4831 17.3334 10.3002C17.3334 10.1174 17.3933 9.96611 17.513 9.84633C17.6328 9.72656 17.7952 9.66667 18 9.66667C18.2018 9.66667 18.3633 9.72656 18.4847 9.84633C18.606 9.96611 18.6667 10.1174 18.6667 10.3002C18.6667 10.4831 18.6068 10.6336 18.487 10.7518Z" fill="#073F24"/>
</svg>
