<?xml version="1.0" encoding="UTF-8"?>
<svg width="28px" height="31px" viewBox="0 0 28 31" version="1.1" xmlns="http://www.w3.org/2000/svg" xmlns:xlink="http://www.w3.org/1999/xlink">
    <title>Icon-Notification-dark</title>
    <g id="Notifications" stroke="none" stroke-width="1" fill="none" fill-rule="evenodd">
        <g id="Desktop/Staff-management" transform="translate(-267.000000, -25.000000)" stroke="#073F24" stroke-width="2.5">
            <g id="Notification/Icon" transform="translate(269.000000, 27.000000)">
                <path d="M11.987433,0 C16.5839303,-8.44362859e-16 20.3101276,3.72619731 20.3101276,8.32269463 L20.3101276,14.8565817 L20.3101276,14.8565817 L20.4699406,14.8565817 C22.4195386,14.8565817 24,16.4370431 24,18.3866411 C24,20.3375986 22.4209026,21.9204643 20.4699506,21.9251143 L15.2735166,21.9375 L15.2735166,21.9375 L15.4278186,23.1115274 C15.6754008,24.9952892 14.3490151,26.7230849 12.4652533,26.970667 C12.316623,26.9902015 12.1668747,27 12.0169662,27 C10.1477702,27 8.63248741,25.4847172 8.63248741,23.6155212 C8.63248741,23.4497777 8.6446625,23.284258 8.66891439,23.1202983 L8.84386654,21.9375 L8.84386654,21.9375 L3.53004964,21.9250027 C1.57911554,21.9204143 2.38921181e-16,20.3375806 0,18.3866411 C-2.38756892e-16,16.4370431 1.58046143,14.8565817 3.5300594,14.8565817 L3.66473836,14.8565817 L3.66473836,14.8565817 L3.66473836,8.32269463 C3.66473836,3.72619731 7.39093567,1.06989616e-13 11.987433,0 Z" id="Rectangle"></path>
                <line x1="6.85714286" y1="21.9375" x2="17.1428571" y2="21.9375" id="Path-2"></line>
            </g>
        </g>
    </g>
</svg>