<?xml version="1.0" encoding="UTF-8"?>
<svg width="18px" height="18px" viewBox="0 0 18 18" version="1.1" xmlns="http://www.w3.org/2000/svg" xmlns:xlink="http://www.w3.org/1999/xlink">
    <title>Icon/Notification/Active</title>
    <g id="Icon/Notification/Active" stroke="none" stroke-width="1" fill="none" fill-rule="evenodd">
        <g id="Notification/Icon" transform="translate(2.000000, 1.000000)" stroke-width="2">
            <g id="Group">
                <path d="M6.99266924,0 C9.67395935,-4.92545001e-16 11.8475744,2.1736151 11.8475744,4.8549052 L11.8475744,8.80390026 L11.8475744,8.80390026 L11.9081129,8.80390026 C13.0634303,8.80390026 14,9.74046999 14,10.8957873 C14,12.0519231 13.0642514,12.9899401 11.9081191,12.9927395 L8.90955136,13 L8.90955136,13 L9.00414169,13.731127 C9.14663532,14.8325179 8.36929545,15.8408856 7.26790448,15.9833793 C7.18234754,15.9944483 7.09616694,16 7.00989694,16 C5.91703645,16 5.03109799,15.1140615 5.03109799,14.0212011 C5.03109799,13.9257902 5.03799854,13.8305044 5.05174565,13.7360891 L5.15892215,13 L5.15892215,13 L2.09188108,12.9926723 C0.935759484,12.9899101 1.16842965e-15,12.0519122 0,10.8957873 C-1.16761348e-15,9.74046999 0.936569735,8.80390026 2.09188705,8.80390026 L2.13776404,8.80390026 L2.13776404,8.80390026 L2.13776404,4.8549052 C2.13776404,2.1736151 4.31137914,6.24106092e-14 6.99266924,0 Z" id="Rectangle" stroke="#119656"></path>
                <line x1="4" y1="13" x2="10" y2="13" id="Path-2" stroke="#0A7F47"></line>
            </g>
        </g>
    </g>
</svg>