<?xml version="1.0" encoding="UTF-8"?>
<svg width="32px" height="32px" viewBox="0 0 32 32" version="1.1" xmlns="http://www.w3.org/2000/svg" xmlns:xlink="http://www.w3.org/1999/xlink">
    <title>Icon /Notification</title>
    <g id="Symbols" stroke="none" stroke-width="1" fill="none" fill-rule="evenodd">
        <g id="Icon-/Notification" stroke-width="2">
            <g id="Notification/Icon">
                <circle id="Oval" stroke="#93A29B" cx="16" cy="16" r="15"></circle>
                <g id="Group" transform="translate(9.000000, 8.000000)">
                    <path d="M7,0 C9.89949494,-5.32628579e-16 12.25,2.35050506 12.25,5.25 L12.25,8.80390026 L12.25,8.80390026 C13.2164983,8.80390026 14,9.58740195 14,10.5539003 L14,10.8957873 C14,12.0511046 13.0634303,12.9876744 11.9081129,12.9876744 L9.29767956,12.9876744 L9.29767956,12.9876744 L9.29767956,13.7122174 C9.29767956,14.9757248 8.27340439,16 7.00989694,16 C5.74638948,16 4.72211431,14.9757248 4.72211431,13.7122174 L4.72211431,12.9876744 L4.72211431,12.9876744 L2.09188705,12.9876744 C0.936569735,12.9876744 1.41485566e-16,12.0511046 0,10.8957873 L0,10.5539003 C1.03682698e-16,9.58740195 0.783501688,8.80390026 1.75,8.80390026 L1.75,8.80390026 L1.75,8.80390026 L1.75,5.25 C1.75,2.35050506 4.10050506,2.37100481e-14 7,0 Z" id="Rectangle" stroke="#93A29B"></path>
                    <line x1="4" y1="13" x2="10" y2="13" id="Path-2" stroke="#717E78"></line>
                </g>
            </g>
        </g>
    </g>
</svg>