<?xml version="1.0" encoding="UTF-8"?>
<svg width="18px" height="18px" viewBox="0 0 18 18" version="1.1" xmlns="http://www.w3.org/2000/svg" xmlns:xlink="http://www.w3.org/1999/xlink">
    <title>Icon/Sticker/Light</title>
    <g id="Symbols" stroke="none" stroke-width="1" fill="none" fill-rule="evenodd">
        <g id="Icon/Sticker/Light">
            <g id="Icon/Smiley">
                <path d="M9,1 C11.209139,1 13.209139,1.8954305 14.6568542,3.34314575 C16.0157457,4.70203719 16.8880437,6.5475221 16.9899671,8.59581938 L16.9899671,8.59581938 L8.59581938,16.9899671 C6.5475221,16.8880437 4.70203719,16.0157457 3.34314575,14.6568542 C1.8954305,13.209139 1,11.209139 1,9 C1,6.790861 1.8954305,4.790861 3.34314575,3.34314575 C4.790861,1.8954305 6.790861,1 9,1 Z" id="Oval" stroke="#93A29B" stroke-width="2"></path>
                <g id="Group" transform="translate(4.500000, 5.625000)">
                    <circle id="Oval-Copy-2" fill="#93A29B" cx="1.8" cy="1.35" r="1.35"></circle>
                    <circle id="Oval-Copy-6" fill="#93A29B" cx="7.2" cy="1.35" r="1.35"></circle>
                    <path d="M1.41318469,4.95 C2.16150355,6.28333333 3.19044199,6.95 4.5,6.95" id="Path-2" stroke="#93A29B" stroke-width="2" stroke-linecap="round"></path>
                </g>
            </g>
            <path d="M13.8039205,9.00369486 C14.5812009,8.91618754 15.398781,9.02917816 16.2589664,9.32681999 L16.2589664,9.32681999 L9.36869968,16.2170868 C9.0992773,15.335723 9.00829936,14.5011043 9.10961315,13.7115464 C9.25621439,12.5690546 9.81244984,11.5377882 10.7469677,10.6032704 C11.6751412,9.67509683 12.6884727,9.12927352 13.8039205,9.00369486 Z" id="Path-27" stroke="#93A29B" stroke-width="2"></path>
        </g>
    </g>
</svg>