<svg width="25" height="24" viewBox="0 0 25 24" fill="none" xmlns="http://www.w3.org/2000/svg">
<path d="M1 7.5L1.09935 15.3501C1.12013 16.992 2.45707 18.3121 4.09911 18.3121H9.77271L14.5159 22.5229C15.161 23.0955 16.1798 22.6376 16.1798 21.775V18.3121H18.6012C20.2581 18.3121 21.6012 16.9689 21.6012 15.3121V8.79871C21.6012 7.14185 20.2581 5.79871 18.6012 5.79871H13.7242" stroke="#0C976D" stroke-width="2"/>
<path fill-rule="evenodd" clip-rule="evenodd" d="M12.9718 7.49033C12.9718 10.5237 10.5146 12.9807 7.48592 12.9807C4.45724 12.9807 2 10.5237 2 7.49033C2 4.45699 4.45724 2 7.48592 2C10.5146 2 12.9718 4.45699 12.9718 7.49033ZM12.1838 13.3224C10.8993 14.3596 9.26507 14.9807 7.48592 14.9807C3.35156 14.9807 0 11.6271 0 7.49033C0 3.35353 3.35156 0 7.48592 0C11.6203 0 14.9718 3.35353 14.9718 7.49033C14.9718 9.11745 14.4533 10.6234 13.5726 11.8518L23.651 18.3262C24.7666 19.043 24.8642 20.6379 23.8443 21.485C23.0986 22.1042 22.0123 22.0851 21.2886 21.4399L12.2412 13.3736L12.1838 13.3224Z" fill="#0C976D"/>
<path d="M5.08912 6.27065C5.73787 4.93028 7.34997 4.37019 8.68983 5.01965" stroke="#0C976D" stroke-width="2"/>
</svg>
