<svg width="20" height="18" viewBox="0 0 20 18" fill="none" xmlns="http://www.w3.org/2000/svg">
<path d="M2 5.5L1.9073 10.6804C1.87728 12.358 3.22897 13.7341 4.90682 13.7341H8.32956L11.471 16.5229C12.116 17.0955 13.1349 16.6376 13.1349 15.775V13.7341H14.201C15.8578 13.7341 17.201 12.3909 17.201 10.7341V7.34903C17.201 5.69217 15.8578 4.34903 14.201 4.34903H11.2932" stroke="#0C976D" stroke-width="2"/>
<path fill-rule="evenodd" clip-rule="evenodd" d="M10.2289 5.61775C10.2289 7.61688 8.60952 9.23549 6.61444 9.23549C4.61935 9.23549 3 7.61688 3 5.61775C3 3.61861 4.61935 2 6.61444 2C8.60952 2 10.2289 3.61861 10.2289 5.61775ZM10.1378 9.9918C9.17444 10.7697 7.9488 11.2355 6.61444 11.2355C3.51367 11.2355 1 8.72034 1 5.61775C1 2.51515 3.51367 0 6.61444 0C9.7152 0 12.2289 2.51515 12.2289 5.61775C12.2289 6.83809 11.84 7.96755 11.1794 8.88883L11.6758 9.20767L13.7788 10.5587L18.7382 13.7447C19.575 14.2822 19.6482 15.4784 18.8832 16.1137C18.3239 16.5782 17.5092 16.5638 16.9665 16.0799L12.5662 12.1568L10.7003 10.4933L10.1378 9.9918Z" fill="#0C976D"/>
<path d="M4.81687 4.70299C5.30344 3.69771 6.5125 3.27764 7.5174 3.76474" stroke="#0C976D" stroke-width="2"/>
</svg>
