<svg width="18" height="18" viewBox="0 0 18 18" fill="none" xmlns="http://www.w3.org/2000/svg">
<mask id="path-1-inside-1" fill="white">
<path fill-rule="evenodd" clip-rule="evenodd" d="M11.1226 11.6035L12.5568 12.9051H12.1676H11.1676V13.9051V15.9726L8.05892 13.1632L7.77335 12.9051H7.38843H4.00001C2.88169 12.9051 1.98066 11.9881 2.00032 10.87L2.01602 9.97722C2.99781 10.8485 4.28097 11.3754 5.68286 11.3754C6.94032 11.3754 8.1007 10.9521 9.0341 10.2376C9.13906 10.1573 9.24116 10.0732 9.3402 9.98572L9.49112 10.1227L11.1226 11.6035ZM12.3497 10.0162L15.0192 11.762C15.1425 11.5023 15.2115 11.2118 15.2115 10.9051V7.4032C15.2115 6.29863 14.3161 5.4032 13.2115 5.4032H11.2599C11.2644 5.49744 11.2667 5.5923 11.2667 5.68772C11.2667 5.77185 11.2649 5.85554 11.2614 5.93877C11.2233 6.83296 10.9824 7.67359 10.5846 8.41419C10.5252 8.52463 10.4624 8.63285 10.3962 8.73869L10.3964 8.73879L10.4438 8.76979L12.3497 10.0162ZM17.2115 10.9051C17.2115 11.6159 17.0261 12.2834 16.701 12.8619L17.3204 13.2669C18.1572 13.8142 18.2356 15.0254 17.4757 15.6678C16.918 16.1392 16.1014 16.1222 15.5567 15.6278L14.5194 14.6864C14.1096 14.8281 13.6696 14.9051 13.2115 14.9051H13.1676V15.9726C13.1676 17.7061 11.1127 18.6187 9.8266 17.4564L7.00351 14.9051H4.00001C1.76336 14.9051 -0.0386925 13.0711 0.000631571 10.8348L0.0934876 5.5542L0.100504 5.55432C0.170086 2.4747 2.64275 0 5.68286 0C7.96571 0 9.93371 1.39739 10.7983 3.4032H13.2115C15.4207 3.4032 17.2115 5.19406 17.2115 7.4032V10.9051ZM8.66088 7.74164C8.67446 7.72087 8.68785 7.69995 8.70103 7.67888C9.05795 7.10834 9.26673 6.42703 9.26673 5.68772C9.26673 3.61614 7.62759 2 5.68286 2C3.73813 2 2.099 3.61614 2.099 5.68772C2.099 7.7593 3.73813 9.37544 5.68286 9.37544C6.90791 9.37544 8.0117 8.73413 8.66088 7.74164ZM4.80588 5.20683C5.04256 4.68468 5.64993 4.46476 6.15928 4.70688L6.98498 2.88528C5.47275 2.16645 3.68986 2.82534 2.99957 4.3482L4.80588 5.20683Z"/>
</mask>
<path d="M12.5568 12.9051V14.9051H17.7363L13.901 11.4242L12.5568 12.9051ZM11.1226 11.6035L12.4668 10.1225L12.4668 10.1225L11.1226 11.6035ZM11.1676 12.9051V10.9051H9.16758V12.9051H11.1676ZM11.1676 15.9726L9.8266 17.4564L13.1676 20.4758V15.9726H11.1676ZM8.05892 13.1632L9.39991 11.6794L9.3999 11.6794L8.05892 13.1632ZM7.77335 12.9051L9.11433 11.4213L8.54318 10.9051H7.77335V12.9051ZM2.00032 10.87L0.000631419 10.8348L0.000631416 10.8348L2.00032 10.87ZM2.01602 9.97722L3.3435 8.48129L0.092742 5.59658L0.0163299 9.94206L2.01602 9.97722ZM9.0341 10.2376L7.81848 8.64944L7.81848 8.64945L9.0341 10.2376ZM9.3402 9.98572L10.6843 8.50475L9.35804 7.30099L8.01586 8.48702L9.3402 9.98572ZM9.49112 10.1227L8.14698 11.6037L8.14699 11.6037L9.49112 10.1227ZM15.0192 11.762L13.9245 13.4358L15.8427 14.6903L16.8258 12.6199L15.0192 11.762ZM12.3497 10.0162L11.255 11.69L11.255 11.69L12.3497 10.0162ZM11.2599 5.4032V3.4032H9.16092L9.2622 5.4997L11.2599 5.4032ZM11.2614 5.93877L13.2596 6.02397L13.2596 6.02388L11.2614 5.93877ZM10.5846 8.41419L8.82272 7.46765L8.82272 7.46766L10.5846 8.41419ZM10.3962 8.73869L8.70037 7.67847L7.64187 9.37157L9.33324 10.4328L10.3962 8.73869ZM10.3964 8.73879L11.4911 7.06501L11.4753 7.05468L11.4594 7.04466L10.3964 8.73879ZM10.4438 8.76979L9.34904 10.4436L9.34913 10.4436L10.4438 8.76979ZM16.701 12.8619L14.9575 11.8821L14.0414 13.5123L15.6064 14.5357L16.701 12.8619ZM17.3204 13.2669L18.4151 11.5931L18.4151 11.5931L17.3204 13.2669ZM17.4757 15.6678L16.1844 14.1405L16.1844 14.1405L17.4757 15.6678ZM15.5567 15.6278L16.9008 14.1468L15.5567 15.6278ZM14.5194 14.6864L15.8636 13.2054L14.9859 12.4089L13.8658 12.7963L14.5194 14.6864ZM13.1676 14.9051V12.9051H11.1676V14.9051H13.1676ZM9.8266 17.4564L8.48562 18.9403L8.48562 18.9403L9.8266 17.4564ZM7.00351 14.9051L8.3445 13.4213L7.77335 12.9051H7.00351V14.9051ZM0.000631571 10.8348L2.00032 10.87L0.000631571 10.8348ZM0.0934876 5.5542L0.128688 3.55451L-1.87104 3.51931L-1.9062 5.51904L0.0934876 5.5542ZM0.100504 5.55432L0.0653036 7.55401L2.05504 7.58904L2.09999 5.5995L0.100504 5.55432ZM10.7983 3.4032L8.96161 4.19484L9.48244 5.4032H10.7983V3.4032ZM8.70103 7.67888L7.00548 6.61816L7.00548 6.61817L8.70103 7.67888ZM8.66088 7.74164L6.98713 6.64685L6.98713 6.64685L8.66088 7.74164ZM6.15928 4.70688L5.30065 6.51319L7.14006 7.38755L7.98088 5.53258L6.15928 4.70688ZM4.80588 5.20683L3.94725 7.01314L5.78665 7.88751L6.62748 6.03253L4.80588 5.20683ZM6.98498 2.88528L8.80658 3.71098L9.61742 1.92216L7.84361 1.07897L6.98498 2.88528ZM2.99957 4.3482L1.17797 3.52251L0.367128 5.31133L2.14094 6.15451L2.99957 4.3482ZM13.901 11.4242L12.4668 10.1225L9.7785 13.0844L11.2127 14.3861L13.901 11.4242ZM12.1676 14.9051H12.5568V10.9051H12.1676V14.9051ZM11.1676 14.9051H12.1676V10.9051H11.1676V14.9051ZM13.1676 13.9051V12.9051H9.16758V13.9051H13.1676ZM13.1676 15.9726V13.9051H9.16758V15.9726H13.1676ZM6.71794 14.6471L9.8266 17.4564L12.5086 14.4888L9.39991 11.6794L6.71794 14.6471ZM6.43236 14.389L6.71794 14.6471L9.3999 11.6794L9.11433 11.4213L6.43236 14.389ZM7.38843 14.9051H7.77335V10.9051H7.38843V14.9051ZM4.00001 14.9051H7.38843V10.9051H4.00001V14.9051ZM0.000631416 10.8348C-0.0386924 13.0711 1.76336 14.9051 4.00001 14.9051V10.9051L4.00001 10.9051L0.000631416 10.8348ZM0.0163299 9.94206L0.000631419 10.8348L4.00001 10.9051L4.01571 10.0124L0.0163299 9.94206ZM5.68286 9.37544C4.79287 9.37544 3.97665 9.04314 3.3435 8.48129L0.688541 11.4731C2.01898 12.6538 3.76908 13.3754 5.68286 13.3754V9.37544ZM7.81848 8.64945C7.21937 9.10801 6.48276 9.37544 5.68286 9.37544V13.3754C7.39788 13.3754 8.98202 12.7961 10.2497 11.8258L7.81848 8.64945ZM8.01586 8.48702C7.9519 8.54353 7.88606 8.59771 7.81848 8.64944L10.2497 11.8258C10.3921 11.7168 10.5304 11.6029 10.6645 11.4844L8.01586 8.48702ZM10.8353 8.64172L10.6843 8.50475L7.99606 11.4667L8.14698 11.6037L10.8353 8.64172ZM12.4668 10.1225L10.8353 8.64172L8.14699 11.6037L9.7785 13.0844L12.4668 10.1225ZM16.1138 10.0881L13.4443 8.34235L11.255 11.69L13.9245 13.4358L16.1138 10.0881ZM13.2115 10.9051C13.2115 10.908 13.2112 10.9083 13.2115 10.907C13.2118 10.9059 13.2122 10.9048 13.2125 10.9041L16.8258 12.6199C17.0738 12.0978 17.2115 11.5147 17.2115 10.9051H13.2115ZM13.2115 7.4032V10.9051H17.2115V7.4032H13.2115ZM13.2115 7.4032H13.2115H17.2115C17.2115 5.19406 15.4207 3.4032 13.2115 3.4032V7.4032ZM11.2599 7.4032H13.2115V3.4032H11.2599V7.4032ZM13.2667 5.68772C13.2667 5.56011 13.2636 5.43308 13.2575 5.3067L9.2622 5.4997C9.2652 5.56181 9.26673 5.62449 9.26673 5.68772H13.2667ZM13.2596 6.02388C13.2643 5.91229 13.2667 5.80022 13.2667 5.68772H9.26673C9.26673 5.74347 9.26554 5.79879 9.2632 5.85366L13.2596 6.02388ZM12.3464 9.36072C12.8842 8.35976 13.2084 7.22532 13.2596 6.02397L9.26321 5.85357C9.23818 6.4406 9.08072 6.98743 8.82272 7.46765L12.3464 9.36072ZM12.0921 9.79892C12.1814 9.65599 12.2663 9.50985 12.3464 9.36071L8.82272 7.46766C8.78417 7.53941 8.74336 7.60972 8.70037 7.67847L12.0921 9.79892ZM11.4594 7.04466L11.4592 7.04457L9.33324 10.4328L9.33339 10.4329L11.4594 7.04466ZM11.5385 7.09601L11.4911 7.06501L9.30163 10.4126L9.34904 10.4436L11.5385 7.09601ZM13.4443 8.34235L11.5384 7.09595L9.34913 10.4436L11.255 11.69L13.4443 8.34235ZM18.4446 13.8417C18.9334 12.9718 19.2115 11.9679 19.2115 10.9051H15.2115C15.2115 11.2639 15.1188 11.595 14.9575 11.8821L18.4446 13.8417ZM18.4151 11.5931L17.7957 11.188L15.6064 14.5357L16.2258 14.9408L18.4151 11.5931ZM18.7669 17.1951C20.5598 15.6793 20.3599 12.865 18.4151 11.5931L16.2258 14.9408C15.9546 14.7634 15.9113 14.3714 16.1844 14.1405L18.7669 17.1951ZM14.2125 17.1088C15.4913 18.2694 17.4346 18.3215 18.7669 17.1951L16.1844 14.1405C16.4014 13.957 16.7115 13.975 16.9008 14.1468L14.2125 17.1088ZM13.1753 16.1674L14.2125 17.1088L16.9008 14.1468L15.8636 13.2054L13.1753 16.1674ZM13.2115 16.9051C13.895 16.9051 14.5559 16.79 15.1731 16.5766L13.8658 12.7963C13.6634 12.8663 13.4441 12.9051 13.2115 12.9051V16.9051ZM13.1676 16.9051H13.2115V12.9051H13.1676V16.9051ZM15.1676 15.9726V14.9051H11.1676V15.9726H15.1676ZM8.48562 18.9403C11.0578 21.2649 15.1676 19.4396 15.1676 15.9726H11.1676L11.1676 15.9726L8.48562 18.9403ZM5.66253 16.389L8.48562 18.9403L11.1676 15.9726L8.3445 13.4213L5.66253 16.389ZM4.00001 16.9051H7.00351V12.9051H4.00001V16.9051ZM-1.99906 10.7996C-2.05805 14.1541 0.645029 16.9051 4.00001 16.9051V12.9051C2.88169 12.9051 1.98066 11.9881 2.00032 10.87L-1.99906 10.7996ZM-1.9062 5.51904L-1.99906 10.7996L2.00032 10.87L2.09318 5.58936L-1.9062 5.51904ZM0.135704 3.55463L0.128688 3.55451L0.0582876 7.55389L0.0653036 7.55401L0.135704 3.55463ZM5.68286 -2C1.51987 -2 -1.80567 1.3791 -1.89899 5.50914L2.09999 5.5995C2.14584 3.5703 3.76563 2 5.68286 2V-2ZM12.6349 2.61155C11.4718 -0.0869977 8.80755 -2 5.68286 -2V2C7.12388 2 8.39565 2.88179 8.96161 4.19484L12.6349 2.61155ZM13.2115 1.4032H10.7983V5.4032H13.2115V1.4032ZM19.2115 7.4032C19.2115 4.08949 16.5252 1.4032 13.2115 1.4032V5.4032C14.3161 5.4032 15.2115 6.29863 15.2115 7.4032H19.2115ZM19.2115 10.9051V7.4032H15.2115V10.9051H19.2115ZM7.00548 6.61817C6.99946 6.62779 6.99334 6.63735 6.98713 6.64685L10.3346 8.83643C10.3556 8.8044 10.3762 8.77212 10.3966 8.7396L7.00548 6.61817ZM7.26673 5.68772C7.26673 6.04485 7.16723 6.35961 7.00548 6.61816L10.3966 8.73961C10.9487 7.85708 11.2667 6.80922 11.2667 5.68772H7.26673ZM5.68286 4C6.49417 4 7.26673 4.69163 7.26673 5.68772H11.2667C11.2667 2.54065 8.76102 0 5.68286 0V4ZM4.099 5.68772C4.099 4.69163 4.87156 4 5.68286 4V0C2.60471 0 0.098998 2.54065 0.098998 5.68772H4.099ZM5.68286 7.37544C4.87156 7.37544 4.099 6.6838 4.099 5.68772H0.098998C0.098998 8.83479 2.60471 11.3754 5.68286 11.3754V7.37544ZM6.98713 6.64685C6.68604 7.10716 6.1949 7.37544 5.68286 7.37544V11.3754C7.62092 11.3754 9.33736 10.3611 10.3346 8.83643L6.98713 6.64685ZM7.01791 2.90057C5.4943 2.17632 3.6811 2.84387 2.98428 4.38114L6.62748 6.03253C6.40403 6.52549 5.80556 6.7532 5.30065 6.51319L7.01791 2.90057ZM5.16338 2.05959L4.33768 3.88118L7.98088 5.53258L8.80658 3.71098L5.16338 2.05959ZM4.82117 5.1739C5.0523 4.66399 5.63052 4.4559 6.12635 4.69159L7.84361 1.07897C5.31499 -0.123009 2.32741 0.986688 1.17797 3.52251L4.82117 5.1739ZM5.66451 3.40053L3.8582 2.54189L2.14094 6.15451L3.94725 7.01314L5.66451 3.40053Z" fill="#93A29B" mask="url(#path-1-inside-1)"/>
</svg>
