<svg width="4" height="16" viewBox="0 0 4 16" fill="none" xmlns="http://www.w3.org/2000/svg">
<path d="M1.83333 8.49967C2.29357 8.49967 2.66667 8.12658 2.66667 7.66634C2.66667 7.2061 2.29357 6.83301 1.83333 6.83301C1.3731 6.83301 1 7.2061 1 7.66634C1 8.12658 1.3731 8.49967 1.83333 8.49967Z" stroke="#93A29B" stroke-width="2" stroke-linecap="round" stroke-linejoin="round"/>
<path d="M1.83333 2.66667C2.29357 2.66667 2.66667 2.29357 2.66667 1.83333C2.66667 1.3731 2.29357 1 1.83333 1C1.3731 1 1 1.3731 1 1.83333C1 2.29357 1.3731 2.66667 1.83333 2.66667Z" stroke="#93A29B" stroke-width="2" stroke-linecap="round" stroke-linejoin="round"/>
<path d="M1.83333 14.3332C2.29357 14.3332 2.66667 13.9601 2.66667 13.4998C2.66667 13.0396 2.29357 12.6665 1.83333 12.6665C1.3731 12.6665 1 13.0396 1 13.4998C1 13.9601 1.3731 14.3332 1.83333 14.3332Z" stroke="#93A29B" stroke-width="2" stroke-linecap="round" stroke-linejoin="round"/>
</svg>
