<?xml version="1.0" encoding="UTF-8"?>
<svg width="16px" height="17px" viewBox="0 0 16 17" version="1.1" xmlns="http://www.w3.org/2000/svg" xmlns:xlink="http://www.w3.org/1999/xlink">
    <title>Icon/Link/Dark Copy</title>
    <g id="Sheets-integration" stroke="none" stroke-width="1" fill="none" fill-rule="evenodd">
        <g id="Desktop/Sheets-integration" transform="translate(-1097.000000, -191.000000)" stroke="#777" stroke-width="2">
            <g id="Path-2" transform="translate(1096.000000, 190.000000)">
                <path d="M8.12464668,13.8858495 L7.52698087,14.812558 C6.64839086,16.1748524 4.83286676,16.5688785 3.4685996,15.6933548 C2.09166677,14.809703 1.66250398,12.9939361 2.49812846,11.5873386 L5.2287802,6.99086275 C6.05485082,5.60034722 7.85174894,5.14277421 9.24226448,5.96884483 C9.24562601,5.97084183 9.24898353,5.97284556 9.25233703,5.97485601 C10.6568564,6.81687522 11.1372413,8.62309064 10.3365965,10.0516 L10.0631975,10.5393981 L10.0631975,10.5393981"></path>
                <path d="M13.4477366,10.4228427 L12.8500708,11.3495512 C11.9714808,12.7118456 10.1559567,13.1058716 8.79168954,12.230348 C7.41475672,11.3466961 6.98559392,9.53092923 7.8212184,8.12433179 L10.5518701,3.52785593 C11.3779408,2.1373404 13.1748389,1.67976738 14.5653544,2.50583801 C14.5687159,2.50783501 14.5720735,2.50983874 14.575427,2.51184919 C15.9799463,3.3538684 16.4603312,5.16008382 15.6596865,6.58859316 L15.3862875,7.07639131 L15.3862875,7.07639131" transform="translate(11.710169, 7.407291) rotate(-180.000000) translate(-11.710169, -7.407291) "></path>
            </g>
        </g>
    </g>
</svg>
