<?xml version="1.0" encoding="UTF-8"?>
<svg width="18px" height="18px" viewBox="0 0 18 18" version="1.1" xmlns="http://www.w3.org/2000/svg" xmlns:xlink="http://www.w3.org/1999/xlink">
    <title>Group 3</title>
    <g id="Flows" stroke="none" stroke-width="1" fill="none" fill-rule="evenodd">
        <g id="Desktop/Flows/Preview" transform="translate(-257.000000, -670.000000)">
            <g id="Group-3" transform="translate(257.000000, 670.000000)">
                <g id="Group" stroke="#777" stroke-linecap="round" stroke-width="2">
                    <g id="Group-Copy" transform="translate(1.000000, 1.000000)">
                        <path d="M9.77290024,10.7928932 C9.0563996,7.62433651 6.19396905,5.25619365 2.77188532,5.25619365 C-0.652275012,5.25619365 -3.51610273,7.62721146 -4.2304316,10.7986623" id="Oval" transform="translate(2.771234, 8.027428) rotate(-90.000000) translate(-2.771234, -8.027428) "></path>
                        <path d="M20.2304316,10.7928932 C19.513931,7.62433651 16.6515004,5.25619365 13.2294167,5.25619365 C9.80525635,5.25619365 6.94142863,7.62721146 6.22709976,10.7986623" id="Oval" transform="translate(13.228766, 8.027428) scale(-1, 1) rotate(-90.000000) translate(-13.228766, -8.027428) "></path>
                        <polyline id="Path-4" points="2.77123432 15.9883911 5.54246864 15.0290939 4.65731505 12.0281653"></polyline>
                        <polyline id="Path-4" transform="translate(11.807063, 1.872484) scale(-1, -1) translate(-11.807063, -1.872484) " points="10.3853604 3.74496787 13.2287657 2.77406176 12.0875752 -6.65239929e-15"></polyline>
                    </g>
                </g>
                <polygon id="1" fill="#FFFFFF" fill-rule="nonzero" points="9.4133425 10.5 9.4133425 7.5 9.34938102 7.5 8 7.96836314 8 8.54607978 8.67469051 8.36863824 8.67469051 10.5"></polygon>
            </g>
        </g>
    </g>
</svg>
