<svg width="24" height="24" viewBox="0 0 24 24" fill="none" xmlns="http://www.w3.org/2000/svg">
<path fill-rule="evenodd" clip-rule="evenodd" d="M7.97773 5.35553H11.0888C13.8379 5.35553 16.0665 7.58413 16.0665 10.3333V17.6084C16.0665 20.3575 13.8379 22.5861 11.0888 22.5861H7.22506H3V10.3333C3 7.58413 5.2286 5.35553 7.97773 5.35553Z" fill="#119656" stroke="#073F24" stroke-width="1.78605"/>
<path fill-rule="evenodd" clip-rule="evenodd" d="M15.4451 18.2307H12.334C9.58493 18.2307 7.35632 16.002 7.35632 13.2529V5.97779C7.35632 3.22867 9.58493 1.00006 12.334 1.00006H20.4229V13.2529C20.4229 16.002 18.1942 18.2307 15.4451 18.2307Z" fill="white" stroke="#073F24" stroke-width="1.78605"/>
<path d="M13.7215 14.6888C14.5626 14.6888 15.1446 14.3064 15.4674 13.5418C15.5403 14.1172 16.0297 14.5486 16.6097 14.5486H16.8183V9.2026H15.1234V10.4959V10.8386C15.1234 11.2464 15.1234 11.8582 15.1234 12.6738C14.6504 12.6738 14.2723 12.6738 13.9891 12.6738C13.5558 12.6738 13.2606 12.5294 13.1034 12.2405C12.9462 11.9516 12.8676 11.5141 12.8676 10.9278V7.71169C12.8676 7.32936 12.891 7.01926 12.9377 6.78137C12.9845 6.54347 13.0843 6.34806 13.2372 6.19513C13.3901 6.0422 13.6238 5.96574 13.9381 5.96574C14.2355 5.96574 14.4585 6.02521 14.6072 6.14416C14.7559 6.2631 14.8841 6.39727 14.9615 6.59359C15.039 6.78991 15.1234 7.17219 15.1234 7.54602V7.92758H16.7674V7.11871C16.7674 6.12466 16.5465 5.37488 16.1047 4.86936C15.6629 4.36384 14.9322 4.11108 13.9127 4.11108C12.8336 4.11108 12.0732 4.41057 11.6314 5.00955C11.1896 5.60852 10.9688 6.49849 10.9688 7.67945V11.1459C10.9688 12.2928 11.1833 13.1701 11.6123 13.7775C12.0414 14.385 12.7444 14.6888 13.7215 14.6888Z" fill="#073F24"/>
</svg>