<?xml version="1.0" encoding="UTF-8"?>
<svg width="309px" height="188px" viewBox="0 0 309 188" version="1.1" xmlns="http://www.w3.org/2000/svg" xmlns:xlink="http://www.w3.org/1999/xlink">
    <!-- Generator: Sketch 61.2 (89653) - https://sketch.com -->
    <title>Glific</title>
    <desc>Two way communication Platform</desc>
    <g id="Graphics" stroke="none" stroke-width="1" fill="none" fill-rule="evenodd">
        <g id="Group-2-Copy" transform="translate(7.000000, 7.000000)">
            <g id="Group-21">
                <path d="M40.9620229,35 L225,35 C247.09139,35 265,52.90861 265,75 L265,133.461538 C265,155.552928 247.09139,173.461538 225,173.461538 L193.084646,173.461538 L193.084646,173.461538 L86.3386933,173.461538 L0.962022899,173.461538 L0.962022899,75 C0.962022899,52.90861 18.8706329,35 40.9620229,35 Z" id="Rectangle-Copy-75" stroke="#073F24" stroke-width="14" fill="#119656"></path>
                <path d="M75,0 L255,0 C277.09139,-4.05812251e-15 295,17.90861 295,40 L295,95 C295,117.09139 277.09139,135 255,135 L224.18446,135 L224.18446,135 L119.070991,135 L35,135 L35,40 C35,17.90861 52.90861,4.05812251e-15 75,0 Z" id="Rectangle-Copy-75" stroke="#073F24" stroke-width="14" fill="#FFFFFF" transform="translate(165.000000, 67.500000) scale(-1, -1) translate(-165.000000, -67.500000) "></path>
                <path d="M87.3140496,110 C94.1322314,110 98.8498623,106.927711 101.466942,100.783133 C102.05751,105.408146 105.993485,108.873494 110.65605,108.873494 L112.417355,108.873494 L112.417355,108.873494 L112.417355,65.9143972 L98.677686,65.9143972 L98.677686,76.3072289 L98.677686,79.0611409 C98.677686,82.3382493 98.677686,87.253912 98.677686,93.8081288 C94.8438935,93.8081288 91.7791552,93.8081288 89.4834711,93.8081288 C85.9710744,93.8081288 83.5778237,92.6474863 82.303719,90.3262011 C81.0296143,88.004916 80.392562,84.4888517 80.392562,79.7780083 L80.392562,53.9337426 C80.392562,50.8614534 80.5819559,48.3694855 80.9607438,46.4578389 C81.3395317,44.5461924 82.1487603,42.9759112 83.3884298,41.7469956 C84.6280992,40.5180799 86.5220386,39.9036221 89.0702479,39.9036221 C91.4807163,39.9036221 93.2885675,40.3815337 94.4938017,41.337357 C95.6990358,42.2931803 96.7380547,43.3713058 97.3659312,44.9488962 C97.9938077,46.5264867 98.677686,49.5984012 98.677686,52.6024173 L98.677686,55.6686236 L112.004132,55.6686236 L112.004132,49.1686747 C112.004132,41.1807229 110.213499,35.1556225 106.632231,31.0933735 C103.050964,27.0311245 97.1280992,25 88.8636364,25 C80.1170799,25 73.953168,27.4066265 70.3719008,32.2198795 C66.7906336,37.0331325 65,44.184739 65,53.6746988 L65,81.5301205 C65,90.746988 66.7389807,97.7961847 70.2169421,102.677711 C73.6949036,107.559237 79.3939394,110 87.3140496,110 Z M138.725895,101.900353 L138.725895,35.9216867 C138.725895,30.3988392 134.248743,25.9216867 128.725895,25.9216867 L124.779614,25.9216867 L124.779614,25.9216867 L124.779614,101.900353 C124.779614,105.751513 127.901596,108.873494 131.752755,108.873494 C135.603914,108.873494 138.725895,105.751513 138.725895,101.900353 Z M164.799587,34.4728916 C164.799587,31.2772922 162.209042,28.686747 159.013442,28.686747 L156.536145,28.686747 C153.340545,28.686747 150.75,31.2772922 150.75,34.4728916 C150.75,37.668491 153.340545,40.2590361 156.536145,40.2590361 L159.013442,40.2590361 C162.209042,40.2590361 164.799587,37.668491 164.799587,34.4728916 Z M165.137741,101.848701 L165.137741,59.6807229 C165.137741,54.1578754 160.660589,49.6807229 155.137741,49.6807229 L151.088154,49.6807229 L151.088154,49.6807229 L151.088154,101.848701 C151.088154,105.728387 154.233261,108.873494 158.112948,108.873494 C161.992634,108.873494 165.137741,105.728387 165.137741,101.848701 Z M191.549587,101.848701 L191.549587,59.4096386 L191.549587,59.4096386 L203.739669,59.4096386 L203.739669,101.900353 C203.739669,105.751513 206.861651,108.873494 210.71281,108.873494 C214.563969,108.873494 217.68595,105.751513 217.68595,101.900353 L217.68595,59.6807229 C217.68595,54.1578754 213.208798,49.6807229 207.68595,49.6807229 L191.549587,49.6807229 L191.549587,49.6807229 L191.549587,44.7650602 C191.549587,42.4437751 191.893939,40.8052209 192.582645,39.8493976 C193.27135,38.8935743 194.442149,38.4156627 196.095041,38.4156627 C197.26584,38.4156627 198.298898,38.5522088 199.194215,38.8253012 L199.194215,28.8915663 C196.577135,28.5502008 194.373278,28.3795181 192.582645,28.3795181 C187.004132,28.3795181 183.09573,29.8303213 180.857438,32.7319277 C178.619146,35.6335341 177.5,40.0200803 177.5,45.8915663 L177.5,49.6807229 L177.5,59.4096386 L177.5,101.848701 C177.5,105.728387 180.645107,108.873494 184.524793,108.873494 C188.40448,108.873494 191.549587,105.728387 191.549587,101.848701 Z M217.789256,34.4728916 C217.789256,31.2772922 215.198711,28.686747 212.003112,28.686747 L210.558872,28.686747 C207.363272,28.686747 204.772727,31.2772922 204.772727,34.4728916 C204.772727,37.668491 207.363272,40.2590361 210.558872,40.2590361 L212.003112,40.2590361 C215.198711,40.2590361 217.789256,37.668491 217.789256,34.4728916 Z M246.714876,109.795181 C252.982094,109.795181 257.596419,108.2249 260.557851,105.084337 C263.519284,101.943775 265,97.3353414 265,91.2590361 L265,83.3304012 L251.77686,83.3304012 L251.77686,91.9759036 C251.77686,93.8420348 251.77686,96.5046854 251.77686,99.9638554 C249.756657,99.9638554 248.103765,99.9638554 246.818182,99.9638554 C244.958678,99.9638554 243.63292,99.2811245 242.840909,97.9156627 C242.048898,96.5502008 241.652893,94.0240964 241.652893,90.3373494 L241.652893,68.626506 C241.652893,64.8032129 242.014463,62.1746988 242.737603,60.7409639 C243.460744,59.3072289 244.820937,58.5903614 246.818182,58.5903614 C248.677686,58.5903614 249.969008,59.1706827 250.692149,60.3313253 C251.415289,61.4919679 251.77686,63.6084337 251.77686,66.6807229 L251.77686,73.0760697 L265,73.0760697 L265,66.9879518 C265,60.8433735 263.536501,56.2690763 260.609504,53.2650602 C257.682507,50.2610442 253.050964,48.7590361 246.714876,48.7590361 C240.034435,48.7590361 235.179063,50.6024096 232.14876,54.2891566 C229.118457,57.9759036 227.603306,63.3353414 227.603306,70.3674699 L227.603306,88.186747 C227.603306,95.1506024 229.118457,100.492972 232.14876,104.213855 C235.179063,107.934739 240.034435,109.795181 246.714876,109.795181 Z" id="Glifc-Copy" fill="#073F24" fill-rule="nonzero"></path>
            </g>
        </g>
    </g>
</svg>