<?xml version="1.0" encoding="UTF-8"?>
<svg width="17px" height="16px" viewBox="0 0 17 16" version="1.1" xmlns="http://www.w3.org/2000/svg" xmlns:xlink="http://www.w3.org/1999/xlink">
    <title>Icon/Webhook logs</title>
    <g id="Flows" stroke="none" stroke-width="1" fill="#93A29B" fill-rule="evenodd">
        <g id="Desktop/Automations" transform="translate(-256.000000, -660.000000)">
            <g id="Group" transform="translate(257.000000, 660.000000)">
                <path d="M9.77088219,10 C11.4277364,10 12.7708822,8.65685425 12.7708822,7 C12.7708822,5.34314575 11.4277364,4 9.77088219,4 C8.88009294,4 8.07998288,4.38824374 7.53053428,5.00474894 L1.77088219,3" id="Oval" stroke-width="2" transform="translate(7.270882, 6.500000) rotate(-90.000000) translate(-7.270882, -6.500000) "></path>
                <path d="M8.68309541,14.2896819 C10.1374866,14.0822128 11.255654,12.8316381 11.255654,11.3199014 C11.255654,9.66304719 9.91250827,8.31990144 8.25565403,8.31990144 C6.93490966,8.31990144 5.81350564,9.17337892 5.41288067,10.3588952 L0.663165158,8.82740925" id="Oval-Copy" stroke-width="2" transform="translate(5.959410, 11.304792) rotate(162.000000) translate(-5.959410, -11.304792) "></path>
                <path d="M12.574183,13.0606602 C14.2310373,13.0606602 15.574183,11.7175144 15.574183,10.0606602 C15.574183,8.40380592 14.2310373,7.06066017 12.574183,7.06066017 C11.3990707,7.06066017 10.3817619,7.73629694 9.8895261,8.72030078 L4.08890167,7.23223305" id="Oval-Copy-2" stroke-width="2" transform="translate(9.831542, 10.060660) rotate(45.000000) translate(-9.831542, -10.060660) "></path>
                <circle id="Oval"  cx="7.77088219" cy="4" r="1"></circle>
                <circle id="Oval-Copy-3" cx="11.7708822" cy="12" r="1"></circle>
                <circle id="Oval-Copy-4" cx="3.77088219" cy="12" r="1"></circle>
            </g>
        </g>
    </g>
</svg>
