<?xml version="1.0" encoding="UTF-8"?>
<svg width="68px" height="67px" viewBox="0 0 68 67" version="1.1" xmlns="http://www.w3.org/2000/svg" xmlns:xlink="http://www.w3.org/1999/xlink">
    <!-- Generator: Sketch 61.2 (89653) - https://sketch.com -->
    <title>Group 4</title>
    <desc>Created with Sketch.</desc>
    <g id="Chat" stroke="none" stroke-width="1" fill="none" fill-rule="evenodd">
        <g id="Group-4" transform="translate(2.000000, 2.000000)">
            <path d="M3,0 L61,0 C62.6568542,-3.04359188e-16 64,1.34314575 64,3 L64,47 C64,48.6568542 62.6568542,50 61,50 L47.045117,50 L47.045117,50 L47.045117,61.799619 C47.045117,62.3519038 46.5974018,62.799619 46.045117,62.799619 C45.8032927,62.799619 45.5696602,62.7119895 45.3874845,62.5529579 L31.0076737,50 L31.0076737,50 L3,50 C1.34314575,50 2.02906125e-16,48.6568542 0,47 L0,3 C-2.02906125e-16,1.34314575 1.34314575,3.04359188e-16 3,0 Z" id="Chat/Icon-Copy-2" stroke="#073F24" stroke-width="2.5" fill="#073F24"></path>
            <path d="M32.93798,40.2070615 C35.024103,40.2070615 36.8737988,39.977588 38.4870672,39.5186409 C40.1003357,39.0596938 41.4354545,38.5520706 42.4924235,37.9957711 L42.4924235,39.706392 L46.0805551,39.706392 L46.0805551,26.6889843 L37.8195079,26.6889843 L37.8195079,28.3996052 L42.4924235,28.3996052 L42.4924235,35.9513705 C41.2407496,36.7580048 39.9612608,37.3560267 38.6539571,37.7454363 C37.3466533,38.134846 35.8585522,38.3295508 34.1896538,38.3295508 C31.9922709,38.3295508 30.0730377,37.9957711 28.4319542,37.3282117 C26.7908708,36.6606524 25.4279371,35.7358045 24.3431531,34.5536681 C23.2583691,33.3715317 22.4447811,31.9668755 21.9023891,30.3396996 C21.3599971,28.7125236 21.0888011,26.9254115 21.0888011,24.9783634 C21.0888011,23.0591302 21.3460897,21.2928794 21.8606667,19.6796109 C22.3752437,18.0663424 23.1471092,16.6755937 24.1762632,15.5073648 C25.2054173,14.3391359 26.4640448,13.4351493 27.9521459,12.7954049 C29.440247,12.1556605 31.1717291,11.8357883 33.1465923,11.8357883 C34.453896,11.8357883 35.6777549,11.9748631 36.8181688,12.2530129 C37.9585827,12.5311626 38.9738293,12.8927573 39.8639084,13.3377969 C40.7539876,13.7828364 41.4841307,14.2904597 42.0543376,14.8606667 C42.6245446,15.4308736 42.993093,16.0080343 43.1599828,16.5921488 L46.164,16.5921488 C45.9136652,15.9802194 45.4894869,15.2917988 44.8914649,14.526887 C44.293443,13.7619752 43.479855,13.0457396 42.450701,12.3781803 C41.421547,11.7106209 40.1490119,11.1473677 38.6330959,10.6884206 C37.1171798,10.2294735 35.3300677,10 33.2717597,10 C30.9074869,10 28.7309652,10.3337797 26.7421946,11.0013391 C24.7534239,11.6688984 23.0358493,12.628515 21.5894707,13.8801888 C20.143092,15.1318627 19.0165856,16.66864 18.2099514,18.4905207 C17.4033171,20.3124015 17,22.3776633 17,24.6863062 C17,26.6611693 17.3129185,28.5734487 17.9387554,30.4231445 C18.5645923,32.2728402 19.5242089,33.9278312 20.8176052,35.3881173 C22.1110014,36.8484034 23.7590386,38.0166323 25.7617167,38.892804 C27.7643948,39.7689757 30.1564826,40.2070615 32.93798,40.2070615 Z" id="G" fill="#FFFFFF" fill-rule="nonzero"></path>
        </g>
    </g>
</svg>