<?xml version="1.0" encoding="UTF-8"?>
<svg width="64px" height="64px" viewBox="0 0 64 64" version="1.1" xmlns="http://www.w3.org/2000/svg" xmlns:xlink="http://www.w3.org/1999/xlink">
    <!-- Generator: Sketch 61.2 (89653) - https://sketch.com -->
    <title>Artboard</title>
    <desc>Created with Sketch.</desc>
    <g id="Artboard" stroke="none" stroke-width="1" fill="none" fill-rule="evenodd">
        <g id="Group-2-Copy" transform="translate(10.000000, 5.000000)">
            <g id="Group-21">
                <path d="M12.5026683,10.8484305 L21.0264351,10.8484305 C27.8737753,10.8484305 33.4246414,16.3992965 33.4246414,23.2466368 L33.4246414,41.3670921 C33.4246414,48.2144324 27.8737753,53.7652984 21.0264351,53.7652984 L0.104461985,53.7652984 L0.104461985,53.7652984 L0.104461985,23.2466368 C0.104461985,16.3992965 5.65532801,10.8484305 12.5026683,10.8484305 Z" id="Rectangle-Copy-75" stroke="#073F24" stroke-width="4.3393722" fill="#119656"></path>
                <path d="M23.0529148,0 L31.5766816,0 C38.4240219,-1.257836e-15 43.9748879,5.55086603 43.9748879,12.3982063 L43.9748879,29.4457399 C43.9748879,36.2930802 38.4240219,41.8439462 31.5766816,41.8439462 L10.6547085,41.8439462 L10.6547085,41.8439462 L10.6547085,12.3982063 C10.6547085,5.55086603 16.2055745,1.257836e-15 23.0529148,0 Z" id="Rectangle-Copy-75" stroke="#073F24" stroke-width="4.3393722" fill="#FFFFFF" transform="translate(27.314798, 20.921973) scale(-1, -1) translate(-27.314798, -20.921973) "></path>
                <path d="M26.869718,34.0950673 C28.9830486,34.0950673 30.4453026,33.1427954 31.25648,31.2382517 C31.4395295,32.6717983 32.6595052,33.7459009 34.1046915,33.7459009 L34.6506171,33.7459009 L34.6506171,33.7459009 L34.6506171,20.4305073 L30.3919357,20.4305073 L30.3919357,23.6518191 L30.3919357,24.5054083 C30.3919357,25.521165 30.3919357,27.0448 30.3919357,29.0763133 C29.2036319,29.0763133 28.2537005,29.0763133 27.5421413,29.0763133 C26.4534559,29.0763133 25.7116555,28.7165661 25.3167402,27.9970718 C24.9218249,27.2775775 24.7243672,26.1877553 24.7243672,24.7276051 L24.7243672,16.7170416 C24.7243672,15.7647698 24.7830708,14.9923715 24.9004781,14.3998468 C25.0178853,13.807322 25.2687099,13.3206053 25.6529519,12.9396966 C26.0371938,12.5587878 26.6242301,12.3683334 27.4140607,12.3683334 C28.1611978,12.3683334 28.7215506,12.5164646 29.0951191,12.812727 C29.4686877,13.1089893 29.7907369,13.4431599 29.9853505,13.9321422 C30.1799641,14.4211245 30.3919357,15.3732802 30.3919357,16.3043905 L30.3919357,17.254777 L34.5225364,17.254777 L34.5225364,15.2400843 C34.5225364,12.7641774 33.9675203,10.8966665 32.857488,9.63755146 C31.7474558,8.37843644 29.9116333,7.74887892 27.3500204,7.74887892 C24.6389801,7.74887892 22.7284438,8.49482522 21.6184116,9.98671781 C20.5083793,11.4786104 19.9533632,13.6952877 19.9533632,16.6367497 L19.9533632,25.2706813 C19.9533632,28.1274969 20.4923693,30.3124318 21.5703814,31.825486 C22.6483934,33.3385402 24.414839,34.0950673 26.869718,34.0950673 Z" id="Glifc-Copy" fill="#073F24" fill-rule="nonzero"></path>
            </g>
        </g>
    </g>
</svg>