<svg width="26" height="24" viewBox="0 0 26 24" fill="none" xmlns="http://www.w3.org/2000/svg">
<path d="M18 12H22M20 14V10M6 18V17C6 16.2044 6.31607 15.4413 6.87868 14.8787C7.44129 14.3161 8.20435 14 9 14H13C13.7956 14 14.5587 14.3161 15.1213 14.8787C15.6839 15.4413 16 16.2044 16 17V18C16 18.2652 15.8946 18.5196 15.7071 18.7071C15.5196 18.8946 15.2652 19 15 19H7C6.73478 19 6.48043 18.8946 6.29289 18.7071C6.10536 18.5196 6 18.2652 6 18ZM14 8C14 8.79565 13.6839 9.55871 13.1213 10.1213C12.5587 10.6839 11.7956 11 11 11C10.2044 11 9.44129 10.6839 8.87868 10.1213C8.31607 9.55871 8 8.79565 8 8C8 7.20435 8.31607 6.44129 8.87868 5.87868C9.44129 5.31607 10.2044 5 11 5C11.7956 5 12.5587 5.31607 13.1213 5.87868C13.6839 6.44129 14 7.20435 14 8Z" stroke="#777777" stroke-width="2" stroke-linecap="round" stroke-linejoin="round"/>
<path d="M2.5 16H2C1.73478 16 1.48043 15.8946 1.29289 15.7071C1.10536 15.5195 1 15.2652 1 15C1 14.2043 1.31607 13.4413 1.87868 12.8786C2.44129 12.316 3.20435 12 4 12H5M5 8.94997C4.63282 8.87487 4.28721 8.71818 3.98876 8.49149C3.69031 8.26479 3.44665 7.97389 3.2758 7.64031C3.10495 7.30674 3.01129 6.93901 3.00175 6.56435C2.9922 6.18969 3.06701 5.81767 3.22065 5.47583C3.37429 5.13398 3.60282 4.83105 3.88934 4.58945C4.17586 4.34785 4.51303 4.17376 4.87592 4.08006C5.2388 3.98636 5.61811 3.97545 5.98578 4.04814C6.35344 4.12082 6.70007 4.27524 7 4.49997" stroke="#777777" stroke-width="2" stroke-linecap="round"/>
</svg>
