<svg width="20" height="22" viewBox="0 0 20 22" fill="none" xmlns="http://www.w3.org/2000/svg">
<g id="filter_list">
<mask id="mask0_1136_16955" style="mask-type:alpha" maskUnits="userSpaceOnUse" x="0" y="0" width="20" height="22">
<rect id="Bounding box" width="20" height="22" rx="10" fill="#D9D9D9"/>
</mask>
<g mask="url(#mask0_1136_16955)">
<path id="filter_list_2" d="M9.25 16.5C8.74374 16.5 8.33333 16.0896 8.33333 15.5833C8.33333 15.0771 8.74374 14.6667 9.25 14.6667H10.75C11.2563 14.6667 11.6667 15.0771 11.6667 15.5833C11.6667 16.0896 11.2563 16.5 10.75 16.5H9.25ZM5.91667 11.9167C5.4104 11.9167 5 11.5063 5 11C5 10.4937 5.41041 10.0833 5.91667 10.0833H14.0833C14.5896 10.0833 15 10.4937 15 11C15 11.5063 14.5896 11.9167 14.0833 11.9167H5.91667ZM3.41667 7.33333C2.91041 7.33333 2.5 6.92293 2.5 6.41667C2.5 5.91041 2.91041 5.5 3.41667 5.5H16.5833C17.0896 5.5 17.5 5.91041 17.5 6.41667C17.5 6.92293 17.0896 7.33333 16.5833 7.33333H3.41667Z" fill="#93A29B"/>
</g>
</g>
</svg>
