<svg width="19" height="19" viewBox="0 0 19 19" fill="none" xmlns="http://www.w3.org/2000/svg">
<path d="M9.50002 6.35582L5.35582 10.5L6.42502 11.5442L9.50002 8.46922L12.575 11.5442L13.6442 10.5L9.50002 6.35582ZM9.49835 4.76837e-05C10.8123 4.76837e-05 12.0473 0.249382 13.2034 0.748049C14.3596 1.24672 15.3653 1.92346 16.2205 2.7783C17.0757 3.63315 17.7528 4.63839 18.2517 5.79402C18.7506 6.94964 19 8.18442 19 9.49835C19 10.8123 18.7507 12.0473 18.252 13.2034C17.7533 14.3596 17.0766 15.3653 16.2217 16.2205C15.3669 17.0757 14.3617 17.7528 13.206 18.2517C12.0504 18.7506 10.8156 19 9.5017 19C8.18777 19 6.95273 18.7507 5.7966 18.252C4.64045 17.7533 3.63477 17.0766 2.77955 16.2217C1.92431 15.3669 1.24726 14.3617 0.748373 13.206C0.249489 12.0504 4.76837e-05 10.8156 4.76837e-05 9.5017C4.76837e-05 8.18777 0.249382 6.95273 0.748049 5.7966C1.24672 4.64045 1.92346 3.63477 2.7783 2.77955C3.63315 1.92431 4.63839 1.24726 5.79402 0.748373C6.94964 0.249489 8.18442 4.76837e-05 9.49835 4.76837e-05ZM9.50002 1.50002C7.26669 1.50002 5.37502 2.27502 3.82502 3.82502C2.27502 5.37502 1.50002 7.26669 1.50002 9.50002C1.50002 11.7334 2.27502 13.625 3.82502 15.175C5.37502 16.725 7.26669 17.5 9.50002 17.5C11.7334 17.5 13.625 16.725 15.175 15.175C16.725 13.625 17.5 11.7334 17.5 9.50002C17.5 7.26669 16.725 5.37502 15.175 3.82502C13.625 2.27502 11.7334 1.50002 9.50002 1.50002Z" fill="#717971"/>
</svg>
