<svg xmlns="http://www.w3.org/2000/svg" width="17" height="17" viewBox="0 0 17 17" fill="none">
  <path
    d="M3.5 4.74958V2.51505C3.5 1.67831 4.17831 1 5.01505 1H14.4849C15.3217 1 16 1.67831 16 2.51505V7.20301C16 8.03975 15.3217 8.71806 14.4849 8.71806H13.526"
    stroke="#073F24" stroke-width="1.56249" />
  <path fill-rule="evenodd" clip-rule="evenodd"
    d="M1 6.26896C1 5.43222 1.67831 4.75391 2.51505 4.75391H12.0067C12.8434 4.75391 13.5217 5.43222 13.5217 6.26896V10.9703C13.5217 11.8071 12.8434 12.4854 12.0067 12.4854H10.2045V14.8688C10.2045 15.3055 9.68758 15.5363 9.36237 15.2448L6.28411 12.4854H2.51505C1.67831 12.4854 1 11.8071 1 10.9703V6.26896Z"
    stroke="#073F24" stroke-width="1.56249" />
</svg>
