<?xml version="1.0" encoding="UTF-8"?>
<svg width="18px" height="18px" viewBox="0 0 18 18" version="1.1" xmlns="http://www.w3.org/2000/svg" xmlns:xlink="http://www.w3.org/1999/xlink">
    <title>Icon/Contact Variable</title>
    <g id="Symbols" stroke="none" stroke-width="1" fill="none" fill-rule="evenodd">
        <g id="Icon/Contact-Variable" fill="#93A29B" fill-rule="nonzero">
            <g id="Group" transform="translate(0.000000, 2.500000)">
                <path d="M3.71677648,11.7112928 C3.4315256,11.591722 3.23142423,11.3791518 3.11647238,11.073582 C3.00152053,10.7680123 2.9440446,10.3783001 2.9440446,9.90444558 L2.9440446,8.55595299 C2.9440446,8.09981264 2.84505829,7.69349344 2.64708566,7.3369954 C2.44911303,6.98049736 2.1478966,6.70039176 1.74343639,6.49667859 C2.1478966,6.29296542 2.44911303,6.01285982 2.64708566,5.65636178 C2.84505829,5.29986374 2.9440446,4.89354454 2.9440446,4.43740419 L2.9440446,3.0889116 C2.9440446,2.61505706 3.00152053,2.22534492 3.11647238,1.91977517 C3.23142423,1.61420542 3.4315256,1.40163516 3.71677648,1.28206438 L3.28890015,0 C2.46294982,0.239141543 1.87328941,0.624425141 1.51991891,1.15585079 C1.1665484,1.68727644 0.989863153,2.33163005 0.989863153,3.0889116 L0.989863153,4.43740419 C0.989863153,4.82711633 0.90897111,5.13047181 0.747187025,5.34747062 C0.58540294,5.56446943 0.336340598,5.67296883 0,5.67296883 L0,7.32703117 C0.336340598,7.32703117 0.58540294,7.43553057 0.747187025,7.65252938 C0.90897111,7.86952819 0.989863153,8.17066939 0.989863153,8.55595299 L0.989863153,9.90444558 C0.989863153,10.6617271 1.1665484,11.3071879 1.51991891,11.8408278 C1.87328941,12.3744677 2.46294982,12.7608585 3.28890015,13 L3.71677648,11.7112928 Z" id="Path"></path>
                <path d="M14.7110998,13 C15.5370502,12.7608585 16.1267106,12.3744677 16.4800811,11.8408278 C16.8334516,11.3071879 17.0101368,10.6617271 17.0101368,9.90444558 L17.0101368,9.90444558 L17.0101368,8.55595299 C17.0101368,8.17066939 17.0910289,7.86952819 17.252813,7.65252938 C17.4145971,7.43553057 17.6636594,7.32703117 18,7.32703117 L18,7.32703117 L18,5.67296883 C17.6636594,5.67296883 17.4145971,5.56446943 17.252813,5.34747062 C17.0910289,5.13047181 17.0101368,4.82711633 17.0101368,4.43740419 L17.0101368,4.43740419 L17.0101368,3.0889116 C17.0101368,2.33163005 16.8334516,1.68727644 16.4800811,1.15585079 C16.1267106,0.624425141 15.5370502,0.239141543 14.7110998,0 L14.7110998,0 L14.2832235,1.28206438 C14.5684744,1.40163516 14.7685758,1.61420542 14.8835276,1.91977517 C14.9984795,2.22534492 15.0559554,2.61505706 15.0559554,3.0889116 L15.0559554,3.0889116 L15.0559554,4.43740419 C15.0559554,4.89354454 15.152813,5.29986374 15.3465281,5.65636178 C15.5402433,6.01285982 15.8372022,6.29296542 16.237405,6.49667859 C15.8372022,6.70039176 15.5402433,6.98049736 15.3465281,7.3369954 C15.152813,7.69349344 15.0559554,8.09981264 15.0559554,8.55595299 L15.0559554,8.55595299 L15.0559554,9.90444558 C15.0559554,10.3783001 14.9984795,10.7680123 14.8835276,11.073582 C14.7685758,11.3791518 14.5684744,11.591722 14.2832235,11.7112928 L14.2832235,11.7112928 L14.7110998,13 Z" id="Path"></path>
                <path d="M9.1240367,11.7504185 C9.4692611,11.7504185 9.82320328,11.7087054 10.1858633,11.625279 C10.5485232,11.5418527 10.844928,11.422154 11.0750776,11.266183 L11.0750776,11.266183 L10.876312,10.2868304 C10.6461625,10.3811384 10.3724239,10.4600307 10.0550964,10.5235073 C9.73776896,10.5869838 9.43438995,10.6187221 9.14495939,10.6187221 C8.12323466,10.6187221 7.33950554,10.3321708 6.79377203,9.75906808 C6.24803851,9.1859654 5.97517175,8.32087054 5.97517175,7.16378348 C5.97517175,7.01506696 5.97691531,6.90262277 5.98040242,6.82645089 C6.01876069,6.03571429 6.18352688,5.32386998 6.47470099,4.69091797 C6.7658751,4.05796596 7.16950868,3.55831473 7.68560172,3.19196429 C8.20169475,2.82561384 8.80147855,2.64243862 9.48495312,2.64243862 C10.1649406,2.64243862 10.7350839,2.78027344 11.1953831,3.05594308 C11.6556823,3.33161272 11.9991631,3.71881975 12.2258256,4.21756417 C12.4524881,4.71630859 12.5658193,5.29938616 12.5658193,5.96679688 C12.5658193,6.03208705 12.5623322,6.13727679 12.555358,6.28236607 C12.5448966,6.67410714 12.4934617,7.02866908 12.4010531,7.3460519 C12.3086446,7.66343471 12.184852,7.91280692 12.0296754,8.09416853 C11.8744988,8.27553013 11.7045019,8.36621094 11.5196848,8.36621094 C11.3767131,8.36621094 11.2581512,8.32903181 11.163999,8.25467355 C11.0698469,8.18031529 11.0227709,8.05970982 11.0227709,7.89285714 C11.0227709,7.86746652 11.026258,7.82212612 11.0332322,7.75683594 L11.0332322,7.75683594 L11.2999965,4.50320871 C11.0977439,4.36174665 10.9303623,4.25292969 10.797852,4.17675781 C10.6653416,4.10058594 10.5031907,4.03529576 10.3113994,3.98088728 C10.1196081,3.92647879 9.89294559,3.89927455 9.63141195,3.89927455 C9.18506122,3.89927455 8.78055586,4.02169364 8.41789589,4.26653181 C8.05523592,4.51136998 7.75708758,4.85867746 7.52345086,5.30845424 C7.28981415,5.75823103 7.13812464,6.28236607 7.06838234,6.88085938 C7.05443388,7.05496652 7.04745965,7.18191964 7.04745965,7.26171875 C7.04745965,7.68610491 7.11458662,8.05789621 7.24884055,8.37709263 C7.38309448,8.69628906 7.56965514,8.94203404 7.80852252,9.11432757 C8.04738991,9.28662109 8.32025667,9.37276786 8.6271228,9.37276786 C9.20947102,9.37276786 9.66802666,9.14606585 10.0027897,8.69266183 C10.1283259,8.91755022 10.3018098,9.09165737 10.5232416,9.21498326 C10.7446735,9.33830915 10.994874,9.3999721 11.2738432,9.3999721 C11.7934233,9.3999721 12.2293127,9.25125558 12.5815113,8.95382254 C12.93371,8.65638951 13.1969872,8.26736886 13.3713429,7.7867606 C13.5456987,7.30615234 13.6415943,6.78111049 13.6590299,6.21163504 C13.662517,6.14634487 13.6642606,6.05203683 13.6642606,5.92871094 C13.6642606,5.07993862 13.5021097,4.3336356 13.177808,3.6898019 C12.8535063,3.04596819 12.3792587,2.54541016 11.7550651,2.18812779 C11.1308715,1.83084542 10.3811417,1.65220424 9.50587581,1.65220424 C8.59225165,1.65220424 7.78585628,1.87437221 7.0866897,2.31870815 C6.38752311,2.76304408 5.83917426,3.37695313 5.44164314,4.16043527 C5.04411202,4.94391741 4.82442376,5.83258929 4.78257838,6.82645089 C4.77909127,6.89899554 4.77734771,7.0078125 4.77734771,7.15290179 C4.77734771,8.67633929 5.15221258,9.82345145 5.90194233,10.5942383 C6.65167208,11.3650251 7.72570354,11.7504185 9.1240367,11.7504185 Z M9.05603796,8.27371652 C8.84681105,8.27371652 8.68989087,8.18303571 8.58527742,8.00167411 C8.48066396,7.8203125 8.42835724,7.55189732 8.42835724,7.19642857 C8.42835724,7.06222098 8.43184435,6.95703125 8.43881858,6.88085938 C8.50856088,6.25334821 8.64019948,5.78815569 8.83373437,5.48528181 C9.02726926,5.18240792 9.32628938,5.03097098 9.73079473,5.03097098 C9.83540819,5.03097098 9.93130385,5.04185268 10.0184817,5.06361607 L10.0184817,5.06361607 L9.82494684,7.43582589 C9.7238205,7.76227679 9.60438681,7.98353795 9.46664576,8.09960938 C9.32890472,8.2156808 9.19203545,8.27371652 9.05603796,8.27371652 Z" id="@" stroke-width="0.5"></path>
            </g>
        </g>
    </g>
</svg>
