<?xml version="1.0" encoding="UTF-8"?>
<svg width="18px" height="18px" viewBox="0 0 18 18" version="1.1" xmlns="http://www.w3.org/2000/svg" xmlns:xlink="http://www.w3.org/1999/xlink">
    <title>contact details</title>
    <g id="contact-details" stroke="none" stroke-width="1" fill="none" fill-rule="evenodd">
        <g id="Icon/User" transform="translate(2.146416, 1.000000)" stroke="#073F24" stroke-width="2">
            <circle id="Oval" cx="7" cy="4" r="3"></circle>
            <path d="M0,12.8349845 L0,15.3349845 L13.6483441,15.3349845 L13.6483441,12.8426913 C12.1473981,11.1708868 9.87267408,10.3349845 6.82417206,10.3349845" id="Path-12" transform="translate(6.824172, 12.834985) scale(-1, 1) translate(-6.824172, -12.834985) "></path>
        </g>
        <path d="M13.7274549,13.6513026 L13.7274549,11.7815631 L13.7274549,11.7815631 L15.3206413,11.7815631 C15.6958407,11.7815631 16,11.4774039 16,11.1022044 C16,10.7270049 15.6958407,10.4228457 15.3206413,10.4228457 L13.7274549,10.4228457 L13.7274549,10.4228457 L13.7274549,8.72144289 C13.7274549,8.32300098 13.4044539,8 13.006012,8 C12.6075701,8 12.2845691,8.32300098 12.2845691,8.72144289 L12.2845691,10.4228457 L12.2845691,10.4228457 L10.6793587,10.4228457 C10.3041593,10.4228457 10,10.7270049 10,11.1022044 C10,11.4774039 10.3041593,11.7815631 10.6793587,11.7815631 L12.2845691,11.7815631 L12.2845691,11.7815631 L12.2845691,13.6513026 C12.2845691,14.0497445 12.6075701,14.3727455 13.006012,14.3727455 C13.4044539,14.3727455 13.7274549,14.0497445 13.7274549,13.6513026 Z" id="+-copy-2" fill="#073F24" fill-rule="nonzero"></path>
    </g>
</svg>