<?xml version="1.0" encoding="UTF-8"?>
<svg width="27px" height="18px" viewBox="0 0 27 18" version="1.1" xmlns="http://www.w3.org/2000/svg" xmlns:xlink="http://www.w3.org/1999/xlink">
    <title>Group Copy 5</title>
    <g id="HSM-Templates" stroke="none" stroke-width="1" fill="none" fill-rule="evenodd">
        <g id="Desktop/Templates/Save" transform="translate(-1130.000000, -126.000000)">
            <g id="Group-Copy-5" transform="translate(1130.000000, 126.000000)">
                <g id="Group">
                    <path d="M15,2 C15.5522847,2 16.0522847,2.22385763 16.4142136,2.58578644 C16.7761424,2.94771525 17,3.44771525 17,4 L17,4 L17,10 C17,10.5522847 16.7761424,11.0522847 16.4142136,11.4142136 C16.0522847,11.7761424 15.5522847,12 15,12 L15,12 L8.57957835,12 L8.57957835,15.7759202 L4.32371536,12 L3,12 C2.44771525,12 1.94771525,11.7761424 1.58578644,11.4142136 C1.22385763,11.0522847 1,10.5522847 1,10 L1,10 L1,4 C1,3.44771525 1.22385763,2.94771525 1.58578644,2.58578644 C1.94771525,2.22385763 2.44771525,2 3,2 L3,2 Z" id="Chat/Icon" stroke="#073F24" stroke-width="2"></path>
                    <path d="M4.21980495,10 L4.74193548,8.62362637 L7.25806452,8.62362637 L7.78019505,10 L9,10 L6.51987997,4 L5.47111778,4 L3,10 L4.21980495,10 Z M6.92948237,7.76236264 L5.0660165,7.76236264 L5.99774944,5.3021978 L6.92948237,7.76236264 Z" id="A" fill="#073F24" fill-rule="nonzero"></path>
                    <text id="ரு" font-family="TamilSangamMN-Black, Tamil Sangam MN" font-size="8" font-weight="700" line-spacing="8" fill="#073F24">
                        <tspan x="8" y="11">ரு</tspan>
                    </text>
                </g>
                <path d="M22,8 L23.1679497,6.24807544 C23.4743022,5.78854675 24.0951715,5.66437288 24.5547002,5.97072534 C24.6645525,6.0439602 24.7588154,6.13822315 24.8320503,6.24807544 L26,8 L26,8" id="Triangle" stroke="#073F24" stroke-width="2" stroke-linecap="round" transform="translate(24.000000, 6.500000) scale(1, -1) translate(-24.000000, -6.500000) "></path>
            </g>
        </g>
    </g>
</svg>
