<?xml version="1.0" encoding="UTF-8"?>
<svg width="15px" height="15px" viewBox="0 0 18 18" version="1.1" xmlns="http://www.w3.org/2000/svg"
    xmlns:xlink="http://www.w3.org/1999/xlink">
    <!-- Generator: Sketch 61.2 (89653) - https://sketch.com -->
    <title>Make a copy</title>
    <desc>Create a copy using this action.</desc>
    <g id="Flows" stroke="none" stroke-width="1" fill="none" fill-rule="evenodd">
        <g id="Desktop/Flows" transform="translate(-1180.000000, -216.000000)" stroke="#777" stroke-width="2">
            <g id="Icon/Duplicate" transform="translate(1180.000000, 216.000000)">
                <path
                    d="M12.6381497,1 L15,1 C16.1045695,1 17,1.8954305 17,3 L17,11 C17,12.1045695 16.1045695,13 15,13 L7,13 C5.8954305,13 5,12.1045695 5,11 L5,8.6226174 L5,8.6226174"
                    id="Path-5"
                    transform="translate(11.000000, 7.000000) rotate(-90.000000) translate(-11.000000, -7.000000) ">
                </path>
                <path
                    d="M3,5 L11,5 C12.1045695,5 13,5.8954305 13,7 L13,15 C13,16.1045695 12.1045695,17 11,17 L3,17 C1.8954305,17 1,16.1045695 1,15 L1,7 C1,5.8954305 1.8954305,5 3,5 Z"
                    id="Rectangle-Copy-4"></path>
                <line x1="7" y1="9" x2="7" y2="13" id="Path-26" stroke-linecap="round"
                    transform="translate(7.000000, 11.000000) rotate(-90.000000) translate(-7.000000, -11.000000) ">
                </line>
                <line x1="7" y1="9" x2="7" y2="13" id="Path-26" stroke-linecap="round"></line>
            </g>
        </g>
    </g>
</svg>
