<svg width="15" height="15" viewBox="0 0 15 15" fill="none" xmlns="http://www.w3.org/2000/svg">
<g clip-path="url(#clip0_568_6686)">
<path d="M6.875 2.32617H2.5C2.16848 2.32617 1.85054 2.45787 1.61612 2.69229C1.3817 2.92671 1.25 3.24465 1.25 3.57617V12.3262C1.25 12.6577 1.3817 12.9756 1.61612 13.2101C1.85054 13.4445 2.16848 13.5762 2.5 13.5762H11.25C11.5815 13.5762 11.8995 13.4445 12.1339 13.2101C12.3683 12.9756 12.5 12.6577 12.5 12.3262V7.95117" stroke="#777777" stroke-width="1.5" stroke-linecap="round" stroke-linejoin="round"/>
<path d="M11.5625 1.38833C11.8111 1.13968 12.1484 1 12.5 1C12.8516 1 13.1889 1.13968 13.4375 1.38833C13.6861 1.63697 13.8258 1.97419 13.8258 2.32583C13.8258 2.67746 13.6861 3.01468 13.4375 3.26332L7.5 9.20082L5 9.82582L5.625 7.32582L11.5625 1.38833Z" stroke="#777777" stroke-width="1.5" stroke-linecap="round" stroke-linejoin="round"/>
</g>
<defs>
<clipPath id="clip0_568_6686">
<rect width="15" height="15" fill="white"/>
</clipPath>
</defs>
</svg>
