<?xml version="1.0" encoding="UTF-8"?>
<svg width="18px" height="18px" viewBox="0 0 18 18" version="1.1" xmlns="http://www.w3.org/2000/svg" xmlns:xlink="http://www.w3.org/1999/xlink">
    <title>Help</title>
    <g id="Symbols" stroke="none" stroke-width="1" fill="none" fill-rule="evenodd">
        <g id="Help">
            <g id="Group-7" stroke="#93A29B" stroke-width="2">
                <circle id="Oval" cx="9" cy="9" r="8"></circle>
            </g>
            <path d="M9.38298051,10.7594926 C9.38729279,10.4145105 9.43364975,10.1180416 9.52205141,9.87008569 C9.61045307,9.62212982 9.76461694,9.39465726 9.98454301,9.18766801 C10.3381496,8.85993504 10.6238379,8.57209061 10.8416079,8.32413474 C11.0593778,8.07617888 11.2404934,7.80019321 11.3849546,7.49617776 C11.5294159,7.1921623 11.6016465,6.86119512 11.6016465,6.50327621 C11.6016465,5.97717854 11.4927615,5.5265457 11.2749916,5.15137769 C11.0572217,4.77620968 10.7402694,4.49052139 10.3241347,4.29431284 C9.90800011,4.09810428 9.4110103,4 8.83316532,4 C8.29413082,4 7.81223398,4.09487007 7.3874748,4.28461022 C6.96271561,4.47435036 6.62743616,4.75680444 6.38163642,5.13197245 C6.13583669,5.50714046 6.00862455,5.96208557 6,6.4968078 L6,6.4968078 L7.61063508,6.4968078 C7.61494736,6.11301523 7.73569108,5.82409274 7.97286626,5.63004032 C8.21004144,5.4359879 8.4968078,5.33896169 8.83316532,5.33896169 C9.20833333,5.33896169 9.49402162,5.44461246 9.69023017,5.65591398 C9.88643873,5.8672155 9.98454301,6.17123096 9.98454301,6.56796035 C9.98454301,6.79651098 9.94034218,7.00242216 9.85194052,7.18569388 C9.76353887,7.36896561 9.6546539,7.5328321 9.52528562,7.67729335 C9.39591734,7.82175459 9.19970878,8.01904122 8.93665995,8.26915323 C8.66498656,8.53220206 8.45584117,8.77368952 8.30922379,8.99361559 C8.16260641,9.21354167 8.05695565,9.46041947 7.99227151,9.73424899 C7.92758737,10.0080785 7.89308916,10.3498264 7.88877688,10.7594926 L7.88877688,10.7594926 L9.38298051,10.7594926 Z M8.67792339,13.625 C8.95822133,13.625 9.18030354,13.5441448 9.34417003,13.3824345 C9.50803651,13.2207241 9.58996976,13.0148129 9.58996976,12.7647009 C9.58996976,12.5145889 9.50803651,12.3075997 9.34417003,12.1437332 C9.18030354,11.9798667 8.95822133,11.8979335 8.67792339,11.8979335 C8.39762545,11.8979335 8.17554323,11.9798667 8.01167675,12.1437332 C7.84781026,12.3075997 7.76587702,12.5145889 7.76587702,12.7647009 C7.76587702,13.0148129 7.84781026,13.2207241 8.01167675,13.3824345 C8.17554323,13.5441448 8.39762545,13.625 8.67792339,13.625 Z" id="?" fill="#93A29B" fill-rule="nonzero"></path>
        </g>
    </g>
</svg>