<?xml version="1.0" encoding="UTF-8"?>
<svg width="24px" height="26px" viewBox="0 0 24 26" version="1.1" xmlns="http://www.w3.org/2000/svg" xmlns:xlink="http://www.w3.org/1999/xlink">
    <title>Group</title>
    <g id="Consulting" stroke="none" stroke-width="1" fill="none" fill-rule="evenodd">
        <g id="Desktop/Consulting-list" transform="translate(-270.000000, -27.000000)" stroke="#073F24" stroke-width="2">
            <g id="Icon/Staff" transform="translate(257.000000, 16.000000)">
                <g id="Group" transform="translate(14.000000, 12.000000)">
                    <path d="M19.882137,8.76923077 C19.882137,3.92611835 15.9305206,0 11.0559547,0 C6.18138881,0 2.22977238,3.92611835 2.22977238,8.76923077" id="Oval"></path>
                    <path d="M-0.592715397,14.4534384 L5.77651537,14.4534384 C5.77651537,14.3145951 5.77651537,13.6550943 5.77651537,12.4749363 C5.77651537,10.7046992 4.3507145,9.26963847 2.59189999,9.26963847 C0.833085476,9.26963847 -0.592715397,10.7046992 -0.592715397,12.4749363 C-0.592715397,13.6550943 -0.592715397,14.3145951 -0.592715397,14.4534384 Z" id="Oval" stroke-linejoin="round" transform="translate(2.591900, 11.861538) rotate(-90.000000) translate(-2.591900, -11.861538) "></path>
                    <path d="M16.2234846,14.4534384 L22.5927154,14.4534384 C22.5927154,14.3145951 22.5927154,13.6550943 22.5927154,12.4749363 C22.5927154,10.7046992 21.1669145,9.26963847 19.4081,9.26963847 C17.6492855,9.26963847 16.2234846,10.7046992 16.2234846,12.4749363 C16.2234846,13.6550943 16.2234846,14.3145951 16.2234846,14.4534384 Z" id="Oval" stroke-linejoin="round" transform="translate(19.408100, 11.861538) scale(-1, 1) rotate(-90.000000) translate(-19.408100, -11.861538) "></path>
                    <path d="M14.2034521,22.2838324 C17.2386262,21.2376916 19.4176011,18.3716673 19.4176011,15" id="Oval"></path>
                    <rect id="Rectangle" x="7.80420333" y="20.9538462" width="6.41059559" height="3.04615385" rx="1.52307692"></rect>
                </g>
            </g>
        </g>
    </g>
</svg>