<?xml version="1.0" encoding="UTF-8"?>
<svg width="12px" height="12px" viewBox="0 0 12 12" version="1.1" xmlns="http://www.w3.org/2000/svg" xmlns:xlink="http://www.w3.org/1999/xlink">
    <title>Icon/Info</title>
    <g id="Symbols" stroke="none" stroke-width="1" fill="none" fill-rule="evenodd">
        <g id="Icon/Info">
            <circle id="Oval" fill="#040411" cx="6" cy="6" r="6"></circle>
            <path d="M6.10560626,3.38722295 C5.91090733,3.38722295 5.74402503,3.31942701 5.60495437,3.18383312 C5.4658837,3.04823922 5.39634941,2.88309528 5.39634941,2.68839635 C5.39634941,2.49369742 5.46414535,2.33029184 5.59973924,2.19817471 C5.73533314,2.06605757 5.90395379,2 6.10560626,2 C6.29335166,2 6.45328052,2.06605757 6.58539765,2.19817471 C6.71751478,2.33029184 6.78357236,2.49369742 6.78357236,2.68839635 C6.78357236,2.88309528 6.71751478,3.04823922 6.58539765,3.18383312 C6.45328052,3.31942701 6.29335166,3.38722295 6.10560626,3.38722295 Z M5,10 L5,9.79139505 L5.73011734,9.68709257 L5.73011734,4.92046936 L5,4.81616688 L5,4.60756193 L6.77314211,4.60756193 L6.77314211,9.68709257 L7.50325945,9.79139505 L7.50325945,10 L5,10 Z" id="i" fill="#FFFFFF" fill-rule="nonzero"></path>
        </g>
    </g>
</svg>