<svg xmlns="http://www.w3.org/2000/svg" width="18" height="16" viewBox="0 0 18 16" fill="none">
  <path
    d="M7.25441 7.52941C6.25693 7.52941 5.40302 7.16078 4.6927 6.42353C3.98237 5.68627 3.6272 4.8 3.6272 3.76471C3.6272 2.72941 3.98237 1.84314 4.6927 1.10588C5.40302 0.368627 6.25693 0 7.25441 0C8.25189 0 9.10579 0.368627 9.81612 1.10588C10.5264 1.84314 10.8816 2.72941 10.8816 3.76471C10.8816 4.8 10.5264 5.68627 9.81612 6.42353C9.10579 7.16078 8.25189 7.52941 7.25441 7.52941ZM0 15.0588V12.4235C0 11.9059 0.128463 11.4196 0.38539 10.9647C0.642317 10.5098 0.997481 10.1647 1.45088 9.92941C2.22166 9.52157 3.09068 9.17647 4.05793 8.89412C5.02519 8.61176 6.09068 8.47059 7.25441 8.47059H7.57179C7.66247 8.47059 7.75315 8.48627 7.84383 8.51765C7.72292 8.8 7.62091 9.09412 7.53778 9.4C7.45466 9.70588 7.39043 10.0235 7.34509 10.3529H7.25441C6.18136 10.3529 5.21788 10.4941 4.36398 10.7765C3.51008 11.0588 2.81108 11.3412 2.267 11.6235C2.13098 11.702 2.02141 11.8118 1.93829 11.9529C1.85516 12.0941 1.8136 12.251 1.8136 12.4235V13.1765H7.52645C7.61713 13.5059 7.73803 13.8314 7.88917 14.1529C8.0403 14.4745 8.20655 14.7765 8.38791 15.0588H0ZM12.6952 16L12.4232 14.5882C12.2418 14.5098 12.0718 14.4275 11.9131 14.3412C11.7544 14.2549 11.5919 14.149 11.4257 14.0235L10.1108 14.4471L9.20403 12.8471L10.2469 11.9059C10.2166 11.6863 10.2015 11.4824 10.2015 11.2941C10.2015 11.1059 10.2166 10.902 10.2469 10.6824L9.20403 9.74118L10.1108 8.14118L11.4257 8.56471C11.5919 8.43922 11.7544 8.33333 11.9131 8.24706C12.0718 8.16078 12.2418 8.07843 12.4232 8L12.6952 6.58824H14.5088L14.7809 8C14.9622 8.07843 15.1322 8.16471 15.2909 8.25882C15.4496 8.35294 15.6121 8.47059 15.7783 8.61176L17.0932 8.14118L18 9.78824L16.9572 10.7294C16.9874 10.9176 17.0025 11.1137 17.0025 11.3176C17.0025 11.5216 16.9874 11.7176 16.9572 11.9059L18 12.8471L17.0932 14.4471L15.7783 14.0235C15.6121 14.149 15.4496 14.2549 15.2909 14.3412C15.1322 14.4275 14.9622 14.5098 14.7809 14.5882L14.5088 16H12.6952ZM13.602 13.1765C14.1008 13.1765 14.5277 12.9922 14.8829 12.6235C15.238 12.2549 15.4156 11.8118 15.4156 11.2941C15.4156 10.7765 15.238 10.3333 14.8829 9.96471C14.5277 9.59608 14.1008 9.41177 13.602 9.41177C13.1033 9.41177 12.6763 9.59608 12.3212 9.96471C11.966 10.3333 11.7884 10.7765 11.7884 11.2941C11.7884 11.8118 11.966 12.2549 12.3212 12.6235C12.6763 12.9922 13.1033 13.1765 13.602 13.1765ZM7.25441 5.64706C7.75315 5.64706 8.1801 5.46275 8.53526 5.09412C8.89043 4.72549 9.06801 4.28235 9.06801 3.76471C9.06801 3.24706 8.89043 2.80392 8.53526 2.43529C8.1801 2.06667 7.75315 1.88235 7.25441 1.88235C6.75567 1.88235 6.32872 2.06667 5.97355 2.43529C5.61839 2.80392 5.44081 3.24706 5.44081 3.76471C5.44081 4.28235 5.61839 4.72549 5.97355 5.09412C6.32872 5.46275 6.75567 5.64706 7.25441 5.64706Z"
    fill="#999999" />
</svg>
