<svg width="14" height="4" viewBox="0 0 14 4" fill="none" xmlns="http://www.w3.org/2000/svg">
<path d="M1.99479 3.66927C1.53646 3.66927 1.1441 3.50608 0.817708 3.17969C0.491319 2.8533 0.328125 2.46094 0.328125 2.0026C0.328125 1.54427 0.491319 1.15191 0.817708 0.825521C1.1441 0.499132 1.53646 0.335938 1.99479 0.335938C2.45312 0.335938 2.84549 0.499132 3.17187 0.825521C3.49826 1.15191 3.66146 1.54427 3.66146 2.0026C3.66146 2.46094 3.49826 2.8533 3.17187 3.17969C2.84549 3.50608 2.45312 3.66927 1.99479 3.66927ZM6.99479 3.66927C6.53646 3.66927 6.14409 3.50608 5.81771 3.17969C5.49132 2.8533 5.32812 2.46094 5.32812 2.0026C5.32812 1.54427 5.49132 1.15191 5.81771 0.825521C6.14409 0.499132 6.53646 0.335938 6.99479 0.335938C7.45312 0.335938 7.84548 0.499132 8.17187 0.825521C8.49826 1.15191 8.66146 1.54427 8.66146 2.0026C8.66146 2.46094 8.49826 2.8533 8.17187 3.17969C7.84548 3.50608 7.45312 3.66927 6.99479 3.66927ZM11.9948 3.66927C11.5365 3.66927 11.1441 3.50608 10.8177 3.17969C10.4913 2.8533 10.3281 2.46094 10.3281 2.0026C10.3281 1.54427 10.4913 1.15191 10.8177 0.825521C11.1441 0.499132 11.5365 0.335938 11.9948 0.335938C12.4531 0.335938 12.8455 0.499132 13.1719 0.825521C13.4983 1.15191 13.6615 1.54427 13.6615 2.0026C13.6615 2.46094 13.4983 2.8533 13.1719 3.17969C12.8455 3.50608 12.4531 3.66927 11.9948 3.66927Z" fill="#777777"/>
</svg>
