<?xml version="1.0" encoding="UTF-8"?>
<svg width="26px" height="20px" viewBox="0 0 26 20" version="1.1" xmlns="http://www.w3.org/2000/svg" xmlns:xlink="http://www.w3.org/1999/xlink">
    <title>Icon/Organisation</title>
    <g id="Org-listing" stroke="none" stroke-width="1" fill="none" fill-rule="evenodd">
        <g id="Desktop/Organisation" transform="translate(-268.000000, -30.000000)">
            <g id="Icon/Organisation" transform="translate(269.000000, 31.000000)">
                <rect id="Rectangle" stroke="#073F24" stroke-width="2" x="6.69767442" y="0" width="10.6046512" height="18" rx="0.372093023"></rect>
                <path d="M17.3023256,5.45454545 L21.8373319,5.45454545 C21.9775718,5.45454545 22.1058996,5.53339485 22.1692699,5.65850048 L23.7263544,8.73249625 C23.8192145,8.91582054 23.7458787,9.13971219 23.5625544,9.23257224 C23.5104379,9.25897106 23.4528376,9.27272727 23.3944164,9.27272727 L17.3023256,9.27272727 L17.3023256,9.27272727 L17.3023256,5.45454545 Z" id="Rectangle" stroke="#073F24" stroke-width="2"></path>
                <path d="M0,5.45454545 L4.53500636,5.45454545 C4.6752462,5.45454545 4.80357406,5.53339485 4.86694435,5.65850048 L6.42402884,8.73249625 C6.51688889,8.91582054 6.44355314,9.13971219 6.26022885,9.23257224 C6.20811231,9.25897106 6.15051201,9.27272727 6.09209085,9.27272727 L0,9.27272727 L0,9.27272727 L0,5.45454545 Z" id="Rectangle-Copy-4" stroke="#073F24" stroke-width="2" transform="translate(3.348837, 7.363636) scale(-1, 1) translate(-3.348837, -7.363636) "></path>
                <path d="M22.3893951,9.27272727 L22.3893951,16.7188161 C22.3893951,16.9243174 22.2228034,17.0909091 22.0173021,17.0909091 L17.3023256,17.0909091 L17.3023256,17.0909091" id="Path-2" stroke="#073F24" stroke-width="2"></path>
                <path d="M6.76148816,9.27272727 L6.76148816,16.7188161 C6.76148816,16.9243174 6.59489643,17.0909091 6.38939513,17.0909091 L1.6744186,17.0909091 L1.6744186,17.0909091" id="Path-2-Copy" stroke="#073F24" stroke-width="2" transform="translate(4.217953, 13.181818) scale(-1, 1) translate(-4.217953, -13.181818) "></path>
                <path d="M12,12.9090909 C13.0788818,12.9090909 13.9534884,13.7836974 13.9534884,14.8625793 L13.9534884,18 L13.9534884,18 L10.0465116,18 L10.0465116,14.8625793 C10.0465116,13.7836974 10.9211182,12.9090909 12,12.9090909 Z" id="Rectangle" stroke="#073F24" stroke-width="2"></path>
                <rect id="Rectangle" fill="#073F24" x="9.30232558" y="2.54545455" width="1.86046512" height="1.81818182"></rect>
                <rect id="Rectangle-Copy-7" fill="#073F24" x="9.30232558" y="6" width="1.86046512" height="1.81818182"></rect>
                <rect id="Rectangle-Copy-6" fill="#073F24" x="12.8372093" y="2.54545455" width="1.86046512" height="1.81818182"></rect>
                <rect id="Rectangle-Copy-8" fill="#073F24" x="12.8372093" y="6" width="1.86046512" height="1.81818182"></rect>
                <rect id="Rectangle-Copy-10" fill="#073F24" x="9.30232558" y="9.45454545" width="1.86046512" height="1.81818182"></rect>
                <rect id="Rectangle-Copy-9" fill="#073F24" x="12.8372093" y="9.45454545" width="1.86046512" height="1.81818182"></rect>
                <rect id="Rectangle-Copy-11" fill="#073F24" x="18.9767442" y="12" width="1.86046512" height="1.81818182"></rect>
                <rect id="Rectangle-Copy-12" fill="#073F24" x="3.34883721" y="12" width="1.86046512" height="1.81818182"></rect>
            </g>
        </g>
    </g>
</svg>