<svg xmlns="http://www.w3.org/2000/svg" width="16" height="18" viewBox="0 0 16 18" fill="none">
  <path
    d="M11.9103 6.67177C13.149 7.44407 13.7683 7.83021 13.9808 8.32467C14.1663 8.75638 14.1663 9.24517 13.9808 9.67697C13.7683 10.1713 13.149 10.5575 11.9103 11.3298L6.09227 14.9573C4.71743 15.8144 4.03001 16.2431 3.46274 16.1975C2.96826 16.1578 2.51499 15.9073 2.21921 15.51C1.87988 15.0543 1.87988 14.2456 1.87988 12.6283V5.37336C1.87988 3.75604 1.87988 2.94738 2.21921 2.49161C2.51499 2.09433 2.96826 1.84372 3.46274 1.80406C4.03001 1.75857 4.71743 2.18716 6.09227 3.04434L11.9103 6.67177Z"
    stroke="#119656" stroke-width="2" stroke-linejoin="round" />
</svg>
