<?xml version="1.0" encoding="UTF-8"?><svg width="18px" height="18px" viewBox="0 0 18 18" version="1.1" xmlns="http://www.w3.org/2000/svg" xmlns:xlink="http://www.w3.org/1999/xlink"> <title>Icon/Send/Unselected</title> <g id="Symbols" stroke="none" stroke-width="1" fill="none" fill-rule="evenodd"> <g id="Icon/Send/Unselected" fill="#FFFFFF"> <path d="M15,0 C16.6568542,-1.33185217e-15 18,1.34314575 18,3 L18,10 C18,11.6568542 16.6568542,13 15,13 L10.2314392,13 L7.32923726,16.1303878 C6.95375327,16.5353942 6.32104077,16.5593269 5.91603432,16.1838429 C5.71191754,15.994605 5.59590821,15.7288566 5.59590821,15.4505139 L5.59590821,13 L3,13 C1.34314575,13 -2.41183085e-16,11.6568542 0,10 L0,3 C2.41183085e-16,1.34314575 1.34314575,7.48448398e-16 3,0 L15,0 Z M12.0758578,3.5011736 L11.957544,3.51395565 L5.45777206,5.43091539 C5.15259069,5.6025969 5,5.84827165 5,6.16793965 C5,6.48760764 5.15259069,6.72051421 5.45777206,6.86665936 L5.45777206,6.86665936 L7.40709781,7.59145714 C7.55209619,7.65429651 7.66067463,7.73640092 7.73283312,7.83777038 C7.80499161,7.93913984 7.85913384,8.08562815 7.89525982,8.27723531 L7.89525982,8.27723531 L8.2125385,9.66236456 C8.26436598,10.0779707 8.45202746,10.3409573 8.77552293,10.4513243 C9.09901841,10.5616913 9.39056294,10.4843741 9.65015653,10.2193725 L9.65015653,10.2193725 L12.8885101,4.867181 C13.0510007,4.49694215 13.0358753,4.17636582 12.8431337,3.905452 C12.61515,3.58500267 12.3199535,3.45450389 11.957544,3.51395565 Z" id="Combined-Shape"></path> </g> </g></svg>