<svg width="55" height="55" viewBox="0 0 55 55" fill="none" xmlns="http://www.w3.org/2000/svg">
<circle cx="27.5" cy="27.5" r="27.5" fill="#119656"/>
<path d="M34.9421 11H20.4387C19.4769 11.0631 18.5767 11.538 17.9336 12.3215C17.2906 13.105 16.9567 14.1339 17.0045 15.1847V40.075C16.9567 41.1257 17.2906 42.1546 17.9336 42.9382C18.5767 43.7217 19.4769 44.1966 20.4387 44.2597H34.9421C35.904 44.1966 36.8042 43.7217 37.4472 42.9382C38.0902 42.1546 38.4241 41.1257 38.3764 40.075V15.1847C38.4241 14.1339 38.0902 13.105 37.4472 12.3215C36.8042 11.538 35.904 11.0631 34.9421 11ZM36.8432 40.075C36.89 40.6818 36.7172 41.2845 36.3618 41.7538C36.0065 42.2232 35.4968 42.5218 34.9421 42.5858H20.4387C19.884 42.5218 19.3744 42.2232 19.019 41.7538C18.6637 41.2845 18.4908 40.6818 18.5376 40.075V15.1847C18.4908 14.5779 18.6637 13.9752 19.019 13.5058C19.3744 13.0365 19.884 12.7378 20.4387 12.6739H22.7844V13.5275C22.7844 13.9715 22.9459 14.3972 23.2335 14.7111C23.521 15.025 23.9109 15.2014 24.3175 15.2014H31.0633C31.4699 15.2014 31.8599 15.025 32.1474 14.7111C32.4349 14.3972 32.5964 13.9715 32.5964 13.5275V12.6739H34.9421C35.4968 12.7378 36.0065 13.0365 36.3618 13.5058C36.7172 13.9752 36.89 14.5779 36.8432 15.1847V40.075Z" fill="white"/>
<path d="M24.623 39.2383H30.7555C30.9588 39.2383 31.1538 39.1501 31.2976 38.9932C31.4413 38.8362 31.5221 38.6234 31.5221 38.4014C31.5221 38.1794 31.4413 37.9665 31.2976 37.8096C31.1538 37.6526 30.9588 37.5645 30.7555 37.5645H24.623C24.4197 37.5645 24.2247 37.6526 24.081 37.8096C23.9372 37.9665 23.8564 38.1794 23.8564 38.4014C23.8564 38.6234 23.9372 38.8362 24.081 38.9932C24.2247 39.1501 24.4197 39.2383 24.623 39.2383Z" fill="white"/>
</svg>
