<svg xmlns="http://www.w3.org/2000/svg" width="17" height="15" viewBox="0 0 17 15" fill="none">
  <path d="M13.2725 9.66602C14.7787 9.66602 15.9997 10.9594 15.9997 12.5549V13.9993H14.6361" stroke="#999999"
    stroke-width="1.5" stroke-linecap="round" stroke-linejoin="round" />
  <path d="M11.2275 6.68757C12.4038 6.36683 13.273 5.23578 13.273 3.88967C13.273 2.54356 12.4038 1.41249 11.2275 1.0918"
    stroke="#999999" stroke-width="1.5" stroke-linecap="round" stroke-linejoin="round" />
  <path
    d="M6.45481 6.77778C7.96102 6.77778 9.18208 5.48438 9.18208 3.88889C9.18208 2.2934 7.96102 1 6.45481 1C4.94858 1 3.72754 2.2934 3.72754 3.88889C3.72754 5.48438 4.94858 6.77778 6.45481 6.77778Z"
    stroke="#999999" stroke-width="1.5" stroke-linecap="round" stroke-linejoin="round" />
  <path
    d="M9.18182 9.66602H3.72727C2.22104 9.66602 1 10.9594 1 12.5549V13.9993H11.9091V12.5549C11.9091 10.9594 10.688 9.66602 9.18182 9.66602Z"
    stroke="#999999" stroke-width="1.5" stroke-linecap="round" stroke-linejoin="round" />
</svg>
