<svg xmlns="http://www.w3.org/2000/svg" width="18" height="18" viewBox="0 0 18 18" fill="none">
  <path fill-rule="evenodd" clip-rule="evenodd"
    d="M2.25942 2.2595C2.23985 2.56719 2.22246 2.90749 2.20832 3.26736C2.14961 4.74381 2.15722 6.42792 2.31922 7.70107L10.2179 15.5998L15.5997 10.218L7.70098 2.3193C6.42893 2.1573 4.74373 2.14969 3.26728 2.2084C2.90741 2.22254 2.56819 2.24102 2.25942 2.2595ZM0.285021 0.285102C0.17956 0.385127 -0.24772 5.25046 0.201304 8.25446C0.249142 8.57411 0.40679 8.86331 0.635107 9.09163L9.06436 17.522C9.21581 17.6735 9.39564 17.7937 9.59357 17.8758C9.7915 17.9578 10.0037 18 10.2179 18C10.4322 18 10.6443 17.9578 10.8422 17.8758C11.0402 17.7937 11.22 17.6735 11.3715 17.522L17.5219 11.3715C17.6734 11.2201 17.7937 11.0403 17.8757 10.8423C17.9577 10.6444 17.9999 10.4322 17.9999 10.218C17.9999 10.0037 17.9577 9.79158 17.8757 9.59365C17.7937 9.39572 17.6734 9.2159 17.5219 9.06445L9.09154 0.635188C8.86642 0.404109 8.57289 0.251628 8.25438 0.200299C5.25038 -0.246551 0.385046 0.178554 0.285021 0.285102Z"
    fill="#073F24" />
  <path
    d="M6.86056 5.41448C6.96151 5.51549 7.04156 5.6354 7.09617 5.76736C7.15077 5.89931 7.17885 6.04073 7.1788 6.18353C7.17875 6.32634 7.15057 6.46774 7.09587 6.59965C7.04118 6.73157 6.96103 6.85142 6.86002 6.95236C6.75901 7.0533 6.6391 7.13336 6.50714 7.18796C6.37519 7.24257 6.23377 7.27064 6.09097 7.27059C5.94816 7.27054 5.80676 7.24237 5.67485 7.18767C5.54293 7.13297 5.42308 7.05283 5.32214 6.95182C5.11828 6.74781 5.0038 6.47117 5.00391 6.18276C5.00401 5.89436 5.11868 5.6178 5.32268 5.41394C5.52669 5.21007 5.80333 5.0956 6.09174 5.0957C6.38014 5.09581 6.6567 5.21047 6.86056 5.41448Z"
    fill="#073F24" />
</svg>
