<?xml version="1.0" encoding="UTF-8"?>
<svg width="18px" height="18px" viewBox="0 0 18 18" version="1.1" xmlns="http://www.w3.org/2000/svg" xmlns:xlink="http://www.w3.org/1999/xlink">
    <title>Icon/Upload</title>
    <g id="Symbols" stroke="none" stroke-width="1" fill="none" fill-rule="evenodd" stroke-linecap="round">
        <g id="Icon/Upload" stroke="#93A29B" stroke-width="2">
            <g id="Group" transform="translate(9.000000, 6.500000) rotate(90.000000) translate(-9.000000, -6.500000) translate(3.750000, 2.000000)">
                <path d="M-1.5,7.5 L2.2,2.56666667 C2.53137085,2.12483887 3.1581722,2.03529582 3.6,2.36666667 C3.67580567,2.42352092 3.74314575,2.490861 3.8,2.56666667 L7.5,7.5 L7.5,7.5" id="Triangle" transform="translate(3.000000, 4.500000) scale(1, -1) rotate(-90.000000) translate(-3.000000, -4.500000) "></path>
                <line x1="1.5" y1="4.5" x2="10.5" y2="4.5" id="Path-20"></line>
            </g>
            <path d="M1,11.0667994 L1,14.9692372 C1,16.0738067 1.8954305,16.9692372 3,16.9692372 L15,16.9692372 C16.1045695,16.9692372 17,16.0738067 17,14.9692372 L17,11.0667994 L17,11.0667994" id="Path-31"></path>
        </g>
    </g>
</svg>