<svg width="30" height="30" viewBox="0 0 30 30" fill="none" xmlns="http://www.w3.org/2000/svg">
<mask id="mask0_3958_1446" style="mask-type:alpha" maskUnits="userSpaceOnUse" x="0" y="0" width="30" height="30">
<rect width="30" height="30" fill="#119656"/>
</mask>
<g mask="url(#mask0_3958_1446)">
<path d="M13.9091 19H9C7.34545 19 5.93182 18.4094 4.75909 17.2281C3.58636 16.0469 3 14.6031 3 12.8969C3 11.4344 3.42727 10.1313 4.28182 8.9875C5.13636 7.84375 6.25455 7.1125 7.63636 6.79375C8.09091 5.06875 9 3.67188 10.3636 2.60313C11.7273 1.53438 13.2727 1 15 1C17.1273 1 18.9318 1.76406 20.4136 3.29219C21.8955 4.82031 22.6364 6.68125 22.6364 8.875C23.8909 9.025 24.9318 9.58281 25.7591 10.5484C26.5864 11.5141 27 12.6438 27 13.9375C27 15.3438 26.5227 16.5391 25.5682 17.5234C24.6136 18.5078 23.4545 19 22.0909 19H16.0909V10.9563L17.8364 12.7L19.3636 11.125L15 6.625L10.6364 11.125L12.1636 12.7L13.9091 10.9563V19Z" fill="#119656"/>
</g>
</svg>
