<svg xmlns="http://www.w3.org/2000/svg" width="20" height="20" viewBox="0 0 20 20" fill="none">
  <mask id="mask0_1136_15693" style="mask-type:alpha" maskUnits="userSpaceOnUse" x="0" y="0" width="20" height="20">
    <rect width="20" height="20" fill="#D9D9D9"/>
  </mask>
  <g mask="url(#mask0_1136_15693)">
    <path d="M9.16797 14.1673H5.83463C4.68186 14.1673 3.69922 13.7611 2.88672 12.9486C2.07422 12.1361 1.66797 11.1534 1.66797 10.0007C1.66797 8.84787 2.07422 7.86523 2.88672 7.05273C3.69922 6.24023 4.68186 5.83398 5.83463 5.83398H9.16797V7.50065H5.83463C5.14019 7.50065 4.54991 7.74371 4.0638 8.22982C3.57769 8.71593 3.33464 9.30621 3.33464 10.0007C3.33464 10.6951 3.57769 11.2854 4.0638 11.7715C4.54991 12.2576 5.14019 12.5006 5.83463 12.5006H9.16797V14.1673ZM6.66797 10.834V9.16732H13.3346V10.834H6.66797ZM10.8346 14.1673V12.5006H14.168C14.8624 12.5006 15.4527 12.2576 15.9388 11.7715C16.4249 11.2854 16.668 10.6951 16.668 10.0007C16.668 9.30621 16.4249 8.71593 15.9388 8.22982C15.4527 7.74371 14.8624 7.50065 14.168 7.50065H10.8346V5.83398H14.168C15.3207 5.83398 16.3034 6.24023 17.1159 7.05273C17.9284 7.86523 18.3346 8.84787 18.3346 10.0007C18.3346 11.1534 17.9284 12.1361 17.1159 12.9486C16.3034 13.7611 15.3207 14.1673 14.168 14.1673H10.8346Z" fill="#C1C1C1"/>
  </g>
</svg>
