<svg xmlns="http://www.w3.org/2000/svg" width="34" height="34" viewBox="0 0 34 34" fill="none">
  <circle cx="17" cy="17" r="17" fill="#CCE6D0" />
  <path
    d="M6.68313 26.341C8.2817 25.2138 9.91714 24.335 11.5895 23.7045C13.2618 23.074 15.0653 22.7588 17 22.7588C18.9347 22.7588 20.7411 23.074 22.4192 23.7045C24.0973 24.335 25.7356 25.2138 27.3341 26.341C28.4994 25.0116 29.3824 23.5689 29.983 22.0129C30.5837 20.4569 30.884 18.7859 30.884 17C30.884 13.1069 29.5433 9.8196 26.8618 7.13816C24.1804 4.45672 20.8931 3.11601 17 3.11601C13.1069 3.11601 9.8196 4.45672 7.13816 7.13816C4.45672 9.8196 3.11601 13.1069 3.11601 17C3.11601 18.7859 3.41921 20.4569 4.02561 22.0129C4.63201 23.5689 5.51785 25.0116 6.68313 26.341ZM16.9941 18.058C15.4722 18.058 14.1908 17.5356 13.1501 16.4909C12.1093 15.4463 11.589 14.163 11.589 12.641C11.589 11.1191 12.1113 9.83779 13.156 8.79703C14.2007 7.75627 15.484 7.23589 17.0059 7.23589C18.5278 7.23589 19.8092 7.75825 20.8499 8.80297C21.8907 9.84766 22.411 11.131 22.411 12.6529C22.411 14.1748 21.8887 15.4561 20.844 16.4969C19.7993 17.5376 18.516 18.058 16.9941 18.058ZM17.0131 33C14.794 33 12.7122 32.5822 10.7677 31.7465C8.82325 30.9109 7.12699 29.7683 5.67896 28.3187C4.23093 26.8692 3.0891 25.1751 2.25348 23.2365C1.41783 21.2979 1 19.2184 1 16.9979C1 14.7774 1.41783 12.6986 2.25348 10.7614C3.0891 8.8242 4.2317 7.13083 5.68128 5.68128C7.13082 4.2317 8.82489 3.0891 10.7635 2.25348C12.7021 1.41783 14.7816 1 17.0021 1C19.2226 1 21.3014 1.41783 23.2386 2.25348C25.1758 3.0891 26.8692 4.2317 28.3187 5.68128C29.7683 7.13083 30.9109 8.8245 31.7465 10.7623C32.5822 12.7001 33 14.775 33 16.9869C33 19.206 32.5822 21.2878 31.7465 23.2323C30.9109 25.1768 29.7683 26.873 28.3187 28.321C26.8692 29.7691 25.1755 30.9109 23.2377 31.7465C21.2999 32.5822 19.225 33 17.0131 33ZM17 30.884C18.5503 30.884 20.0681 30.6366 21.5533 30.1417C23.0385 29.6469 24.412 28.8823 25.6737 27.8481C24.412 26.9066 23.0501 26.1757 21.5879 25.6553C20.1257 25.1349 18.5964 24.8748 17 24.8748C15.4036 24.8748 13.8716 25.1322 12.404 25.6472C10.9364 26.1622 9.58078 26.8958 8.33707 27.8481C9.59159 28.8823 10.9615 29.6469 12.4467 30.1417C13.9319 30.6366 15.4497 30.884 17 30.884ZM17.0015 15.942C17.952 15.942 18.7386 15.6302 19.3611 15.0066C19.9837 14.383 20.295 13.596 20.295 12.6455C20.295 11.6949 19.9832 10.9084 19.3597 10.2858C18.7361 9.6632 17.949 9.3519 16.9985 9.3519C16.048 9.3519 15.2614 9.6637 14.6389 10.2873C14.0163 10.9109 13.705 11.6979 13.705 12.6485C13.705 13.599 14.0167 14.3855 14.6403 15.0081C15.2639 15.6307 16.051 15.942 17.0015 15.942Z"
    fill="#073F24" />
</svg>
