<svg width="18" height="18" viewBox="0 0 18 18" fill="none" xmlns="http://www.w3.org/2000/svg">
<path fill-rule="evenodd" clip-rule="evenodd" d="M7.20237 2.23136C7.93281 0.733584 10.0672 0.733579 10.7976 2.23136L16.5971 14.1233C17.245 15.4519 16.2776 17 14.7995 17H3.20052C1.7224 17 0.754985 15.4519 1.4029 14.1233L7.20237 2.23136Z" fill="#DD1F1F" stroke="#DD1F1F" stroke-width="2"/>
<path fill-rule="evenodd" clip-rule="evenodd" d="M9.76037 11.6198C9.74768 12.0404 9.40306 12.3748 8.98227 12.3748C8.56148 12.3748 8.21686 12.0404 8.20416 11.6198L8.07778 7.4322C8.06238 6.92197 8.47181 6.5 8.98227 6.5C9.49273 6.5 9.90216 6.92197 9.88676 7.4322L9.76037 11.6198ZM9.7305 14.6277C9.55083 14.805 9.30733 14.8936 9 14.8936C8.69267 14.8936 8.44917 14.805 8.2695 14.6277C8.08983 14.4504 8 14.2246 8 13.9504C8 13.6761 8.08983 13.4492 8.2695 13.2695C8.44917 13.0898 8.69267 13 9 13C9.3026 13 9.54492 13.0898 9.72695 13.2695C9.90898 13.4492 10 13.6761 10 13.9504C10 14.2246 9.91017 14.4504 9.7305 14.6277Z" fill="white"/>
</svg>
