<?xml version="1.0" encoding="UTF-8"?>
<svg width="18px" height="18px" viewBox="0 0 18 18" version="1.1" xmlns="http://www.w3.org/2000/svg" xmlns:xlink="http://www.w3.org/1999/xlink">
    <title>Icon/Alert/White</title>
    <g id="Symbols" stroke="none" stroke-width="1" fill="none" fill-rule="evenodd">
        <g id="Icon/Alert/White">
            <path d="M10.7976248,2.23137311 L16.5971048,14.123333 C17.0812747,15.1161337 16.6689478,16.313455 15.6761471,16.7976248 C15.4030878,16.9307905 15.10328,17 14.79948,17 L3.20051997,17 C2.09595047,17 1.20051997,16.1045695 1.20051997,15 C1.20051997,14.6962 1.26972944,14.3963922 1.40289517,14.123333 L7.2023752,2.23137311 C7.68654503,1.23857235 8.88386627,0.82624551 9.87666703,1.31041534 C10.2778109,1.50604549 10.6019946,1.83022923 10.7976248,2.23137311 Z" id="Triangle" stroke="#FFFFFF" stroke-width="2"></path>
            <path d="M9.76037417,11.6198487 L9.88675939,7.43219966 C9.90183562,6.93266369 9.50910341,6.51548807 9.00956744,6.50041184 C9.00047071,6.5001373 8.99137037,6.5 8.9822695,6.5 C8.48250608,6.5 8.07736778,6.9051383 8.07736778,7.40490173 C8.07736778,7.41400259 8.07750507,7.42310294 8.07777962,7.43219966 L8.20416484,11.6198487 C8.21685861,12.0404443 8.56148239,12.3748241 8.9822695,12.3748241 C9.40305661,12.3748241 9.74768039,12.0404443 9.76037417,11.6198487 Z M9,14.893617 C9.30732861,14.893617 9.55082742,14.8049645 9.73049645,14.6276596 C9.91016548,14.4503546 10,14.2245863 10,13.9503546 C10,13.6761229 9.90898345,13.4491726 9.72695035,13.2695035 C9.54491726,13.0898345 9.30260047,13 9,13 C8.69267139,13 8.44917258,13.0898345 8.26950355,13.2695035 C8.08983452,13.4491726 8,13.6761229 8,13.9503546 C8,14.2245863 8.08983452,14.4503546 8.26950355,14.6276596 C8.44917258,14.8049645 8.69267139,14.893617 9,14.893617 Z" id="!" fill="#FFFFFF" fill-rule="nonzero"></path>
        </g>
    </g>
</svg>