<?xml version="1.0" encoding="UTF-8"?>
<svg width="18px" height="18px" viewBox="0 0 18 18" version="1.1" xmlns="http://www.w3.org/2000/svg" xmlns:xlink="http://www.w3.org/1999/xlink">
    <title>Icon/Collections/Unselected</title>
    <g id="Symbols" stroke="none" stroke-width="1" fill="none" fill-rule="evenodd">
        <g id="Icon/Collections/Unselected" stroke="#93A29B" stroke-width="2">
            <g id="Group-6">
                <path d="M15,1 L6.42857143,1 C5.87628668,1 5.37628668,1.22385763 5.01435787,1.58578644 C4.65242905,1.94771525 4.42857143,2.44771525 4.42857143,3 L4.42857143,6.42857143 C4.42857143,6.98085618 4.65242905,7.48085618 5.01435787,7.84278499 C5.37628668,8.2047138 5.87628668,8.42857143 6.42857143,8.42857143 L10.3190179,8.42857143 L13.7641508,11.4851893 L14.1261878,8.24277407 C15.0067646,8.62088838 15.8678255,8.38917308 16.4142136,7.84278499 C16.7761424,7.48085618 17,6.98085618 17,6.42857143 L17,3 C17,2.44771525 16.7761424,1.94771525 16.4142136,1.58578644 C16.0522847,1.22385763 15.5522847,1 15,1 Z" id="Rectangle-Copy-5"></path>
                <path d="M12.571429,5.42857143 L3,5.42857143 C2.44771525,5.42857143 1.94771525,5.65242905 1.58578644,6.01435787 C1.22385763,6.37628668 1,6.87628668 1,7.42857143 L1,11.504202 C1,12.0564867 1.22385763,12.5564867 1.58578644,12.9184155 C1.94771525,13.2803443 2.44771525,13.504202 3,13.504202 L7.33726476,13.504202 L11.1039744,16.8461317 L11.7746063,13.3499391 C12.628152,13.6827352 13.45519,13.4488681 13.9856426,12.9184155 C14.3475714,12.5564867 14.571429,12.0564867 14.571429,11.504202 L14.571429,7.42857143 C14.571429,6.87628668 14.3475714,6.37628668 13.9856426,6.01435787 C13.6237137,5.65242905 13.1237137,5.42857143 12.571429,5.42857143 Z" id="Rectangle" fill="#FFFFFF"></path>
            </g>
        </g>
    </g>
</svg>