<?xml version="1.0" encoding="UTF-8"?>
<svg width="18px" height="18px" viewBox="0 0 18 18" version="1.1" xmlns="http://www.w3.org/2000/svg" xmlns:xlink="http://www.w3.org/1999/xlink">
    <!-- Generator: Sketch 61.2 (89653) - https://sketch.com -->
    <title>Icon/Configure/Unselected</title>
    <desc>Created with Sketch.</desc>
    <g id="Icon/Configure/Unselected" stroke="none" stroke-width="1" fill="none" fill-rule="evenodd">
        <g id="Group-3" transform="translate(1.000000, 1.000000)" fill="#93A29B">
            <path d="M8.97622393,0 C9.43788858,-2.26232742e-15 9.81214173,0.374253149 9.81214173,0.835917805 L9.81214173,0.991050405 C9.81214173,1.40182905 10.0633483,1.77082443 10.4455254,1.92142261 L10.7300315,2.03353325 C11.1004438,2.17949546 11.5221527,2.09182469 11.8036981,1.81032444 L11.9349279,1.67911558 C12.2672914,1.34680536 12.8026859,1.33603466 13.1481454,1.65470891 L14.3410725,2.75514226 C14.7025311,3.08857509 14.7252505,3.65189586 14.3918176,4.01335442 C14.3850016,4.02074333 14.378061,4.02801627 14.3709987,4.03517013 L14.1404316,4.26872659 C13.8836145,4.52887337 13.7892129,4.90842289 13.8942382,5.25856719 L13.9825925,5.55313175 C14.1094727,5.97613837 14.4988066,6.26582896 14.9404323,6.26582896 L15.0981825,6.26582896 C15.5962426,6.26582896 16,6.6695864 16,7.16764643 L16,8.87687934 C16,9.28826624 15.666505,9.62176121 15.2551181,9.62176121 L15.1384836,9.62176121 C14.7544057,9.62176121 14.4042654,9.84173595 14.2375734,10.1877556 L14.0086497,10.6629562 C13.8357593,11.0218426 13.8923679,11.4491138 14.1527499,11.7505966 L14.389186,12.0243538 C14.740379,12.430982 14.7074812,13.0424493 14.3146875,13.4090501 L13.1702763,14.4771478 C12.8181346,14.8058075 12.2662359,14.7867715 11.9375763,14.4346297 L11.9349279,14.4317794 L11.7770653,14.2611178 C11.510895,13.9733675 11.1011507,13.867659 10.7289942,13.9907296 L10.4981686,14.0670626 C10.0886739,14.2024808 9.81214173,14.5851895 9.81214173,15.0164945 L9.81214173,15.1469644 C9.81214173,15.618083 9.43022469,16 8.95910615,16 L7.02410973,16 C6.62976325,16 6.31008226,15.680319 6.31008226,15.2859725 L6.31008226,15.1683403 C6.31008226,14.8009333 6.10860883,14.4631146 5.78534874,14.2884984 L5.52700447,14.1489479 C5.13260492,13.9359041 4.64461918,14.0113455 4.33296667,14.3335432 L4.23794566,14.4317794 C3.91919196,14.7613186 3.3936467,14.770062 3.06410748,14.4513083 C3.04921365,14.436902 3.03486444,14.421943 3.02109001,14.4064629 L1.8231131,13.0601408 C1.51262802,12.7112084 1.52487453,12.1815752 1.85115563,11.8473665 L1.93886863,11.7575224 C2.23371875,11.4555084 2.30719781,11.0008876 2.12250238,10.621366 L1.90974155,10.1841742 C1.74230244,9.84011181 1.39320733,9.62176121 1.01056546,9.62176121 L0.818020705,9.62176121 C0.366240344,9.62176121 2.16475088e-15,9.25552087 0,8.80374051 L0,7.08384967 C-2.09177083e-16,6.63206931 0.366240344,6.26582896 0.818020705,6.26582896 L1.02037842,6.26582896 C1.39791339,6.26582896 1.74326648,6.05320784 1.91326417,5.71611226 L2.12537341,5.2955119 C2.30958108,4.93023874 2.25272583,4.48960094 1.98183296,4.18304915 L1.85115563,4.03517013 C1.52656185,3.66784852 1.54667324,3.11061384 1.89690233,2.76764755 L3.00094676,1.686498 C3.3437847,1.35076959 3.89112503,1.34750306 4.23794566,1.67911558 L4.38826716,1.82284547 C4.67493771,2.0969455 5.09650908,2.17571635 5.46281372,2.02362511 L5.69354652,1.92782387 C6.06680578,1.77284504 6.31008226,1.40842272 6.31008226,1.00426816 L6.31008226,0.835917805 C6.31008226,0.374253149 6.68433541,1.63911866e-15 7.14600006,0 L8.97622393,0 Z M8,4.44444444 C6.03632089,4.44444444 4.44444444,6.03632089 4.44444444,8 C4.44444444,9.96367911 6.03632089,11.5555556 8,11.5555556 C9.96367911,11.5555556 11.5555556,9.96367911 11.5555556,8 C11.5555556,6.03632089 9.96367911,4.44444444 8,4.44444444 Z" id="Combined-Shape"></path>
        </g>
    </g>
</svg>
