<svg xmlns="http://www.w3.org/2000/svg" width="18" height="18" viewBox="0 0 16 16" fill="none">
  <g clip-path="url(#clip0_612_4257)">
    <path
      d="M8 9.875C9.03553 9.875 9.875 9.03553 9.875 8C9.875 6.96447 9.03553 6.125 8 6.125C6.96447 6.125 6.125 6.96447 6.125 8C6.125 9.03553 6.96447 9.875 8 9.875Z"
      stroke="#073F24" stroke-width="1.5" stroke-linecap="round" stroke-linejoin="round" />
    <path
      d="M12.625 9.875C12.5418 10.0635 12.517 10.2726 12.5537 10.4754C12.5905 10.6781 12.6872 10.8652 12.8312 11.0125L12.8688 11.05C12.985 11.1661 13.0772 11.304 13.1401 11.4557C13.203 11.6074 13.2354 11.7701 13.2354 11.9344C13.2354 12.0986 13.203 12.2613 13.1401 12.4131C13.0772 12.5648 12.985 12.7027 12.8688 12.8187C12.7527 12.935 12.6148 13.0272 12.4631 13.0901C12.3113 13.153 12.1486 13.1854 11.9844 13.1854C11.8201 13.1854 11.6574 13.153 11.5057 13.0901C11.354 13.0272 11.2161 12.935 11.1 12.8187L11.0625 12.7812C10.9152 12.6372 10.7281 12.5405 10.5254 12.5037C10.3226 12.467 10.1135 12.4918 9.925 12.575C9.74014 12.6542 9.58249 12.7858 9.47144 12.9535C9.36039 13.1211 9.3008 13.3176 9.3 13.5187V13.625C9.3 13.9565 9.1683 14.2745 8.93388 14.5089C8.69946 14.7433 8.38152 14.875 8.05 14.875C7.71848 14.875 7.40054 14.7433 7.16612 14.5089C6.9317 14.2745 6.8 13.9565 6.8 13.625V13.5687C6.79516 13.3619 6.7282 13.1612 6.60782 12.9929C6.48744 12.8246 6.31921 12.6964 6.125 12.625C5.93649 12.5418 5.72738 12.517 5.52463 12.5537C5.32189 12.5905 5.1348 12.6872 4.9875 12.8312L4.95 12.8688C4.83391 12.985 4.69605 13.0772 4.5443 13.1401C4.39255 13.203 4.22989 13.2354 4.06562 13.2354C3.90136 13.2354 3.7387 13.203 3.58695 13.1401C3.4352 13.0772 3.29734 12.985 3.18125 12.8688C3.06503 12.7527 2.97283 12.6148 2.90993 12.4631C2.84702 12.3113 2.81464 12.1486 2.81464 11.9844C2.81464 11.8201 2.84702 11.6574 2.90993 11.5057C2.97283 11.354 3.06503 11.2161 3.18125 11.1L3.21875 11.0625C3.36284 10.9152 3.45949 10.7281 3.49625 10.5254C3.53301 10.3226 3.5082 10.1135 3.425 9.925C3.34577 9.74014 3.21422 9.58249 3.04654 9.47144C2.87886 9.36039 2.68237 9.3008 2.48125 9.3H2.375C2.04348 9.3 1.72554 9.1683 1.49112 8.93388C1.2567 8.69946 1.125 8.38152 1.125 8.05C1.125 7.71848 1.2567 7.40054 1.49112 7.16612C1.72554 6.9317 2.04348 6.8 2.375 6.8H2.43125C2.63812 6.79516 2.83875 6.7282 3.00706 6.60782C3.17537 6.48744 3.30357 6.31921 3.375 6.125C3.4582 5.93649 3.48301 5.72738 3.44625 5.52463C3.40949 5.32189 3.31284 5.1348 3.16875 4.9875L3.13125 4.95C3.01503 4.83391 2.92283 4.69605 2.85993 4.5443C2.79702 4.39255 2.76464 4.22989 2.76464 4.06562C2.76464 3.90136 2.79702 3.7387 2.85993 3.58695C2.92283 3.4352 3.01503 3.29734 3.13125 3.18125C3.24734 3.06503 3.3852 2.97283 3.53695 2.90993C3.6887 2.84702 3.85136 2.81464 4.01562 2.81464C4.17989 2.81464 4.34255 2.84702 4.4943 2.90993C4.64605 2.97283 4.78391 3.06503 4.9 3.18125L4.9375 3.21875C5.0848 3.36284 5.27188 3.45949 5.47463 3.49625C5.67738 3.53301 5.88649 3.5082 6.075 3.425H6.125C6.30986 3.34577 6.46751 3.21422 6.57856 3.04654C6.68961 2.87886 6.7492 2.68237 6.75 2.48125V2.375C6.75 2.04348 6.8817 1.72554 7.11612 1.49112C7.35054 1.2567 7.66848 1.125 8 1.125C8.33152 1.125 8.64946 1.2567 8.88388 1.49112C9.1183 1.72554 9.25 2.04348 9.25 2.375V2.43125C9.2508 2.63237 9.31039 2.82886 9.42144 2.99654C9.53249 3.16422 9.69014 3.29577 9.875 3.375C10.0635 3.4582 10.2726 3.48301 10.4754 3.44625C10.6781 3.40949 10.8652 3.31284 11.0125 3.16875L11.05 3.13125C11.1661 3.01503 11.304 2.92283 11.4557 2.85993C11.6074 2.79702 11.7701 2.76464 11.9344 2.76464C12.0986 2.76464 12.2613 2.79702 12.4131 2.85993C12.5648 2.92283 12.7027 3.01503 12.8187 3.13125C12.935 3.24734 13.0272 3.3852 13.0901 3.53695C13.153 3.6887 13.1854 3.85136 13.1854 4.01562C13.1854 4.17989 13.153 4.34255 13.0901 4.4943C13.0272 4.64605 12.935 4.78391 12.8187 4.9L12.7812 4.9375C12.6372 5.0848 12.5405 5.27188 12.5037 5.47463C12.467 5.67738 12.4918 5.88649 12.575 6.075V6.125C12.6542 6.30986 12.7858 6.46751 12.9535 6.57856C13.1211 6.68961 13.3176 6.7492 13.5187 6.75H13.625C13.9565 6.75 14.2745 6.8817 14.5089 7.11612C14.7433 7.35054 14.875 7.66848 14.875 8C14.875 8.33152 14.7433 8.64946 14.5089 8.88388C14.2745 9.1183 13.9565 9.25 13.625 9.25H13.5687C13.3676 9.2508 13.1711 9.31039 13.0035 9.42144C12.8358 9.53249 12.7042 9.69014 12.625 9.875Z"
      stroke="#073F24" stroke-width="1.5" stroke-linecap="round" stroke-linejoin="round" />
  </g>
  <defs>
    <clipPath id="clip0_612_4257">
      <rect width="15" height="15" fill="white" transform="translate(0.5 0.5)" />
    </clipPath>
  </defs>
</svg>
