<svg width="18" height="18" viewBox="0 0 18 18" fill="none" xmlns="http://www.w3.org/2000/svg">
<mask id="path-1-inside-1_1123_2851" fill="white">
<path fill-rule="evenodd" clip-rule="evenodd" d="M11.1259 4.28394H3C1.34315 4.28394 0 5.62708 0 7.28393V10.9961C0 12.6529 1.34315 13.9961 3 13.9961H6.81577L11.0791 16.8783C11.7432 17.3273 12.6392 16.8515 12.6392 16.0499V15.9961V13.9961C14.2192 13.9961 15.5 12.7152 15.5 11.1352V7.28394C15.5 6.62431 15.2871 6.0144 14.9263 5.51918C14.729 6.22195 14.1547 6.76786 13.4343 6.92678C13.4768 7.0377 13.5 7.1581 13.5 7.28394V11.1352C13.5 11.6107 13.1146 11.9961 12.6392 11.9961H10.6392V13.9961V14.1667L7.93592 12.3392L7.42839 11.9961H6.81577H3C2.44772 11.9961 2 11.5484 2 10.9961V7.28393C2 6.73165 2.44771 6.28394 3 6.28394H11.4865C11.1834 5.93464 11 5.47932 11 4.98133C11 4.73598 11.0445 4.50099 11.1259 4.28394Z"/>
</mask>
<path d="M11.1259 4.28394L12.9985 4.9863L14.0121 2.28394H11.1259V4.28394ZM6.81577 13.9961L7.93592 12.3392L7.42839 11.9961H6.81577V13.9961ZM11.0791 16.8783L9.95893 18.5352V18.5352L11.0791 16.8783ZM12.6392 13.9961V11.9961H10.6392V13.9961H12.6392ZM14.9263 5.51918L16.5427 4.34143L14.115 1.00933L13.0007 4.97864L14.9263 5.51918ZM13.4343 6.92678L13.0035 4.97375L10.7372 5.4737L11.5663 7.64127L13.4343 6.92678ZM10.6392 11.9961V9.99609H8.63915V11.9961H10.6392ZM10.6392 14.1667L9.51901 15.8236L12.6392 17.933V14.1667H10.6392ZM7.93592 12.3392L6.81577 13.9961L6.81577 13.9961L7.93592 12.3392ZM7.42839 11.9961L8.54854 10.3392L8.04102 9.99609H7.42839V11.9961ZM11.4865 6.28394V8.28394H15.8704L12.997 4.97305L11.4865 6.28394ZM11.1259 2.28394H3V6.28394H11.1259V2.28394ZM3 2.28394C0.238578 2.28394 -2 4.52251 -2 7.28393H2C2 6.73165 2.44771 6.28394 3 6.28394V2.28394ZM-2 7.28393V10.9961H2V7.28393H-2ZM-2 10.9961C-2 13.7575 0.238582 15.9961 3 15.9961V11.9961C2.44772 11.9961 2 11.5484 2 10.9961H-2ZM3 15.9961H6.81577V11.9961H3V15.9961ZM5.69563 15.653L9.95893 18.5352L12.1992 15.2214L7.93592 12.3392L5.69563 15.653ZM9.95893 18.5352C11.9513 19.8821 14.6392 18.4548 14.6392 16.0499H10.6392C10.6392 15.2482 11.5351 14.7725 12.1992 15.2214L9.95893 18.5352ZM14.6392 16.0499V15.9961H10.6392V16.0499H14.6392ZM14.6392 15.9961V13.9961H10.6392V15.9961H14.6392ZM12.6392 15.9961C15.3237 15.9961 17.5 13.8198 17.5 11.1352H13.5C13.5 11.6107 13.1146 11.9961 12.6392 11.9961V15.9961ZM17.5 11.1352V7.28394H13.5V11.1352H17.5ZM17.5 7.28394C17.5 6.187 17.1444 5.16725 16.5427 4.34143L13.3098 6.69693C13.4298 6.86156 13.5 7.06161 13.5 7.28394H17.5ZM13.0007 4.97864C13.0024 4.97263 13.0044 4.97178 13.0025 4.97361C13.0008 4.9752 13.0009 4.97431 13.0035 4.97375L13.8652 8.87982C15.3069 8.56176 16.4553 7.47236 16.8519 6.05972L13.0007 4.97864ZM11.5663 7.64127C11.5229 7.52769 11.5 7.40616 11.5 7.28394H15.5C15.5 6.91004 15.4306 6.54771 15.3024 6.21229L11.5663 7.64127ZM11.5 7.28394V11.1352H15.5V7.28394H11.5ZM11.5 11.1352C11.5 10.5061 12.01 9.99609 12.6392 9.99609V13.9961C14.2192 13.9961 15.5 12.7152 15.5 11.1352H11.5ZM12.6392 9.99609H10.6392V13.9961H12.6392V9.99609ZM8.63915 11.9961V13.9961H12.6392V11.9961H8.63915ZM8.63915 13.9961V14.1667H12.6392V13.9961H8.63915ZM11.7593 12.5098L9.05606 10.6823L6.81577 13.9961L9.51901 15.8236L11.7593 12.5098ZM9.05606 10.6823L8.54854 10.3392L6.30825 13.653L6.81577 13.9961L9.05606 10.6823ZM7.42839 9.99609H6.81577V13.9961H7.42839V9.99609ZM6.81577 9.99609H3V13.9961H6.81577V9.99609ZM3 9.99609C3.55228 9.99609 4 10.4438 4 10.9961H0C0 12.6529 1.34315 13.9961 3 13.9961V9.99609ZM4 10.9961V7.28393H0V10.9961H4ZM4 7.28393C4 7.83622 3.55228 8.28394 3 8.28394V4.28394C1.34315 4.28394 0 5.62708 0 7.28393H4ZM3 8.28394H11.4865V4.28394H3V8.28394ZM12.997 4.97305C12.9964 4.97236 12.9973 4.97317 12.9985 4.97623C12.9991 4.9778 12.9995 4.97947 12.9998 4.98096C13.0001 4.98254 13 4.98283 13 4.98133H9C9 5.97983 9.36977 6.89627 9.97602 7.59483L12.997 4.97305ZM13 4.98133C13 4.97985 13.0001 4.98012 12.9998 4.98164C12.9996 4.9831 12.9991 4.98473 12.9985 4.9863L9.25331 3.58157C9.08897 4.01971 9 4.4924 9 4.98133H13Z" fill="#999999" mask="url(#path-1-inside-1_1123_2851)"/>
<path fill-rule="evenodd" clip-rule="evenodd" d="M11.9438 0.623914C11.9438 0.876371 11.7917 1.10395 11.5584 1.20045L11.4373 1.25053C11.1942 1.35108 10.9147 1.29893 10.7242 1.11749C10.4651 0.870634 10.0571 0.873069 9.80091 1.123L9.25091 1.6596C8.99566 1.90863 8.98102 2.31423 9.21764 2.58101C9.39952 2.78606 9.43768 3.08141 9.3139 3.32596L9.19831 3.5543C9.09049 3.76732 8.87203 3.90159 8.63329 3.90159C8.28353 3.90159 8 4.18512 8 4.53487V5.36179C8 5.70943 8.28182 5.99125 8.62946 5.99125C8.86998 5.99125 9.08948 6.12831 9.19505 6.34443L9.32371 6.60783C9.44078 6.8475 9.39427 7.13492 9.20758 7.32544C8.97538 7.56239 8.96667 7.9388 9.18767 8.18624L9.8234 8.89804C10.0593 9.16216 10.4697 9.1707 10.7164 8.91662C10.9064 8.72091 11.2032 8.67507 11.4434 8.80434L11.6509 8.91601C11.8313 9.01307 11.9438 9.20135 11.9438 9.40618C11.9438 9.71361 12.193 9.96283 12.5004 9.96283H13.5162C13.8566 9.96283 14.1326 9.68685 14.1326 9.34642C14.1326 9.0803 14.3034 8.84423 14.5561 8.76096L14.6821 8.71947C14.9291 8.63806 15.201 8.70809 15.378 8.89873C15.6282 9.16822 16.0496 9.18369 16.3189 8.93328L16.8486 8.4407C17.1486 8.16179 17.1737 7.6954 16.9054 7.38591C16.7064 7.15637 16.6631 6.83042 16.7954 6.55693L16.9127 6.31436C17.0082 6.11678 17.2083 5.99125 17.4278 5.99125C17.7438 5.99125 18 5.73506 18 5.41905V4.54823C18 4.1911 17.7105 3.90159 17.3534 3.90159C17.068 3.90159 16.8164 3.71458 16.7342 3.44136L16.6981 3.32157C16.6237 3.07457 16.6905 2.80667 16.8721 2.62343C17.1529 2.34002 17.1421 1.88004 16.8484 1.61006L16.2903 1.09721C16.0335 0.861179 15.6364 0.869166 15.3893 1.11533C15.2059 1.29795 14.9319 1.35483 14.6911 1.26027L14.5254 1.19522C14.2884 1.1022 14.1326 0.873586 14.1326 0.619019C14.1326 0.277144 13.8554 0 13.5136 0H12.5677C12.2231 0 11.9438 0.279336 11.9438 0.623914ZM13 6.97398C14.1046 6.97398 15 6.08188 15 4.98141C15 3.88095 14.1046 2.98885 13 2.98885C11.8954 2.98885 11 3.88095 11 4.98141C11 6.08188 11.8954 6.97398 13 6.97398Z" fill="#999999"/>
</svg>
