<?xml version="1.0" encoding="UTF-8"?>
<svg width="20px" height="18px" viewBox="0 0 20 18" version="1.1" xmlns="http://www.w3.org/2000/svg" xmlns:xlink="http://www.w3.org/1999/xlink">
    <title>Icon/Duplicate Copy 7</title>
    <g id="Flows" stroke="none" stroke-width="1" fill="none" fill-rule="evenodd" stroke-linecap="round">
        <g id="Desktop/Flows" transform="translate(-1179.000000, -386.000000)" stroke="#073F24" stroke-width="2">
            <g id="Group" transform="translate(1180.000000, 386.000000)">
                <path d="M13.9697904,1 L14.0170012,1 C15.6738555,1 17.0170012,2.34314575 17.0170012,4 L17.0170012,10 C17.0170012,11.6568542 15.6738555,13 14.0170012,13 L12.2484404,13 L12.2484404,13 L12.2484404,15.7759202 C12.2484404,16.3282049 11.8007251,16.7759202 11.2484404,16.7759202 C11.0038462,16.7759202 10.7677337,16.6862758 10.5847709,16.5239461 L6.61290944,13 L6.61290944,13 L3.99429466,13 C2.33744041,13 0.994294662,11.6568542 0.994294662,10 L0.994294662,10 L0.994294662,10 L0.994294662,3.98924101 C0.994294662,2.33832878 2.33262345,1 3.98353567,1 L3.98353567,1 L3.98353567,1" id="Chat/Icon" transform="translate(9.005648, 9.500000) scale(-1, 1) translate(-9.005648, -9.500000) "></path>
                <g id="Icon/Forward" transform="translate(9.000000, 5.000000) scale(1, -1) rotate(-90.000000) translate(-9.000000, -5.000000) translate(5.000000, 2.000000)">
                    <path d="M3.28571429,4.71428571 L5.81983347,1.8181495 C6.04496998,1.56085063 6.43606113,1.53477789 6.69336,1.7599144 C6.71404285,1.7780119 6.7334976,1.79746664 6.7515951,1.8181495 L9.28571429,4.71428571 L9.28571429,4.71428571" id="Triangle" transform="translate(6.285714, 3.000000) scale(-1, -1) rotate(-90.000000) translate(-6.285714, -3.000000) "></path>
                    <line x1="1.58603289e-15" y1="3" x2="7.14285714" y2="3" id="Path-20"></line>
                </g>
            </g>
        </g>
    </g>
</svg>