<?xml version="1.0" encoding="UTF-8"?>
<svg width="18px" height="18px" viewBox="0 0 18 18" version="1.1" xmlns="http://www.w3.org/2000/svg"
  xmlns:xlink="http://www.w3.org/1999/xlink">
  <title>Flow</title>
  <g id="Symbols" stroke="none" stroke-width="1" fill="none" fill-rule="evenodd">
    <g id="Icon/Flow/Unselected">
      <g id="Group-4">
        <path
          d="M12.5,5.3 L3,5.3 C2.44771525,5.3 1.94771525,5.52385763 1.58578644,5.88578644 C1.22385763,6.24771525 1,6.74771525 1,7.3 L1,11.0483871 C1,11.6006718 1.22385763,12.1006718 1.58578644,12.4626007 C1.94771525,12.8245295 2.44771525,13.0483871 3,13.0483871 L7.12302909,13.0483871 L11.6360322,16.110807 L11.8965584,12.903532 C12.712719,13.2235632 13.5018849,12.9850951 13.9934614,12.4637183 C14.3075603,12.130578 14.5,11.6815216 14.5,11.1875409 L14.5,7.3 C14.5,6.74771525 14.2761424,6.24771525 13.9142136,5.88578644 C13.5522847,5.52385763 13.0522847,5.3 12.5,5.3 Z"
          id="Rectangle" stroke="#93A29B" stroke-width="2"></path>
        <path
          d="M11.9438014,0.554244201 L11.9438014,0.522448628 C11.9438014,0.233908218 12.1777096,-1.69040592e-16 12.46625,0 L13.61014,0 C13.8986804,5.44668281e-16 14.1325886,0.233908218 14.1325886,0.522448628 L14.1325886,0.53169619 C14.1325886,0.841356327 14.3219574,1.11951869 14.6100566,1.23304517 C14.8999873,1.34729335 15.2300692,1.2786713 15.4504416,1.05833418 L15.45933,1.04944724 C15.6670571,0.841753348 16.0016787,0.835021661 16.2175909,1.03419307 L16.9631703,1.72196391 C17.1890819,1.93035943 17.2032815,2.28243491 16.994886,2.50834651 C16.990626,2.51296458 16.9862881,2.51751017 16.9818742,2.52198133 L16.9384733,2.56594495 C16.7158734,2.79143094 16.6340494,3.12041099 16.7250816,3.42390364 C16.8127141,3.71606214 17.0816159,3.9161431 17.386634,3.9161431 L17.4363641,3.9161431 C17.7476516,3.9161431 18,4.1684915 18,4.47977902 L18,5.54804959 C18,5.8051664 17.7915656,6.01360076 17.5344488,6.01360076 C17.2498349,6.01360076 16.9903699,6.176609 16.8668459,6.43302055 L16.8231663,6.52369065 C16.6739687,6.83339565 16.7228197,7.20211397 16.9475191,7.46228182 L16.9818742,7.50205979 C17.2077173,7.76355185 17.1865616,8.15677062 16.9339662,8.39252207 L16.2314227,9.04821736 C16.0113341,9.25362966 15.6663975,9.24173216 15.4609852,9.02164355 C15.4604321,9.02105098 15.4598804,9.02045717 15.45933,9.01986214 L15.4290147,8.98708904 C15.2210305,8.7622422 14.900858,8.67964202 14.6100566,8.77580885 C14.3250523,8.87005859 14.1325886,9.13642012 14.1325886,9.43660419 L14.1325886,9.46685277 C14.1325886,9.76130185 13.8938904,10 13.5994413,10 L12.3900686,10 C12.143602,10 11.9438014,9.80019938 11.9438014,9.55373283 C11.9438014,9.27881164 11.793044,9.02603066 11.5511569,8.89536983 L11.490656,8.86268892 C11.2227044,8.71794884 10.8911713,8.76920306 10.6794373,8.98810134 L10.648716,9.01986214 C10.449495,9.22582416 10.1210292,9.23128878 9.91506717,9.03206771 C9.90575853,9.02306374 9.89679028,9.01371439 9.88818126,9.00403931 L9.13944569,8.16258798 C8.94539251,7.94450524 8.95304658,7.61348451 9.15697227,7.40460409 C9.37413833,7.18216159 9.4282579,6.84731961 9.2922241,6.56779042 L9.24624789,6.47331617 C9.10938346,6.19208015 8.82403373,6.01360076 8.51126294,6.01360076 C8.22890022,6.01360076 8,5.78470054 8,5.50233782 L8,4.42740604 C8,4.14504332 8.22890022,3.9161431 8.51126294,3.9161431 C8.82477803,3.9161431 9.11156844,3.73957686 9.25273904,3.45964371 L9.27282036,3.41982363 C9.42149,3.12502033 9.37560347,2.76939201 9.15697227,2.52198133 C8.95410115,2.29240533 8.96667078,1.94413365 9.18556396,1.72977972 L9.87559173,1.05406125 C10.0898654,0.844230994 10.4319531,0.842189413 10.648716,1.04944724 L10.6828783,1.08211144 C10.8983795,1.28816291 11.2152908,1.34737797 11.490656,1.23304517 C11.7649965,1.11913782 11.9438014,0.851292344 11.9438014,0.554244201 Z"
          id="Path-8" fill="#93A29B"></path>
        <circle id="Oval" fill="#FFFFFF" cx="13" cy="5" r="2"></circle>
      </g>
    </g>
  </g>
</svg>
