<?xml version="1.0" encoding="UTF-8"?>
<svg width="18px" height="18px" viewBox="0 0 18 18" version="1.1" xmlns="http://www.w3.org/2000/svg" xmlns:xlink="http://www.w3.org/1999/xlink">
    <title>Icon/Calendar</title>
    <g id="Consulting" stroke="none" stroke-width="1" fill="none" fill-rule="evenodd">
        <g id="Desktop/Consulting-list" transform="translate(-1019.000000, -111.000000)" stroke="#93A29B" stroke-width="2">
            <g id="Group-2" transform="translate(813.000000, 96.000000)">
                <g id="Group" transform="translate(206.000000, 15.000000)">
                    <path d="M4,2 L4.83645583,2 L4.83645583,2 L14,2 C15.6568542,2 17,3.34314575 17,5 L17,14 C17,15.6568542 15.6568542,17 14,17 L4,17 C2.34314575,17 1,15.6568542 1,14 L1,5 C1,3.34314575 2.34314575,2 4,2 Z" id="Rectangle"></path>
                    <line x1="5" y1="1" x2="5" y2="3" id="Path-19" stroke-linecap="round"></line>
                    <line x1="13" y1="1" x2="13" y2="3" id="Path-19-Copy" stroke-linecap="round"></line>
                    <line x1="9" y1="1" x2="9" y2="3" id="Path-19-Copy-2" stroke-linecap="round"></line>
                    <line x1="1" y1="7" x2="17" y2="7" id="Path-18"></line>
                </g>
            </g>
        </g>
    </g>
</svg>