<?xml version="1.0" encoding="UTF-8"?>
<svg width="18px" height="18px" viewBox="0 0 18 18" version="1.1" xmlns="http://www.w3.org/2000/svg" xmlns:xlink="http://www.w3.org/1999/xlink">
    <title>Icon/Automations/Terminate</title>
    <g id="Chat" stroke="none" stroke-width="1" fill="none" fill-rule="evenodd">
        <g id="Desktop/Clear-conversation" transform="translate(-282.000000, -186.000000)" stroke="#073F24">
            <g id="Group-5" transform="translate(282.000000, 186.000000)">
                <g id="Group-5" transform="translate(1.053497, 1.000000)">
                    <path d="M4.1695297,7.25956919 L4.1695297,2.37893917 C4.1695297,1.63658679 4.77132521,1.03479127 5.5136776,1.03479127 C6.25602999,1.03479127 6.8578255,1.63658679 6.8578255,2.37893917 L6.8578255,6.60482749 L6.8578255,6.60482749" id="Rectangle" stroke-width="2" stroke-linecap="round"></path>
                    <path d="M6.8578255,6.72413793 L6.8578255,1.07063393 C6.8578255,0.479339138 7.33716464,1.08619091e-16 7.92845943,0 L8.52225972,0 C9.11355451,-1.08619091e-16 9.59289365,0.479339138 9.59289365,1.07063393 L9.59289365,6.72413793 L9.59289365,6.72413793" id="Rectangle-Copy-5" stroke-width="2" stroke-linecap="round"></path>
                    <path d="M9.59289365,6.72413793 L9.59289365,2.39554481 C9.59289365,1.643851 10.2022619,1.03448276 10.9539557,1.03448276 C11.7056495,1.03448276 12.3150177,1.643851 12.3150177,2.39554481 L12.3150177,6.72413793 L12.3150177,6.72413793" id="Rectangle-Copy-6" stroke-width="2" stroke-linecap="round"></path>
                    <path d="M12.3150177,6.72413793 L12.3150177,3.95588959 C12.3150177,3.19943473 12.9282456,2.5862069 13.6847004,2.5862069 C14.4411553,2.5862069 15.0543831,3.19943473 15.0543831,3.95588959 L15.0543831,7.64532719 L15.0543831,7.64532719" id="Rectangle-Copy-7" stroke-width="2" stroke-linecap="round"></path>
                    <path d="M5.04219611,11.7291442 C3.97019345,10.2315584 3.15898981,9.38287522 2.60858521,9.18309479 C1.78297831,8.88342413 0.962557962,8.76858701 0.193627137,9.65769929 C-0.575303687,10.5468116 1.16305341,11.8250134 1.62574973,12.6671555 C2.08844605,13.5092976 3.23391842,15.4979349 5.64575447,15.6736346 C6.26888718,15.7323068 6.99869489,15.7704074 7.83517761,15.7879363" id="Path-39" stroke-width="2" stroke-linecap="round"></path>
                    <path d="M6.4475818,9.28659896 C6.89198685,9.22129146 7.28479414,9.31267072 7.62600367,9.56073674 C7.96721321,9.80880275 8.16699851,10.1482499 8.22535958,10.5790782" id="Path-40" stroke-width="2" stroke-linecap="round"></path>
                    <ellipse id="Oval" stroke-width="1.33333333" cx="12.7346011" cy="12.8965517" rx="3.21190179" ry="3.10344828"></ellipse>
                    <g id="Icon/Close/Dark" transform="translate(11.485528, 11.667156)" stroke-linecap="round" stroke-width="1.33333333">
                        <line x1="2.49814584" y1="0" x2="0" y2="2.41682643" id="Path-4"></line>
                        <line x1="2.49814584" y1="0" x2="0" y2="2.41682643" id="Path-4" transform="translate(1.249073, 1.208413) scale(-1, 1) translate(-1.249073, -1.208413) "></line>
                    </g>
                </g>
            </g>
        </g>
    </g>
</svg>