<?xml version="1.0" encoding="UTF-8"?>
<svg width="18px" height="18px" viewBox="0 0 18 18" version="1.1" xmlns="http://www.w3.org/2000/svg" xmlns:xlink="http://www.w3.org/1999/xlink">
    <title>Icon/Tags/Selected</title>
    <g id="Symbols" stroke="none" stroke-width="1" fill="none" fill-rule="evenodd">
        <g id="Group" transform="translate(0.000000, 3.000000)">
            <path d="M16,1 C16.2761424,1 16.5261424,1.11192881 16.7071068,1.29289322 C16.8880712,1.47385763 17,1.72385763 17,2 L17,2 L17,10 C17,10.2761424 16.8880712,10.5261424 16.7071068,10.7071068 C16.5261424,10.8880712 16.2761424,11 16,11 L16,11 L7.35819988,11 C7.10900553,11 6.86878949,10.9069594 6.68460888,10.7391043 L6.68460888,10.7391043 L2.29556982,6.7391043 C2.0914718,6.55309728 1.98208997,6.30197247 1.97023439,6.0463249 C1.95892436,5.80244111 2.03637163,5.55444122 2.20501595,5.35493435 L2.20501595,5.35493435 L6.68460888,1.2608957 C6.86878949,1.09304063 7.10900553,1 7.35819988,1 L7.35819988,1 Z" id="Rectangle-Copy-4" stroke="#119656" stroke-width="2"></path>
            <circle id="Oval" fill="#119656" cx="7" cy="6" r="1"></circle>
        </g>
    </g>
</svg>