<?xml version="1.0" encoding="UTF-8"?>
<svg width="18px" height="18px" viewBox="0 0 18 18" version="1.1" xmlns="http://www.w3.org/2000/svg" xmlns:xlink="http://www.w3.org/1999/xlink">
    <title>Icon/Contact/Add</title>
    <g id="Symbols" stroke="none" stroke-width="1" fill="none" fill-rule="evenodd">
        <g id="Icon/Contact/Add" fill="#119656">
            <g id="Icon/User" transform="translate(0.000000, 1.000000)">
                <circle id="Oval" cx="9" cy="4" r="4"></circle>
                <path d="M8.97058824,10.3349845 C9.1613854,10.3349845 9.34978442,10.3375752 9.5357853,10.3427566 C9.20474045,10.6684632 9,11.1203217 9,11.62 C9,12.6085897 9.8014103,13.41 10.79,13.41 L11.67,13.41 L11.67,14.59 C11.67,15.6062039 12.4937961,16.43 13.51,16.43 C14.5262039,16.43 15.35,15.6062039 15.35,14.59 L15.35,13.41 L16.21,13.41 C16.5807211,13.41 16.9251202,13.2973017 17.210806,13.1042961 C17.3431587,13.2324182 17.4715067,13.3661851 17.5956656,13.5044775 L17.5956656,13.5044775 L17.5956656,16.6544892 L0.345510836,16.6544892 L0.345510836,13.5044775 C2.2425579,11.3914822 5.1175837,10.3349845 8.97058824,10.3349845 Z" id="Combined-Shape"></path>
            </g>
            <path d="M14.3486974,15.5931864 L14.3486974,13.4118236 L14.3486974,13.4118236 L16.2074148,13.4118236 C16.6451475,13.4118236 17,13.0569712 17,12.6192385 C17,12.1815058 16.6451475,11.8266533 16.2074148,11.8266533 L14.3486974,11.8266533 L14.3486974,11.8266533 L14.3486974,9.84168337 C14.3486974,9.37683448 13.9718629,9 13.507014,9 C13.0421651,9 12.6653307,9.37683448 12.6653307,9.84168337 L12.6653307,11.8266533 L12.6653307,11.8266533 L10.7925852,11.8266533 C10.3548525,11.8266533 10,12.1815058 10,12.6192385 C10,13.0569712 10.3548525,13.4118236 10.7925852,13.4118236 L12.6653307,13.4118236 L12.6653307,13.4118236 L12.6653307,15.5931864 C12.6653307,16.0580353 13.0421651,16.4348697 13.507014,16.4348697 C13.9718629,16.4348697 14.3486974,16.0580353 14.3486974,15.5931864 Z" id="+-copy" fill-rule="nonzero"></path>
        </g>
    </g>
</svg>