<svg width="18" height="18" viewBox="0 0 18 18" fill="none" xmlns="http://www.w3.org/2000/svg">
<ellipse cx="9" cy="4.98147" rx="4" ry="3.98513" fill="#999999"/>
<path fill-rule="evenodd" clip-rule="evenodd" d="M15.3502 15.5251C15.3502 16.5413 14.5264 17.3651 13.5102 17.3651C12.494 17.3651 11.6702 16.5413 11.6702 15.5251V14.3563H10.7835C9.79862 14.3563 9.00019 13.5579 9.00019 12.573C9.00019 12.0758 9.20362 11.6262 9.53178 11.3028C9.34795 11.2961 9.16096 11.2927 8.97078 11.2927C3.19127 11.2927 0.345703 14.4504 0.345703 14.4504V17.5887H17.5959V14.4504C17.5959 14.4504 17.4612 14.301 17.1909 14.0671C16.9109 14.25 16.5763 14.3563 16.2168 14.3563H15.3502V15.5251Z" fill="#999999"/>
<path d="M13.507 16.3738C13.9719 16.3738 14.3487 15.9969 14.3487 15.5321V13.362H16.2104C16.6465 13.362 17 13.0084 17 12.5723C17 12.1362 16.6465 11.7827 16.2104 11.7827H14.3487V9.80824C14.3487 9.34339 13.9719 8.96655 13.507 8.96655C13.0422 8.96655 12.6653 9.34339 12.6653 9.80824V11.7827H10.7896C10.3535 11.7827 10 12.1362 10 12.5723C10 13.0084 10.3535 13.362 10.7896 13.362H12.6653V15.5321C12.6653 15.9969 13.0422 16.3738 13.507 16.3738Z" fill="#999999"/>
</svg>
