<?xml version="1.0" encoding="UTF-8"?>
<svg width="18px" height="18px" viewBox="0 0 18 18" version="1.1" xmlns="http://www.w3.org/2000/svg" xmlns:xlink="http://www.w3.org/1999/xlink">
    <title>Icon/Mic/Active</title>
    <g id="Symbols" stroke="none" stroke-width="1" fill="none" fill-rule="evenodd">
        <g id="Icon/Mic/Active" stroke="#073F24" stroke-width="2">
            <path d="M15,14 C15,10.6862915 12.3137085,8 9,8 C5.6862915,8 3,10.6862915 3,14" id="Oval" stroke-linecap="round" transform="translate(9.000000, 11.000000) scale(1, -1) translate(-9.000000, -11.000000) "></path>
            <line x1="9" y1="14" x2="9" y2="18" id="Path-33"></line>
            <path d="M7,3 L7.00548574,2.85073766 C7.08183488,1.81587779 7.9456382,1 9,1 C10.1045695,1 11,1.8954305 11,3 L11,3 L11,8 C11,9.1045695 10.1045695,10 9,10 C7.8954305,10 7,9.1045695 7,8 L7,8 L7,3 Z" id="Combined-Shape"></path>
        </g>
    </g>
</svg>