<svg width="24" height="24" viewBox="0 0 24 24" fill="none" xmlns="http://www.w3.org/2000/svg">
<path d="M2 23V21.3332H22V23H2ZM4 20V14.5C3.38333 13.1888 2.94167 12.0513 2.675 11.0875C2.40833 10.1236 2.275 9.15006 2.275 8.16672C2.275 7.18339 2.39858 6.17222 2.64575 5.13322C2.89308 4.09439 3.2195 3.09997 3.625 2.14997C3.7805 1.78881 3.99992 1.50964 4.28325 1.31247C4.56658 1.11531 4.8805 1.01672 5.225 1.01672C5.69717 1.01672 6.07217 1.17222 6.35 1.48322C6.62783 1.79439 6.75558 2.22497 6.73325 2.77497L6.64175 5.71672C6.60842 6.47222 6.72642 7.18606 6.99575 7.85822C7.26525 8.53056 7.64442 9.11806 8.13325 9.62072C8.62225 10.1236 9.19725 10.5208 9.85825 10.8125C10.5194 11.1041 11.2333 11.25 12 11.25C13.2333 11.25 14.3514 11.3514 15.3543 11.5542C16.3569 11.7569 17.2055 12.0499 17.9 12.4332C18.5945 12.8166 19.1181 13.3041 19.4708 13.8957C19.8236 14.4874 20 15.1944 20 16.0167V20H4ZM5.66675 18.3332H18.3333V16.0167C18.3333 15.5167 18.2111 15.082 17.9668 14.7125C17.7223 14.343 17.3611 14.0388 16.8833 13.8C16.2999 13.5111 15.5861 13.2917 14.7418 13.1417C13.8973 12.9917 12.9833 12.9167 12 12.9167C11 12.9167 10.0625 12.7222 9.1875 12.3332C8.3125 11.9444 7.55692 11.4181 6.92075 10.7542C6.28475 10.0902 5.78892 9.31522 5.43325 8.42922C5.07775 7.54306 4.92225 6.60556 4.96675 5.61672V3.44997C4.65558 4.11664 4.40692 4.87497 4.22075 5.72497C4.03475 6.57497 3.94175 7.38889 3.94175 8.16672C3.94175 9.05556 4.08475 9.95139 4.37075 10.8542C4.65692 11.7569 5.08892 12.8166 5.66675 14.0332V18.3332ZM9.175 8.82497C8.39167 8.04164 8 7.09997 8 5.99997C8 4.89997 8.39167 3.95831 9.175 3.17497C9.95833 2.39164 10.9 1.99997 12 1.99997C13.1 1.99997 14.0417 2.39164 14.825 3.17497C15.6083 3.95831 16 4.89997 16 5.99997C16 7.09997 15.6083 8.04164 14.825 8.82497C14.0417 9.60831 13.1 9.99997 12 9.99997C10.9 9.99997 9.95833 9.60831 9.175 8.82497ZM13.6543 7.65422C14.1069 7.20139 14.3333 6.64997 14.3333 5.99997C14.3333 5.34997 14.1069 4.79856 13.6543 4.34572C13.2014 3.89306 12.65 3.66672 12 3.66672C11.35 3.66672 10.7986 3.89306 10.3458 4.34572C9.89308 4.79856 9.66675 5.34997 9.66675 5.99997C9.66675 6.64997 9.89308 7.20139 10.3458 7.65422C10.7986 8.10689 11.35 8.33322 12 8.33322C12.65 8.33322 13.2014 8.10689 13.6543 7.65422ZM8.16675 20V19.075C8.16675 18.0028 8.53758 17.0834 9.27925 16.3167C10.0209 15.5501 10.9278 15.1667 12 15.1667H15.8333V16.8332H12C11.3888 16.8332 10.8749 17.0541 10.4583 17.4957C10.0416 17.9374 9.83325 18.4638 9.83325 19.075V20H8.16675Z" fill="#119656"/>
</svg>
