<svg width="24" height="24" viewBox="0 0 24 24" fill="none" xmlns="http://www.w3.org/2000/svg">
<mask id="path-1-inside-1" fill="white">
<path fill-rule="evenodd" clip-rule="evenodd" d="M12.954 7.56437C12.954 10.6596 10.4801 13.1287 7.47757 13.1287C4.57706 13.1287 2.16992 10.8246 2.00962 7.87778L2.00377 7.389C2.09512 4.3764 4.53192 2 7.47757 2C10.4801 2 12.954 4.46914 12.954 7.56437ZM7.47757 0C3.50756 0 0.260269 3.13069 0.0158863 7.08507L0 7.08526L0.00344905 7.3737C0.00189953 7.43707 0.00112021 7.50063 0.00112021 7.56437C0.00112021 7.69072 0.00418201 7.81635 0.0102346 7.94118L0.101103 15.5405C0.127293 17.7308 1.91033 19.4927 4.10082 19.4927H9.37842L13.8244 23.4837C15.112 24.6395 17.1604 23.7257 17.1604 21.9954V19.4927H18.575C18.8048 19.4927 19.03 19.4733 19.2492 19.4361L20.7347 20.7922C21.4649 21.4587 22.5689 21.4776 23.3153 20.8364C24.3135 19.9789 24.2038 18.3879 23.097 17.6689L22.235 17.109C22.4536 16.6147 22.575 16.0679 22.575 15.4927V8.85559C22.575 6.64645 20.7841 4.85559 18.575 4.85559H14.4604C13.3836 2.01587 10.6632 0 7.47757 0ZM20.575 15.4927C20.575 15.6644 20.5533 15.8311 20.5126 15.9902L13.7884 11.6222C14.5264 10.4496 14.954 9.05753 14.954 7.56437C14.954 7.32536 14.9431 7.08894 14.9216 6.85559H18.575C19.6796 6.85559 20.575 7.75102 20.575 8.85559V15.4927ZM16.1604 17.4927H17.1203L12.4412 13.2213C11.121 14.408 9.38247 15.1287 7.47757 15.1287C5.3499 15.1287 3.42981 14.2295 2.06831 12.7862L2.10096 15.5166C2.11405 16.6118 3.00558 17.4927 4.10082 17.4927H9.76142H10.1444L10.4294 17.7485L15.1604 21.9954V18.4927V17.4927H16.1604ZM5.74705 6.51299C6.35188 5.78555 7.42263 5.69414 8.13813 6.30312L9.41679 4.76525C7.85739 3.43801 5.53272 3.64269 4.22401 5.21671L5.74705 6.51299Z"/>
</mask>
<path d="M2.00962 7.87778L0.0097625 7.90169L0.0102694 7.94408L0.012572 7.98641L2.00962 7.87778ZM2.00377 7.389L0.0046937 7.32839L0.00341243 7.37064L0.00391791 7.41291L2.00377 7.389ZM0.0158863 7.08507L0.039777 9.08492L1.89748 9.06273L2.01208 7.20843L0.0158863 7.08507ZM0 7.08526L-0.0238907 5.0854L-2.02377 5.10929L-1.99986 7.10917L0 7.08526ZM0.00344905 7.3737L2.00285 7.42259L2.00374 7.38619L2.00331 7.34979L0.00344905 7.3737ZM0.0102346 7.94118L2.01009 7.91727L2.00966 7.88078L2.00789 7.84432L0.0102346 7.94118ZM0.101103 15.5405L2.10096 15.5166L0.101103 15.5405ZM9.37842 19.4927L10.7144 18.0044L10.1444 17.4927H9.37842V19.4927ZM13.8244 23.4837L15.1604 21.9954H15.1604L13.8244 23.4837ZM17.1604 19.4927V17.4927H15.1604V19.4927H17.1604ZM19.2492 19.4361L20.5976 17.959L19.8768 17.301L18.9145 17.4643L19.2492 19.4361ZM20.7347 20.7922L22.0831 19.3151V19.3151L20.7347 20.7922ZM23.3153 20.8364L24.6186 22.3535L24.6186 22.3534L23.3153 20.8364ZM23.097 17.6689L24.1865 15.9917L24.1865 15.9917L23.097 17.6689ZM22.235 17.109L20.4059 16.3L19.7168 17.8581L21.1455 18.7862L22.235 17.109ZM14.4604 4.85559L12.5903 5.56471L13.0798 6.85559H14.4604V4.85559ZM20.5126 15.9902L19.4231 17.6674L21.7593 19.1849L22.4501 16.4861L20.5126 15.9902ZM13.7884 11.6222L12.0958 10.5568L11.0455 12.2254L12.6989 13.2994L13.7884 11.6222ZM14.9216 6.85559V4.85559H12.7295L12.93 7.03851L14.9216 6.85559ZM17.1203 17.4927V19.4927H22.2777L18.4687 16.0156L17.1203 17.4927ZM12.4412 13.2213L13.7896 11.7442L12.4516 10.5227L11.1042 11.7338L12.4412 13.2213ZM2.06831 12.7862L3.52316 11.4138L0.00719022 7.6866L0.0684545 12.8101L2.06831 12.7862ZM2.10096 15.5166L4.10082 15.4927V15.4927L2.10096 15.5166ZM10.1444 17.4927L11.4804 16.0044L10.9104 15.4927H10.1444V17.4927ZM10.4294 17.7485L11.7654 16.2602L11.7654 16.2602L10.4294 17.7485ZM15.1604 21.9954L13.8244 23.4837L17.1604 26.4783V21.9954H15.1604ZM15.1604 17.4927V15.4927H13.1604V17.4927H15.1604ZM8.13813 6.30312L6.84185 7.82616L8.38253 9.13746L9.676 7.58178L8.13813 6.30312ZM5.74705 6.51299L4.45076 8.03603L5.99144 9.34733L7.28491 7.79165L5.74705 6.51299ZM9.41679 4.76525L10.9547 6.04391L12.2187 4.52366L10.7131 3.24222L9.41679 4.76525ZM4.22401 5.21671L2.68614 3.93805L1.42213 5.4583L2.92772 6.73974L4.22401 5.21671ZM7.47757 15.1287C11.6043 15.1287 14.954 11.7445 14.954 7.56437H10.954C10.954 9.57472 9.356 11.1287 7.47757 11.1287V15.1287ZM0.012572 7.98641C0.229286 11.9704 3.49113 15.1287 7.47757 15.1287V11.1287C5.66298 11.1287 4.11055 9.67888 4.00667 7.76914L0.012572 7.98641ZM0.00391791 7.41291L0.0097625 7.90169L4.00948 7.85386L4.00363 7.36509L0.00391791 7.41291ZM7.47757 0C3.42912 0 0.128136 3.25727 0.0046937 7.32839L4.00286 7.44962C4.06211 5.49553 5.63472 4 7.47757 4V0ZM14.954 7.56437C14.954 3.38426 11.6043 0 7.47757 0V4C9.356 4 10.954 5.55403 10.954 7.56437H14.954ZM2.01208 7.20843C2.19294 4.28196 4.59082 2 7.47757 2V-2C2.4243 -2 -1.6724 1.97943 -1.98031 6.9617L2.01208 7.20843ZM0.0238907 9.08511L0.039777 9.08492L-0.00800439 5.08521L-0.0238907 5.0854L0.0238907 9.08511ZM2.00331 7.34979L1.99986 7.06134L-1.99986 7.10917L-1.99641 7.39761L2.00331 7.34979ZM2.00112 7.56437C2.00112 7.51693 2.0017 7.46967 2.00285 7.42259L-1.99595 7.32481C-1.9979 7.40447 -1.99888 7.48433 -1.99888 7.56437H2.00112ZM2.00789 7.84432C2.0034 7.75174 2.00112 7.65841 2.00112 7.56437H-1.99888C-1.99888 7.72304 -1.99503 7.88096 -1.98742 8.03804L2.00789 7.84432ZM2.10096 15.5166L2.01009 7.91727L-1.98962 7.9651L-1.89875 15.5644L2.10096 15.5166ZM4.10082 17.4927C3.00558 17.4927 2.11405 16.6118 2.10096 15.5166L-1.89875 15.5644C-1.85947 18.8499 0.815093 21.4927 4.10082 21.4927V17.4927ZM9.37842 17.4927H4.10082V21.4927H9.37842V17.4927ZM15.1604 21.9954L10.7144 18.0044L8.04242 20.981L12.4884 24.972L15.1604 21.9954ZM15.1604 21.9954H15.1604L12.4884 24.972C15.0637 27.2837 19.1604 25.456 19.1604 21.9954H15.1604ZM15.1604 19.4927V21.9954H19.1604V19.4927H15.1604ZM18.575 17.4927H17.1604V21.4927H18.575V17.4927ZM18.9145 17.4643C18.8055 17.4828 18.6921 17.4927 18.575 17.4927V21.4927C18.9174 21.4927 19.2546 21.4638 19.584 21.4079L18.9145 17.4643ZM22.0831 19.3151L20.5976 17.959L17.9008 20.9132L19.3863 22.2693L22.0831 19.3151ZM22.012 19.3193C22.0152 19.3166 22.0221 19.3121 22.0313 19.3088C22.0397 19.3058 22.0471 19.3049 22.0532 19.305C22.0593 19.3051 22.0655 19.3063 22.0716 19.3087C22.0748 19.3099 22.0776 19.3113 22.0799 19.3128C22.0822 19.3142 22.0833 19.3152 22.0831 19.3151L19.3863 22.2693C20.8578 23.6125 23.0997 23.6583 24.6186 22.3535L22.012 19.3193ZM22.0075 19.3461C22.0103 19.348 22.0094 19.3477 22.0068 19.3449C22.0044 19.3424 22.0024 19.3396 22.001 19.3372C21.9987 19.3332 22 19.3336 22.0003 19.3382C22.0006 19.3428 21.9994 19.3422 22.0019 19.3357C22.0034 19.3322 22.0056 19.3279 22.0085 19.3239C22.0115 19.3196 22.0134 19.3181 22.012 19.3193L24.6186 22.3534C26.6356 20.6207 26.4049 17.4328 24.1865 15.9917L22.0075 19.3461ZM21.1455 18.7862L22.0075 19.3461L24.1865 15.9917L23.3245 15.4318L21.1455 18.7862ZM20.575 15.4927C20.575 15.784 20.5139 16.0557 20.4059 16.3L24.0641 17.9179C24.3932 17.1738 24.575 16.3518 24.575 15.4927H20.575ZM20.575 8.85559V15.4927H24.575V8.85559H20.575ZM18.575 6.85559C19.6796 6.85559 20.575 7.75102 20.575 8.85559H24.575C24.575 5.54188 21.8887 2.85559 18.575 2.85559V6.85559ZM14.4604 6.85559H18.575V2.85559H14.4604V6.85559ZM7.47757 2C9.79366 2 11.7942 3.4653 12.5903 5.56471L16.3304 4.14648C14.9729 0.566443 11.5328 -2 7.47757 -2V2ZM22.4501 16.4861C22.532 16.1664 22.575 15.8331 22.575 15.4927H18.575C18.575 15.4957 18.5747 15.4958 18.5751 15.4942L22.4501 16.4861ZM12.6989 13.2994L19.4231 17.6674L21.6021 14.3129L14.8778 9.94498L12.6989 13.2994ZM12.954 7.56437C12.954 8.6708 12.6382 9.69497 12.0958 10.5568L15.481 12.6876C16.4146 11.2043 16.954 9.44425 16.954 7.56437H12.954ZM12.93 7.03851C12.9459 7.21113 12.954 7.38652 12.954 7.56437H16.954C16.954 7.26421 16.9403 6.96675 16.9132 6.67267L12.93 7.03851ZM18.575 4.85559H14.9216V8.85559H18.575V4.85559ZM22.575 8.85559C22.575 6.64645 20.7841 4.85559 18.575 4.85559V8.85559H18.575H22.575ZM22.575 15.4927V8.85559H18.575V15.4927H22.575ZM17.1203 15.4927H16.1604V19.4927H17.1203V15.4927ZM11.0928 14.6983L15.7719 18.9698L18.4687 16.0156L13.7896 11.7442L11.0928 14.6983ZM7.47757 17.1287C9.8977 17.1287 12.1072 16.2107 13.7782 14.7087L11.1042 11.7338C10.1348 12.6052 8.86725 13.1287 7.47757 13.1287V17.1287ZM0.613467 14.1586C2.3344 15.9829 4.77293 17.1287 7.47757 17.1287V13.1287C5.92687 13.1287 4.52522 12.4761 3.52316 11.4138L0.613467 14.1586ZM4.10082 15.4927L4.06817 12.7623L0.0684545 12.8101L0.101103 15.5405L4.10082 15.4927ZM4.10082 15.4927H4.10082L0.101103 15.5405C0.127293 17.7308 1.91033 19.4927 4.10082 19.4927V15.4927ZM9.76142 15.4927H4.10082V19.4927H9.76142V15.4927ZM10.1444 15.4927H9.76142V19.4927H10.1444V15.4927ZM11.7654 16.2602L11.4804 16.0044L8.80841 18.981L9.09342 19.2368L11.7654 16.2602ZM16.4964 20.507L11.7654 16.2602L9.09342 19.2368L13.8244 23.4837L16.4964 20.507ZM13.1604 18.4927V21.9954H17.1604V18.4927H13.1604ZM13.1604 17.4927V18.4927H17.1604V17.4927H13.1604ZM16.1604 15.4927H15.1604V19.4927H16.1604V15.4927ZM9.43442 4.78008C7.86861 3.44739 5.52402 3.65294 4.20918 5.23434L7.28491 7.79165C7.17974 7.91815 6.97665 7.94089 6.84185 7.82616L9.43442 4.78008ZM7.87892 3.4866L6.60027 5.02446L9.676 7.58178L10.9547 6.04391L7.87892 3.4866ZM5.76188 6.49536C6.36118 5.77456 7.41213 5.68538 8.1205 6.28829L10.7131 3.24222C8.30264 1.19065 4.70426 1.51082 2.68614 3.93805L5.76188 6.49536ZM7.04333 4.98995L5.5203 3.69367L2.92772 6.73974L4.45076 8.03603L7.04333 4.98995Z" fill="#93A29B" mask="url(#path-1-inside-1)"/>
</svg>
