<svg width="26" height="25" viewBox="0 0 26 25" fill="none" xmlns="http://www.w3.org/2000/svg">
<path d="M20.021 14.0215H21.9995C23.6564 14.0215 24.9995 12.6783 24.9995 11.0215V4C24.9995 2.34315 23.6564 1 21.9995 1H9.20679C7.54993 1 6.20679 2.34315 6.20679 4V6" stroke="#073F24" stroke-width="2"/>
<path fill-rule="evenodd" clip-rule="evenodd" d="M1 8C1 6.34315 2.34315 5 4 5H18C19.6569 5 21 6.34315 21 8V15.75C21 17.4069 19.6569 18.75 18 18.75H15.7016V22.589C15.7016 23.4794 14.6254 23.9258 13.9952 23.2967L9.4399 18.75H4C2.34315 18.75 1 17.4069 1 15.75V8Z" stroke="#073F24" stroke-width="2"/>
</svg>
