<?xml version="1.0" encoding="UTF-8"?>
 <svg width="18px" height="18px" viewBox="0 0 18 18" version="1.1"
  xmlns="http://www.w3.org/2000/svg" xmlns:xlink="http://www.w3.org/1999/xlink">
  <title>Icon/Chat/Unselected</title>
  <g id="Symbols" stroke="none" stroke-width="1" fill="none" fill-rule="evenodd">
    <g id="Icon/Chat/Unselected" stroke="#93A29B" stroke-width="2">
      <path
        d="M15,2 L3,2 C2.44771525,2 1.94771525,2.22385763 1.58578644,2.58578644 C1.22385763,2.94771525 1,3.44771525 1,4 L1,9 C1,9.55228475 1.22385763,10.0522847 1.58578644,10.4142136 C1.94771525,10.7761424 2.44771525,11 3,11 L7.97557618,11 L12.2314392,14.7759202 L12.2314392,11 L15,11 C15.5522847,11 16.0522847,10.7761424 16.4142136,10.4142136 C16.7761424,10.0522847 17,9.55228475 17,9 L17,4 C17,3.44771525 16.7761424,2.94771525 16.4142136,2.58578644 C16.0522847,2.22385763 15.5522847,2 15,2 Z"
        id="Chat/Icon"></path>
    </g>
  </g>
</svg>
