<?xml version="1.0" encoding="UTF-8"?>
<svg width="100%" height="100%" viewBox="0 0 23 23" version="1.1" xmlns="http://www.w3.org/2000/svg" xmlns:xlink="http://www.w3.org/1999/xlink">
    <title>Icon/Attachment/Unselected</title>
    <g id="Chat" stroke="none" stroke-width="1" fill="none" fill-rule="evenodd" stroke-linecap="round">
        <g id="Desktop/Chat" transform="translate(-798.000000, -644.000000)" stroke="#93A29B" stroke-width="2">
            <g id="Icon/Attachment/Unselected" transform="translate(797.000000, 644.000000)">
                <path d="M14.7258467,5.44571351 L13.9789629,16.4550024 C13.8934588,17.7153571 12.8675412,18.7062647 11.6049782,18.7479734 C10.4835462,18.7850198 9.54441394,17.9059517 9.5073675,16.7845197 C9.50534094,16.7231738 9.50609547,16.6617676 9.50962877,16.6004901 L10.1743107,5.07298119 C10.3159237,2.61700285 12.3056647,0.673537647 14.764295,0.589747136 C16.9528969,0.515159236 18.7875748,2.22890619 18.8621627,4.41750809 C18.8662508,4.53746531 18.8648901,4.65754629 18.8580847,4.77738006 L18.2235771,15.9501563 C18.0105268,19.7016687 15.1114574,22.7466802 11.3749209,23.143581 C8.29555301,23.4706762 5.53406903,21.2395185 5.20697376,18.1601506 C5.17742141,17.8819365 5.16873385,17.6019006 5.18098387,17.3223896 L5.79058885,3.41292261 L5.79058885,3.41292261" id="Rectangle" transform="translate(12.000000, 12.136827) rotate(-330.000000) translate(-12.000000, -12.136827) "></path>
            </g>
        </g>
    </g>
</svg>