<?xml version="1.0" encoding="UTF-8"?>
<svg width="36px" height="36px" viewBox="34 34 36 36" version="1.1" xmlns="http://www.w3.org/2000/svg" xmlns:xlink="http://www.w3.org/1999/xlink">
    <title>Vector</title>

    <g id="Login/Register" stroke="none" stroke-width="1" fill="none" fill-rule="evenodd">
        <g id="Desktop/Login-Copy-5" transform="translate(-1057.000000, -516.000000)">
            <g id="Group"  transform="translate(966.000000, 220.000000)">
                <g id="Vector" transform="translate(125.000000, 330.000000)">
                    <rect id="Rectangle-Copy-17" fill="#119656" x="0" y="0" width="36" height="36" rx="18"></rect>
                    <path d="M15.4333322,15.2406946 L18.6497679,15.2406946 L18.6497679,16.9097604 C19.1140659,15.950293 20.3017314,15.0867151 22.0864759,15.0867151 C25.5079817,15.0867151 26.3188405,16.9978773 26.3188405,20.5044702 L26.3188405,27 L22.8562414,27 L22.8562414,21.3033309 C22.8562414,19.3062609 22.3920226,18.1793959 21.2129875,18.1793959 C19.5772554,18.1793959 18.8970398,19.3943777 18.8970398,21.3033309 L18.8970398,27 L15.4333322,27 L15.4333322,15.2406946 Z M9.49504446,26.8471659 L12.9587045,26.8471659 L12.9587045,15.0867151 L9.49504446,15.0867151 L9.49504446,26.8460205 L9.49504446,26.8471659 Z M13.4542857,11.250989 C13.4608178,11.5574344 13.4080459,11.8621452 13.2990657,12.1472364 C13.1900934,12.4323276 13.0271061,12.6920473 12.8196764,12.9111695 C12.6122467,13.1302835 12.3645472,13.3043818 12.0911228,13.4232373 C11.8176985,13.5420928 11.5240442,13.6033246 11.2274129,13.6033246 C10.9307816,13.6033246 10.6371273,13.5420928 10.363703,13.4232373 C10.0902786,13.3043818 9.84257913,13.1302835 9.63514939,12.9111695 C9.42771966,12.6920473 9.26473237,12.4323276 9.1557601,12.1472364 C9.04677992,11.8621452 8.99400798,11.5574344 9.00054014,11.250989 C9.01335901,10.6494707 9.2536079,10.0770548 9.66982922,9.65632743 C10.0860505,9.23559192 10.6451559,9 11.2274129,9 C11.8096699,9 12.3687753,9.23559192 12.7849966,9.65632743 C13.2012179,10.0770548 13.4414668,10.6494707 13.4542857,11.250989 Z" id="Shape" fill="#FFFFFF"></path>
                </g>
            </g>
        </g>
    </g>
</svg>
