<?xml version="1.0" encoding="UTF-8"?>
<svg width="36px" height="36px" viewBox="34 34 36 36" version="1.1" xmlns="http://www.w3.org/2000/svg" xmlns:xlink="http://www.w3.org/1999/xlink">
    <title>Group 5</title>
    <defs>

    </defs>
    <g id="Login/Register" stroke="none" stroke-width="1" fill="none" fill-rule="evenodd">
        <g id="Desktop/Login-Copy-5" transform="translate(-1109.000000, -516.000000)">
            <g id="Group" transform="translate(966.000000, 220.000000)">
                <g id="Group-5" transform="translate(177.000000, 330.000000)">
                    <rect id="Rectangle-Copy-16" fill="#119656" x="0" y="0" width="36" height="36" rx="18"></rect>
                    <path d="M26.3571429,11 L9.64285714,11 C9.28727679,11 9,11.2872768 9,11.6428571 L9,24.5 C9,24.8555804 9.28727679,25.1428571 9.64285714,25.1428571 L26.3571429,25.1428571 C26.7127232,25.1428571 27,24.8555804 27,24.5 L27,11.6428571 C27,11.2872768 26.7127232,11 26.3571429,11 Z M25.5535714,13.2258929 L25.5535714,23.6964286 L10.4464286,23.6964286 L10.4464286,13.2258929 L9.89196429,12.7939732 L10.6814732,11.7794643 L11.5412946,12.4484375 L24.4607143,12.4484375 L25.3205357,11.7794643 L26.1100446,12.7939732 L25.5535714,13.2258929 Z M24.4607143,12.4464286 L18,17.46875 L11.5392857,12.4464286 L10.6794643,11.7774554 L9.88995536,12.7919643 L10.4444196,13.2238839 L17.3069196,18.5595982 C17.5042768,18.7129196 17.7470759,18.7961496 17.9969866,18.7961496 C18.2468973,18.7961496 18.4896964,18.7129196 18.6870536,18.5595982 L25.5535714,13.2258929 L26.1080357,12.7939732 L25.3185268,11.7794643 L24.4607143,12.4464286 Z" id="Shape" fill="#FFFFFF" fill-rule="nonzero"></path>
                </g>
            </g>
        </g>
    </g>
</svg>
