<?xml version="1.0" encoding="UTF-8"?>
<svg width="36px" height="36px" viewBox="34 34 36 36" version="1.1" xmlns="http://www.w3.org/2000/svg" xmlns:xlink="http://www.w3.org/1999/xlink">
    <title>Group 7</title>
    <defs>
        <linearGradient x1="49.9999984%" y1="100%" x2="49.9999984%" y2="0%" id="linearGradient-2">
            <stop stop-color="#F9F9F9" offset="0%"></stop>
            <stop stop-color="#FFFFFF" offset="100%"></stop>
        </linearGradient>
    </defs>
    <g id="Login/Register" stroke="none" stroke-width="1" fill="none" fill-rule="evenodd">
        <g id="Desktop/Login-Copy-5" transform="translate(-1005.000000, -516.000000)">
            <g id="Group" transform="translate(966.000000, 220.000000)">
                <g id="Group-6" transform="translate(73.000000, 330.000000)">
                    <rect id="Rectangle-Copy-18" fill="#119656" x="0" y="0" width="36" height="36" rx="18"></rect>
                    <g id="Group-489" transform="translate(7.200000, 7.200000)" fill-rule="nonzero">
                        <path d="M0.46096848,10.706904 C0.46046232,12.527784 0.9383616,14.30568 1.8470808,15.87276 L0.37406232,21.22704 L5.8780152,19.79028 C7.400304,20.615328 9.105984,21.047616 10.83924,21.04776 L10.843848,21.04776 C16.565688,21.04776 21.22344,16.412472 21.2258888,10.715112 C21.226968,7.954272 20.148048,5.35824 18.187632,3.4051032 C16.227648,1.452132 13.620888,0.37602576 10.843416,0.37476576 C5.1208344,0.37476576 0.46341576,5.0098104 0.46105344,10.706904" id="Path"></path>
                        <path d="M0.09028152,10.7028 C0.0896904,12.589128 0.58471848,14.4306 1.5258384,16.05384 L0,21.6 L5.7013056,20.11176 C7.272216,20.964456 9.040896,21.414024 10.840608,21.414672 L10.845216,21.414672 C16.7724,21.414672 21.59748,16.612632 21.6000007,10.711368 C21.601008,7.851384 20.483208,5.161968 18.452808,3.1388616 C16.422192,1.1160072 13.722192,0.0011759832 10.845216,0 C4.9170384,0 0.09272808,4.8013632 0.09036576,10.7028 L0.09028152,10.7028 Z M3.4855344,15.774264 L3.272652,15.43788 C2.3777712,14.02128 1.905444,12.38436 1.90611289,10.703448 C1.9080576,5.79834 5.917896,1.8076536 10.8486,1.8076536 C13.236408,1.8086616 15.480432,2.7353304 17.168256,4.4166456 C18.856008,6.0981336 19.784736,8.333352 19.7841603,10.710648 C19.782,15.615792 15.772032,19.606968 10.845216,19.606968 L10.841688,19.606968 C9.237456,19.606104 7.664112,19.1772 6.2920152,18.366696 L5.9654808,18.173952 L2.5822152,19.057032 L3.4855344,15.774192 L3.4855344,15.774264 Z" id="Shape" fill="url(#linearGradient-2)"></path>
                        <path d="M8.157096,6.228468 C7.955784,5.7830256 7.743888,5.7740328 7.55244,5.7662208 C7.395696,5.7595032 7.216488,5.75999862 7.0374384,5.75999862 C6.8582232,5.75999862 6.567048,5.8271256 6.3209232,6.094656 C6.0745464,6.3624456 5.3803152,7.0095744 5.3803152,8.32572 C5.3803152,9.642024 6.3432864,10.913976 6.4775232,11.09268 C6.6119328,11.271024 8.336592,14.058432 11.067912,15.130728 C13.338,16.021872 13.799952,15.844608 14.292576,15.799968 C14.785344,15.7554 15.882552,15.152976 16.1064,14.528304 C16.330392,13.903704 16.330392,13.36824 16.263216,13.256352 C16.196112,13.144896 16.016904,13.077936 15.748128,12.944232 C15.479352,12.810456 14.158152,12.163248 13.911912,12.073968 C13.665528,11.98476 13.486392,11.940192 13.307184,12.208104 C13.127976,12.475512 12.613392,13.077936 12.456504,13.256352 C12.299832,13.4352 12.142944,13.457448 11.874312,13.323672 C11.605392,13.189464 10.739952,12.907296 9.713232,11.995992 C8.914392,11.286864 8.37504,10.4112 8.218296,10.143288 C8.06148,9.87588 8.201448,9.730872 8.336232,9.5976 C8.456976,9.47772 8.605008,9.285192 8.739504,9.129024 C8.873496,8.972784 8.918208,8.861328 9.007848,8.682912 C9.09756,8.504352 9.052632,8.348112 8.9856,8.214264 C8.918208,8.080488 8.396064,6.7574088 8.157096,6.228468 Z" id="Path" fill="#FFFFFF"></path>
                    </g>
                </g>
            </g>
        </g>
    </g>
</svg>
