<svg width="24" height="24" viewBox="0 0 24 24" fill="none" xmlns="http://www.w3.org/2000/svg">
<path d="M9.67497 6.83006L13.221 10.3671C13.988 11.1335 14.9833 11.6301 16.057 11.7821L11.802 16.0261C11.6524 14.9527 11.1542 13.9584 10.384 13.1961L6.83797 9.66006L9.67497 6.83006ZM10.384 3.29306L3.29297 10.3681C3.11382 10.5578 3.01576 10.8099 3.01964 11.0709C3.02352 11.3318 3.12904 11.5809 3.31376 11.7652C3.49848 11.9496 3.74782 12.0545 4.00875 12.0579C4.26968 12.0612 4.52161 11.9626 4.71097 11.7831L5.41997 11.0751L8.96597 14.6121C9.24574 14.8902 9.46776 15.2209 9.61926 15.5852C9.77076 15.9494 9.84875 16.3401 9.84875 16.7346C9.84875 17.1291 9.77076 17.5197 9.61926 17.8839C9.46776 18.2482 9.24574 18.5789 8.96597 18.8571L10.384 20.2721L14.618 16.0491L19.582 21.0001H21V19.5851L16.036 14.6331L20.312 10.3671L18.894 8.95206C18.3296 9.516 17.5643 9.83277 16.7665 9.83277C15.9686 9.83277 15.2034 9.516 14.639 8.95206L11.093 5.41406L11.803 4.70706C11.897 4.61414 11.9718 4.50352 12.0229 4.38158C12.074 4.25964 12.1005 4.12879 12.1008 3.99656C12.1011 3.86434 12.0753 3.73337 12.0247 3.61118C11.9742 3.489 11.9 3.37803 11.8063 3.28467C11.7127 3.1913 11.6015 3.11739 11.4792 3.0672C11.3569 3.017 11.2258 2.99151 11.0936 2.9922C10.9614 2.99289 10.8306 3.01974 10.7088 3.0712C10.587 3.12266 10.4766 3.19873 10.384 3.29306Z" fill="#191C1A" fill-opacity="0.57"/>
</svg>
