<?xml version="1.0" encoding="UTF-8"?>
<svg width="25px" height="26px" viewBox="0 0 25 26" version="1.1" xmlns="http://www.w3.org/2000/svg" xmlns:xlink="http://www.w3.org/1999/xlink">
    <title>Icon/Interactive message</title>
    <g id="Templates" stroke="none" stroke-width="1" fill="none" fill-rule="evenodd">
        <g id="Desktop/Interactive-msg/Listing" transform="translate(-269.000000, -27.000000)">
            <g id="Speed-send/Icon" transform="translate(257.000000, 16.000000)">
                <g id="Icon/Interactive-message" transform="translate(12.000000, 12.000000)">
                    <path d="M7.02127161,8.47058824 L3.00598802,8.47058824 C1.90141852,8.47058824 1.00598802,7.57515773 1.00598802,6.47058824 L1.00598802,2 C1.00598802,0.8954305 1.90141852,2.02906125e-16 3.00598802,0 L22,0 C23.1045695,-2.16501571e-15 24,0.8954305 24,2 L24,6.47058824 C24,7.57515773 23.1045695,8.47058824 22,8.47058824 L13.021149,8.47058824 L13.021149,8.47058824" id="Rectangle" stroke="#073F24" stroke-width="2"></path>
                    <g id="Group" transform="translate(0.000000, 4.517647)" stroke="#073F24" stroke-width="2">
                        <path d="M3.74564577,18.8100345 L2.95815982,17.975478 L1.70100007,16.6182141 C0.754854692,15.5967298 0.796101854,14.0070489 1.793947,13.036005 L1.80250201,13.0276797 C2.79499239,12.0618467 4.37718075,12.065544 5.36514637,13.036005 L6.77312534,14.4190375 C6.85867152,14.503068 6.99614056,14.5018393 7.08017104,14.4162931 C7.12005287,14.3756919 7.14239875,14.3210548 7.14239875,14.2641425 L7.14239875,2.9467683 C7.14239875,1.31931311 8.46171186,1.74442925e-15 10.0891671,0 C11.7166222,-2.98958669e-16 13.0359353,1.31931311 13.0359353,2.9467683 L13.0359353,14.3696835 L13.0359353,14.3696835" id="Path-34"></path>
                        <path d="M13.0359353,15.7814483 L13.0359353,11.7157822 C13.0359353,10.173922 14.28586,8.92399732 15.8277202,8.92399732 C17.3695804,8.92399732 18.6195051,10.173922 18.6195051,11.7157822 L18.6195051,15.7814483 L18.6195051,15.7814483" id="Path-35"></path>
                        <path d="M18.6195051,15.7814483 L18.6195051,12.6768652 C18.6195051,11.1910825 19.8239699,9.98661773 21.3097525,9.98661773 C22.7955352,9.98661773 24,11.1910825 24,12.6768652 L24,15.7814483 L24,15.7814483" id="Path-36"></path>
                    </g>
                    <polygon id="Path-37" fill="#073F24" points="2.99166474 24 4.48614693 22.6478118 5.9201535 24"></polygon>
                </g>
            </g>
        </g>
    </g>
</svg>