<?xml version="1.0" encoding="UTF-8"?>
<svg width="18px" height="18px" viewBox="0 0 18 18" version="1.1" xmlns="http://www.w3.org/2000/svg" xmlns:xlink="http://www.w3.org/1999/xlink">
    <title>Speed send/Icon</title>
    <g id="Templates" stroke="none" stroke-width="1" fill="none" fill-rule="evenodd">
        <g id="Desktop/Interactive-msg/Listing" transform="translate(-24.000000, -393.000000)">
            <g id="Group" transform="translate(12.000000, 378.000000)">
                <g transform="translate(12.000000, 15.000000)">
                    <path d="M5.09386058,7 L3,7 C1.8954305,7 1,6.1045695 1,5 L1,3 C1,1.8954305 1.8954305,1 3,1 L15,1 C16.1045695,1 17,1.8954305 17,3 L17,5 C17,6.1045695 16.1045695,7 15,7 L10.0678687,7 L10.0678687,7" id="Rectangle" stroke="#119656" stroke-width="2"></path>
                    <g transform="translate(0.300000, 4.200000)" stroke="#119656" stroke-width="2">
                        <path d="M2.41546817,13.1102728 L2.05838621,12.7326303 L1.18252112,11.7700355 C0.521472519,11.0435288 0.550474693,9.92510652 1.24828812,9.23383685 L1.2541376,9.22804222 C1.94126946,8.54735395 3.04930538,8.54994386 3.73324768,9.23383685 L4.59927292,10.0997996 C4.68406769,10.1845883 4.82154222,10.1845833 4.90633088,10.0997886 C4.94704591,10.0590706 4.96991913,10.0038469 4.96991913,9.94626512 L4.96991913,2.05045961 C4.96991913,0.918022036 5.88794117,2.21963863e-15 7.02037874,0 C8.15281631,-2.08025407e-16 9.07083835,0.918022036 9.07083835,2.05045961 L9.07083835,10.1785258 L9.07083835,10.1785258" id="Path-34"></path>
                        <path d="M9.07083835,11.1785258 L9.07083835,8.26378174 C9.07083835,7.19090401 9.94057759,6.32116477 11.0134553,6.32116477 C12.0863331,6.32116477 12.9560723,7.19090401 12.9560723,8.26378174 L12.9560723,11.1785258 L12.9560723,11.1785258" id="Path-35"></path>
                        <path d="M12.9560723,11.1785258 L12.9560723,8.94581808 C12.9560723,7.91196099 13.7941791,7.07385422 14.8280361,7.07385422 C15.8618932,7.07385422 16.7,7.91196099 16.7,8.94581808 L16.7,11.1785258 L16.7,11.1785258" id="Path-36"></path>
                    </g>
                    <polygon id="Path-37" fill="#119656" points="1.98423314 18 3.44391656 16.6205456 4.74975221 18"></polygon>
                </g>
            </g>
        </g>
    </g>
</svg>