<svg width="20" height="18" viewBox="0 0 20 18" fill="none" xmlns="http://www.w3.org/2000/svg">
<path d="M6.09386 7H4C2.89543 7 2 6.10457 2 5V3C2 1.89543 2.89543 1 4 1H16C17.1046 1 18 1.89543 18 3V5C18 6.10457 17.1046 7 16 7H11.0679" stroke="white" stroke-width="2"/>
<path d="M3.71625 17.3105L3.35917 16.9328L2.46102 15.9457C1.81243 15.2329 1.84088 14.1356 2.52554 13.4573V13.4573C3.22892 12.7606 4.36315 12.7632 5.06327 13.4633L6.21213 14.612C6.23374 14.6337 6.2707 14.6184 6.2707 14.5878V6.25065C6.2707 5.11822 7.18872 4.2002 8.32116 4.2002V4.2002C9.4536 4.2002 10.3716 5.11822 10.3716 6.25066V14.3787" stroke="white" stroke-width="2"/>
<path d="M10.3711 15.3788V12.4641C10.3711 11.3912 11.2408 10.5215 12.3137 10.5215V10.5215C13.3866 10.5215 14.2563 11.3912 14.2563 12.4641V15.3788" stroke="white" stroke-width="2"/>
<path d="M14.2578 15.3791V13.1464C14.2578 12.1125 15.0959 11.2744 16.1298 11.2744V11.2744C17.1636 11.2744 18.0017 12.1125 18.0017 13.1464V15.3791" stroke="white" stroke-width="2"/>
<path fill-rule="evenodd" clip-rule="evenodd" d="M2.98438 17.9996L4.44406 16.6201L5.74989 17.9996H2.98438Z" fill="white"/>
</svg>
