<?xml version="1.0" encoding="UTF-8"?>
<svg width="27px" height="26px" viewBox="0 0 27 26" version="1.1" xmlns="http://www.w3.org/2000/svg" xmlns:xlink="http://www.w3.org/1999/xlink">
    <title>Icon/Variable</title>
    <g id="HSM-Templates" stroke="none" stroke-width="1" fill="none" fill-rule="evenodd">
        <g id="Desktop/Use-template" transform="translate(-793.000000, -643.000000)">
            <g id="Type-message" transform="translate(245.500000, 540.000000)">
                <g id="Icon/Variable" transform="translate(548.000000, 103.000000)">
                    <circle id="Oval" stroke="#119656" stroke-width="2" cx="13" cy="13" r="12"></circle>
                    <path d="M8.25785641,17.5598812 C7.99823284,17.4552568 7.81610884,17.2692578 7.71148441,17.0018843 C7.60685999,16.7345107 7.55454778,16.3935126 7.55454778,15.9788899 L7.55454778,14.7989589 C7.55454778,14.3998361 7.46445452,14.0443068 7.28426801,13.732371 C7.1040815,13.4204352 6.82992676,13.1753428 6.46180378,12.9970938 C6.82992676,12.8188447 7.1040815,12.5737523 7.28426801,12.2618166 C7.46445452,11.9498808 7.55454778,11.5943515 7.55454778,11.1952287 L7.55454778,10.0152976 C7.55454778,9.60067493 7.60685999,9.2596768 7.71148441,8.99230327 C7.81610884,8.72492974 7.99823284,8.53893076 8.25785641,8.43430634 L7.86842105,7.3125 C7.11667518,7.52174885 6.57999063,7.858872 6.2583674,8.32386944 C5.93674417,8.78886689 5.77593255,9.35267629 5.77593255,10.0152976 L5.77593255,11.1952287 C5.77593255,11.5362268 5.70230795,11.8016628 5.55505876,11.9915368 C5.40780957,12.1814107 5.18112332,12.2763477 4.875,12.2763477 L4.875,13.7236523 C5.18112332,13.7236523 5.40780957,13.8185893 5.55505876,14.0084632 C5.70230795,14.1983372 5.77593255,14.4618357 5.77593255,14.7989589 L5.77593255,15.9788899 C5.77593255,16.6415112 5.93674417,17.2062894 6.2583674,17.6732243 C6.57999063,18.1401593 7.11667518,18.4782511 7.86842105,18.6875 L8.25785641,17.5598812 Z" id="Path" fill="#119656" fill-rule="nonzero"></path>
                    <path d="M11.9309211,18.6875 L12.3203564,17.5598812 C12.0607328,17.4552568 11.8786088,17.2692578 11.7739844,17.0018843 C11.66936,16.7345107 11.6170478,16.3935126 11.6170478,15.9788899 L11.6170478,15.9788899 L11.6170478,14.7989589 C11.6170478,14.3998361 11.5269545,14.0443068 11.346768,13.732371 C11.1665815,13.4204352 10.8924268,13.1753428 10.5243038,12.9970938 C10.8924268,12.8188447 11.1665815,12.5737523 11.346768,12.2618166 C11.5269545,11.9498808 11.6170478,11.5943515 11.6170478,11.1952287 L11.6170478,11.1952287 L11.6170478,10.0152976 C11.6170478,9.60067493 11.66936,9.2596768 11.7739844,8.99230327 C11.8786088,8.72492974 12.0607328,8.53893076 12.3203564,8.43430634 L12.3203564,8.43430634 L11.9309211,7.3125 C11.1791752,7.52174885 10.6424906,7.858872 10.3208674,8.32386944 C9.99924417,8.78886689 9.83843255,9.35267629 9.83843255,10.0152976 L9.83843255,10.0152976 L9.83843255,11.1952287 C9.83843255,11.5362268 9.76480795,11.8016628 9.61755876,11.9915368 C9.47030957,12.1814107 9.24362332,12.2763477 8.9375,12.2763477 L8.9375,12.2763477 L8.9375,13.7236523 C9.24362332,13.7236523 9.47030957,13.8185893 9.61755876,14.0084632 C9.76480795,14.1983372 9.83843255,14.4618357 9.83843255,14.7989589 L9.83843255,14.7989589 L9.83843255,15.9788899 C9.83843255,16.6415112 9.99924417,17.2062894 10.3208674,17.6732243 C10.6424906,18.1401593 11.1791752,18.4782511 11.9309211,18.6875 L11.9309211,18.6875 Z" id="Path" fill="#119656" fill-rule="nonzero"></path>
                    <path d="M14.2019354,18.6875 C14.9536812,18.4782511 15.4903658,18.1401593 15.811989,17.6732243 C16.1336122,17.2062894 16.2944239,16.6415112 16.2944239,15.9788899 L16.2944239,15.9788899 L16.2944239,14.7989589 C16.2944239,14.4618357 16.3680485,14.1983372 16.5152976,14.0084632 C16.6625468,13.8185893 16.8892331,13.7236523 17.1953564,13.7236523 L17.1953564,13.7236523 L17.1953564,12.2763477 C16.8892331,12.2763477 16.6625468,12.1814107 16.5152976,11.9915368 C16.3680485,11.8016628 16.2944239,11.5362268 16.2944239,11.1952287 L16.2944239,11.1952287 L16.2944239,10.0152976 C16.2944239,9.35267629 16.1336122,8.78886689 15.811989,8.32386944 C15.4903658,7.858872 14.9536812,7.52174885 14.2019354,7.3125 L14.2019354,7.3125 L13.8125,8.43430634 C14.0721236,8.53893076 14.2542476,8.72492974 14.358872,8.99230327 C14.4634964,9.2596768 14.5158086,9.60067493 14.5158086,10.0152976 L14.5158086,10.0152976 L14.5158086,11.1952287 C14.5158086,11.5943515 14.6039644,11.9498808 14.7802759,12.2618166 C14.9565875,12.5737523 15.2268672,12.8188447 15.5911152,12.9970938 C15.2268672,13.1753428 14.9565875,13.4204352 14.7802759,13.732371 C14.6039644,14.0443068 14.5158086,14.3998361 14.5158086,14.7989589 L14.5158086,14.7989589 L14.5158086,15.9788899 C14.5158086,16.3935126 14.4634964,16.7345107 14.358872,17.0018843 C14.2542476,17.2692578 14.0721236,17.4552568 13.8125,17.5598812 L13.8125,17.5598812 L14.2019354,18.6875 Z" id="Path" fill="#119656" fill-rule="nonzero"></path>
                    <path d="M18.2644354,18.6875 C19.0161812,18.4782511 19.5528658,18.1401593 19.874489,17.6732243 C20.1961122,17.2062894 20.3569239,16.6415112 20.3569239,15.9788899 L20.3569239,15.9788899 L20.3569239,14.7989589 C20.3569239,14.4618357 20.4305485,14.1983372 20.5777976,14.0084632 C20.7250468,13.8185893 20.9517331,13.7236523 21.2578564,13.7236523 L21.2578564,13.7236523 L21.2578564,12.2763477 C20.9517331,12.2763477 20.7250468,12.1814107 20.5777976,11.9915368 C20.4305485,11.8016628 20.3569239,11.5362268 20.3569239,11.1952287 L20.3569239,11.1952287 L20.3569239,10.0152976 C20.3569239,9.35267629 20.1961122,8.78886689 19.874489,8.32386944 C19.5528658,7.858872 19.0161812,7.52174885 18.2644354,7.3125 L18.2644354,7.3125 L17.875,8.43430634 C18.1346236,8.53893076 18.3167476,8.72492974 18.421372,8.99230327 C18.5259964,9.2596768 18.5783086,9.60067493 18.5783086,10.0152976 L18.5783086,10.0152976 L18.5783086,11.1952287 C18.5783086,11.5943515 18.6664644,11.9498808 18.8427759,12.2618166 C19.0190875,12.5737523 19.2893672,12.8188447 19.6536152,12.9970938 C19.2893672,13.1753428 19.0190875,13.4204352 18.8427759,13.732371 C18.6664644,14.0443068 18.5783086,14.3998361 18.5783086,14.7989589 L18.5783086,14.7989589 L18.5783086,15.9788899 C18.5783086,16.3935126 18.5259964,16.7345107 18.421372,17.0018843 C18.3167476,17.2692578 18.1346236,17.4552568 17.875,17.5598812 L17.875,17.5598812 L18.2644354,18.6875 Z" id="Path" fill="#119656" fill-rule="nonzero"></path>
                </g>
            </g>
        </g>
    </g>
</svg>