<?xml version="1.0" encoding="UTF-8"?><svg width="18px" height="18px" viewBox="0 0 18 18" version="1.1" xmlns="http://www.w3.org/2000/svg" xmlns:xlink="http://www.w3.org/1999/xlink"> <title>Icon/Tags/Filled</title> <desc>Created with Sketch.</desc> <g id="Icon/Tags/Filled" fill='none' stroke-width="1" fill-rule="evenodd"> <path d="M15.4545455,3 C16.559115,3 17.4545455,3.8954305 17.4545455,5 L17.4545455,13 C17.4545455,14.1045695 16.559115,15 15.4545455,15 L7.17639138,15 C6.66741169,15 6.17758025,14.8059448 5.80669419,14.4573708 L1.55065631,10.4573708 C0.745772654,9.70090791 0.706519851,8.43518647 1.46298272,7.63030281 C1.49129413,7.6001792 1.52053271,7.57094062 1.55065631,7.54262922 L5.80669419,3.54262922 C6.17758025,3.19405519 6.66741169,3 7.17639138,3 L15.4545455,3 Z M6,8 C5.44771525,8 5,8.44771525 5,9 C5,9.55228475 5.44771525,10 6,10 C6.55228475,10 7,9.55228475 7,9 C7,8.44771525 6.55228475,8 6,8 Z" id="Combined-Shape"></path> </g></svg>