<svg width="24" height="24" viewBox="0 0 24 24" fill="none" xmlns="http://www.w3.org/2000/svg">
<path d="M5.15676 5.11161C6.87239 3.59208 9.15861 2.66174 11.6769 2.66174C17.0459 2.66174 21.3341 6.87757 21.3341 12C21.3341 17.1224 17.0459 21.3383 11.6769 21.3383C7.47053 21.3383 3.9147 18.7424 2.5834 15.1518C2.32783 14.4625 1.56097 14.1106 0.870574 14.3658C0.180181 14.6209 -0.172309 15.3866 0.0832674 16.0759C1.80256 20.7129 6.35736 24 11.6769 24C18.4473 24 24 18.6624 24 12C24 5.33763 18.4473 0 11.6769 0C8.41439 0 5.44065 1.23652 3.23263 3.26005L3.12628 2.02896C3.06578 1.32854 2.43143 0.798229 1.70944 0.844481C0.987443 0.890732 0.4512 1.49603 0.511707 2.19646L0.914485 6.85905C0.944797 7.20995 1.12362 7.53556 1.4084 7.75844C1.69319 7.98131 2.05849 8.08153 2.41741 8.03524L7.00435 7.44365C7.72077 7.35125 8.21396 6.71225 8.10591 6.01641C7.99786 5.32057 7.3295 4.83138 6.61307 4.92378L5.15676 5.11161Z" fill="#073F24"/>
<path d="M16.8133 9.21729C17.3111 9.7588 17.2749 10.6007 16.7326 11.0977L10.6399 16.6809L6.37704 13.6238C5.77912 13.195 5.64257 12.3635 6.07204 11.7665C6.50152 11.1695 7.33439 11.0332 7.93232 11.462L10.4344 13.2563L14.9299 9.13672C15.4723 8.63971 16.3155 8.67578 16.8133 9.21729Z" fill="#073F24"/>
</svg>
