<svg width="19" height="18" viewBox="0 0 19 18" fill="none" xmlns="http://www.w3.org/2000/svg">
<path d="M3.86861 3.83371C5.15569 2.69406 6.87082 1.9963 8.76007 1.9963C12.7879 1.9963 16.0049 5.15818 16.0049 9C16.0049 12.8418 12.7879 16.0037 8.76007 16.0037C5.60441 16.0037 2.93682 14.0568 1.93808 11.3639C1.74634 10.8469 1.17104 10.5829 0.653107 10.7743C0.135172 10.9657 -0.129266 11.5399 0.0624674 12.0569C1.35229 15.5347 4.76931 18 8.76007 18C13.8392 18 18.0049 13.9968 18.0049 9C18.0049 4.00322 13.8392 0 8.76007 0C6.3125 0 4.08159 0.927386 2.42513 2.44504L2.34535 1.52172C2.29995 0.996405 1.82407 0.598672 1.28243 0.63336C0.740783 0.668049 0.338492 1.12202 0.383884 1.64734L0.686049 5.14429C0.708789 5.40746 0.84294 5.65167 1.05659 5.81883C1.27024 5.98599 1.54429 6.06114 1.81355 6.02643L5.25468 5.58273C5.79214 5.51344 6.16213 5.03419 6.08108 4.51231C6.00002 3.99043 5.49861 3.62354 4.96115 3.69284L3.86861 3.83371Z" fill="#93A29B"/>
<path d="M12.6134 6.91297C12.9868 7.3191 12.9597 7.95052 12.5528 8.32327L7.98206 12.5107L4.78407 10.2179C4.33551 9.89629 4.23307 9.27262 4.55526 8.82488C4.87746 8.37715 5.50228 8.2749 5.95085 8.5965L7.82788 9.94225L11.2004 6.85254C11.6073 6.47978 12.2399 6.50684 12.6134 6.91297Z" fill="#93A29B"/>
</svg>
