<?xml version="1.0" encoding="UTF-8"?>
<svg width="24px" height="25px" viewBox="0 0 24 25" version="1.1" xmlns="http://www.w3.org/2000/svg" xmlns:xlink="http://www.w3.org/1999/xlink">
    <!-- Generator: Sketch 61.2 (89653) - https://sketch.com -->
    <title>Collections/Icon/Unselected</title>
    <desc>Created with Sketch.</desc>
    <g id="Collections" stroke="none" stroke-width="1" fill="none" fill-rule="evenodd">
        <g id="Desktop/Collections" transform="translate(-269.000000, -29.000000)" stroke="#073F24" stroke-width="2">
            <g id="Tags/Icon-Copy-2" transform="translate(257.000000, 16.000000)">
                <g id="Collections/Icon/Unselected" transform="translate(12.000000, 13.000000)">
                    <path d="M7.57142857,1 C6.46685907,1 5.57142857,1.8954305 5.57142857,3 L5.57142857,9.57142857 C5.57142857,10.6759981 6.46685907,11.5714286 7.57142857,11.5714286 L13.6321345,11.5714286 L18.6930733,16.0616344 L18.6930733,11.5714286 L21,11.5714286 C22.1045695,11.5714286 23,10.6759981 23,9.57142857 L23,3 C23,1.8954305 22.1045695,1 21,1 L7.57142857,1 Z" id="Rectangle-Copy-5"></path>
                    <path d="M3,6.9047619 C1.8954305,6.9047619 1,7.80019241 1,8.9047619 L1,16.3389359 C1,17.4435054 1.8954305,18.3389359 3,18.3389359 L9.65646369,18.3389359 L15.1594051,23.2212988 L15.1594051,18.3389359 L17.7619053,18.3389359 C18.8664748,18.3389359 19.7619053,17.4435054 19.7619053,16.3389359 L19.7619053,8.9047619 C19.7619053,7.80019241 18.8664748,6.9047619 17.7619053,6.9047619 L3,6.9047619 Z" id="Rectangle" fill="#EAEDEC"></path>
                </g>
            </g>
        </g>
    </g>
</svg>