<?xml version="1.0" encoding="UTF-8"?> <svg width="18px" height="18px" viewBox="0 0 18 18" version="1.1" xmlns="http://www.w3.org/2000/svg" xmlns:xlink="http://www.w3.org/1999/xlink"><title>Icon/Broadcast/Unselected</title> <g id="Symbols" stroke="none" stroke-width="1" fill="none" fill-rule="evenodd"> <g id="Icon/Broadcast/Unselected"> <g id="Group-3" transform="translate(1.000000, 1.000000)"> <path d="M9.93498718,11.531835 C11.4401764,10.7047093 12.4444444,9.21555574 12.4444444,7.51596236 C12.4444444,5.75786025 11.3698422,4.22493619 9.77777778,3.41704009" id="Oval" stroke="#93A29B" stroke-width="2" stroke-linecap="round"></path> <path d="M3.71276495,11.531835 C5.21795421,10.7047093 6.22222222,9.21555574 6.22222222,7.51596236 C6.22222222,5.75786025 5.14761994,4.22493619 3.55555556,3.41704009" id="Oval" stroke="#93A29B" stroke-width="2" stroke-linecap="round" transform="translate(4.888889, 7.474438) scale(-1, 1) translate(-4.888889, -7.474438) "></path> <path d="M11.5369458,15.1241267 C14.1811919,13.7418367 16,10.857949 16,7.52426732 C16,4.2502011 14.2456609,1.40998555 11.6780075,3.67810357e-14" id="Oval" stroke="#93A29B" stroke-width="2" stroke-linecap="round"></path> <path d="M-4.73695157e-15,15.1241267 C2.64424605,13.7418367 4.46305419,10.857949 4.46305419,7.52426732 C4.46305419,4.2502011 2.70871506,1.40998555 0.141061726,3.67810357e-14" id="Oval" stroke="#93A29B" stroke-width="2" stroke-linecap="round" transform="translate(2.231527, 7.562063) scale(-1, 1) translate(-2.231527, -7.562063) "></path> <circle id="Oval" fill="#93A29B" cx="8" cy="7.41969216" r="1.77777778"></circle> </g> </g> </g> </svg>